<svg xmlns="http://www.w3.org/2000/svg" width="50" height="72" viewBox="0 0 50 72">
    <g fill="none" fill-rule="evenodd" stroke="#000">
        <path d="M11.958 6.853v4.235H2a1.5 1.5 0 0 0-1.5 1.5V70A1.5 1.5 0 0 0 2 71.5h46a1.5 1.5 0 0 0 1.5-1.5V12.588a1.5 1.5 0 0 0-1.5-1.5h-9.958V6.853h-6.259l-.06-.43C31.247 3.04 28.388.5 25 .5s-6.247 2.54-6.723 5.923l-.06.43h-6.259z"/>
        <path fill="#FFF" d="M11.958 6.853v9.588h26.084V6.853h-6.259l-.06-.43C31.247 3.04 28.388.5 25 .5s-6.247 2.54-6.723 5.923l-.06.43h-6.259z"/>
        <path d="M6.25 29.647l4.514 4.235 9.028-8.47M6.25 44.47l4.514 4.236 9.028-8.47M6.25 59.294l4.514 4.235 9.028-8.47"/>
        <path stroke-linecap="square" d="M25.493 30.176h17.791M25.493 45h17.791M25.493 59.824h17.791"/>
    </g>
</svg>
