<svg xmlns="http://www.w3.org/2000/svg" width="129" height="71" viewBox="0 0 129 71">
    <g fill="none" fill-rule="evenodd" stroke="#000">
        <path d="M89.984 51.23c1.763-1.922 2.764-4.492 2.764-6.991v-4.91c-4.865-1.592-8.822-5.177-10.606-9.877-4.275-.701-7.904-3.652-9.355-7.78l-3.554-10.108c-.502-1.722-.18-3.431.856-4.784a5.417 5.417 0 0 1 4.339-2.128h3.428l-.259-1.62C77.407 1.964 78.281 1 79.458 1h37.97c1.178 0 2.051.963 1.861 2.033l-.258 1.62h3.754c1.722 0 3.302.774 4.338 2.127a5.237 5.237 0 0 1 .884 4.69l-3.581 10.203c-1.49 4.24-5.28 7.24-9.707 7.832-1.79 4.65-5.716 8.233-10.58 9.825v4.909c0 2.499 1 5.069 2.764 6.992 2.74.39 4.83 2.605 4.83 5.289v3.566c0 .999-.835 1.784-1.898 1.784H87.052c-1.063 0-1.898-.785-1.898-1.784V56.52c0-2.684 2.09-4.9 4.83-5.29zM78.424 8.219h-3.996c-.573 0-1.104.258-1.447.708a1.753 1.753 0 0 0-.297 1.566l3.526 10.014c.83 2.365 2.686 4.177 4.976 5.02L78.425 8.218zm40.038 0l-2.78 17.428c2.447-.782 4.45-2.656 5.322-5.14l3.552-10.108c.128-.45.022-1.02-.325-1.471a1.803 1.803 0 0 0-1.446-.71h-4.323zM4.297 22.539H59.5v38.922H4.297z"/>
        <path fill="#FFF" d="M.835 40.072l6.812-6.811 30.185 30.185-6.812 6.811z"/>
        <path stroke-linecap="square" d="M7.58 39.545l2.911-2.912M31.548 63.513l2.911-2.911M26.754 58.72l2.911-2.912M21.96 53.926l2.912-2.912M17.167 49.132l2.911-2.911M12.373 44.338l2.912-2.911"/>
        <g>
            <path d="M26.582 39.364c10.06 2.13 13.47 18.32 26.839 4.961"/>
            <path fill="#D8D8D8" d="M43.659 17.413L28.74 32.332a.5.5 0 0 0 0 .707l3.956 3.956a.5.5 0 0 0 .707 0l14.918-14.918-4.663-4.664z"/>
            <path d="M43.833 17.239l4.664 4.663 1.786-1.786a2.5 2.5 0 0 0 0-3.535l-1.128-1.128a2.5 2.5 0 0 0-3.536 0l-1.786 1.786zM28.433 33.08l-1.765 5.357a.5.5 0 0 0 .63.631l5.357-1.766-4.222-4.222z"/>
        </g>
    </g>
</svg>
