<svg xmlns="http://www.w3.org/2000/svg" width="79" height="77" viewBox="0 0 79 77">
    <g fill="none" fill-rule="evenodd" stroke="#000">
        <path d="M5.5 12.5h73v52h-73z"/>
        <path fill="#FFF" d="M.707 35.9L9.9 26.706l40.306 40.305-9.193 9.193z"/>
        <path stroke-linecap="square" d="M9.849 35.243l3.833-3.833M41.669 67.063l3.833-3.834M35.305 60.699l3.833-3.834M28.94 54.335l3.834-3.833M22.577 47.97l3.833-3.832M16.213 41.607l3.833-3.833"/>
        <g>
            <path d="M35 35c13.244 2.83 17.735 24.321 35.337 6.587"/>
            <path fill="#D8D8D8" d="M57.577 5.657L37.425 25.809a.5.5 0 0 0 0 .708l5.656 5.656a.5.5 0 0 0 .708 0L63.94 12.021l-6.364-6.364z"/>
            <path d="M57.577 5.657l6.364 6.364 3.182-3.182a2.5 2.5 0 0 0 0-3.536l-2.828-2.828a2.5 2.5 0 0 0-3.536 0l-3.182 3.182zM37.29 26.381l-2.648 7.942a.5.5 0 0 0 .633.633l7.942-2.648-5.927-5.927z"/>
        </g>
    </g>
</svg>
