<svg xmlns="http://www.w3.org/2000/svg" width="17" height="22" viewBox="0 0 17 22">
    <g fill="none" fill-rule="evenodd">
        <path fill="#434343" fill-rule="nonzero" d="M2.208 16.479l.196-.896c1.464.32 2.566 1 4.155 2.35l.61.522c.235.2.416.351.59.49 2.478 1.994 4.263 1.842 7.702-1.7l.657.638c-3.762 3.876-6.08 4.073-8.934 1.777a26.972 26.972 0 0 1-.61-.507c-.052-.045-.48-.413-.608-.521-1.484-1.26-2.477-1.873-3.758-2.153z"/>
        <path fill="#434343" stroke="#434343" stroke-width=".5" d="M9.915 3.626l2.491 2.492-6.776 6.777-2.492-2.492z"/>
        <path fill="#9AA6A6" d="M14.108.985l.94.94a1.347 1.347 0 0 1 0 1.905l-1.64 1.64-2.846-2.845 1.64-1.64a1.347 1.347 0 0 1 1.906 0z"/>
        <path fill="#434343" d="M2.136 11.051l2.846 2.846-3.465 1.19a.449.449 0 0 1-.57-.571l1.19-3.465z"/>
    </g>
</svg>
