<svg xmlns="http://www.w3.org/2000/svg" width="220" height="220" viewBox="0 0 220 220">
  <g fill="none" fill-rule="evenodd">
    <rect width="220" height="220" fill="#FFF" fill-rule="nonzero" rx="110"/>
    <g stroke="#000" stroke-width="3" transform="translate(67 67)">
      <path fill="#FFF" d="M30.4701317,73.4442432 C33.0310206,70.6323243 34.483465,66.8750811 34.483465,63.2212703 L34.483465,56.0411351 C27.4195206,53.7151081 21.6742428,48.472527 19.0834928,41.6014865 C12.8747706,40.5755811 7.60488168,36.2614865 5.49907613,30.2263243 L0.337881682,15.4463108 C-0.390729429,12.9290541 0.0751039043,10.4286351 1.5801039,8.45018919 C3.0851039,6.47294595 5.38082613,5.34 7.88318724,5.34 L12.8604372,5.34 L12.4853817,2.97187838 C12.2106595,1.40836486 13.4767706,-7.10542736e-15 15.187215,-7.10542736e-15 L70.3251595,-7.10542736e-15 C72.033215,-7.10542736e-15 73.301715,1.40716216 73.0269928,2.97187838 L72.6507428,5.34 L78.1033817,5.34 C80.6033539,5.34 82.8978817,6.47294595 84.4016872,8.45139189 C85.8995978,10.3966039 86.3773735,12.9483364 85.685715,15.3092027 L80.4851039,30.227527 C78.3207706,36.4274595 72.8191595,40.8113108 66.3906595,41.6784595 C63.7891595,48.4773378 58.0892706,53.7175135 51.0265206,56.0435405 L51.0265206,63.2212703 C51.0265206,66.8750811 52.4801595,70.6323243 55.0398539,73.4442432 C59.0173539,74.015527 62.0536317,77.2532027 62.0536317,81.1776216 L62.0536317,86.3925405 C62.0536317,87.8526216 60.8412706,89 59.2968539,89 L26.2131317,89 C24.6699095,89 23.4563539,87.8526216 23.4563539,86.3925405 L23.4563539,81.1776216 C23.4563539,77.2532027 26.4926317,74.015527 30.4713261,73.4442432 L30.4701317,73.4442432 Z M13.6869928,10.5537162 L7.88199279,10.5537162 C7.05065946,10.5537162 6.28143724,10.9301622 5.78215946,11.5892432 C5.28249946,12.2385085 5.12216018,13.0895757 5.35096502,13.8779865 L10.4703539,28.5208919 C11.6767428,31.9786622 14.3714095,34.6282162 17.6967428,35.8609865 L13.6846039,10.5537162 L13.6869928,10.5537162 Z M71.8253817,10.5536516 L67.7881595,36.0353784 C71.3416317,34.8928108 74.2501039,32.1530541 75.516215,28.5220946 L80.6750206,13.7408784 C80.8601595,13.0842027 80.7060761,12.249527 80.2020206,11.5892432 C79.702768,10.9314034 78.9256048,10.5479294 78.1033817,10.5536516 L71.8253817,10.5536516 Z"/>
      <path fill="#BDD131" d="M23.8887428,9.41891892 L62.110965,9.41891892 C58.9257798,27.8603604 57.3331872,37.0810811 57.3331872,37.0810811 C54.9442983,44.2972973 48.0051645,47.9054054 42.9998539,47.9054054 C37.86912,47.9054054 29.860965,44.2972973 28.6665206,37.0810811 C28.6665206,37.0810811 27.073928,27.8603604 23.8887428,9.41891892 Z"/>
    </g>
  </g>
</svg>