<svg xmlns="http://www.w3.org/2000/svg" width="220" height="220" viewBox="0 0 220 220">
  <g fill="none" fill-rule="evenodd">
    <rect width="220" height="220" fill="#FFF" fill-rule="nonzero" rx="110"/>
    <g stroke="#000" stroke-width="3" transform="translate(48 71)">
      <g fill="#BDD131" fill-rule="nonzero" transform="translate(103.365 5.987)">
        <rect width="14.423" height="4.789" x="7.212" y="27.539" rx="2.395"/>
        <path d="M3.6018248,3.58193156 L13.222105,3.59773235 C14.544506,3.59990432 15.6159839,4.67137886 15.61816,5.99377985 L15.618168,5.99867545 C15.6203393,7.31816418 14.5524426,8.38958133 13.2329538,8.39175264 C13.2303353,8.39175695 13.2277168,8.39175695 13.2250983,8.39175265 L3.6048181,8.37595186 C2.2824171,8.37377989 1.21093922,7.30230535 1.20876312,5.97990436 L1.20875506,5.97500876 C1.20658375,4.65552003 2.27448052,3.58410288 3.59396925,3.58193157 C3.59658776,3.58192726 3.59920628,3.58192726 3.6018248,3.58193156 Z" transform="rotate(-30 8.413 5.987)"/>
        <path d="M3.6048181,51.4924692 L13.2250983,51.4766684 C14.544587,51.4745012 15.6160008,52.5424013 15.618168,53.8618901 C15.6181723,53.8645086 15.6181723,53.8671271 15.618168,53.8697456 L15.61816,53.8746412 C15.6159839,55.1970422 14.544506,56.2685167 13.222105,56.2706887 L3.6018248,56.2864895 C2.28233606,56.2886567 1.21092224,55.2207566 1.20875505,53.9012678 C1.20875075,53.8986493 1.20875075,53.8960308 1.20875506,53.8934123 L1.20876312,53.8885167 C1.21093922,52.5661157 2.2824171,51.4946412 3.6048181,51.4924692 Z" transform="rotate(30 8.413 53.882)"/>
      </g>
      <path fill="#FFF" d="M22.8365385,15.5657895 L50.4807692,15.5657895 L50.4807692,56.2763158 L22.8365385,56.2763158 C20.8451272,56.2763158 19.2307692,54.6680754 19.2307692,52.6842105 L19.2307692,19.1578947 C19.2307692,17.1740298 20.8451272,15.5657895 22.8365385,15.5657895 Z"/>
      <path fill="#F3F3F3" fill-rule="nonzero" d="M22.8365385,56.2763158 L43.2692308,56.2763158 L47.8242206,82.5951424 C48.5009297,86.505182 45.8677401,90.2213977 41.9428273,90.8955424 C41.5381278,90.9650537 41.1282076,91 40.717537,91 L34.9207256,91 C31.4106697,91 28.4104249,88.4823487 27.8140421,85.0364365 L22.8365385,56.2763158 Z"/>
      <polygon fill="#FFF" fill-rule="nonzero" points="90.144 67.053 49.279 56.2 49.279 15.595 90.144 4.789"/>
      <rect width="7.212" height="71.842" x="90.144" fill="#F3F3F3" rx="2.4"/>
      <path fill="#FFF" d="M6.00961538,17.9605263 L19.2307692,17.9605263 L19.2307692,53.8815789 L6.00961538,53.8815789 C2.69059645,53.8815789 0,51.2011784 0,47.8947368 L0,23.9473684 C0,20.6409269 2.69059645,17.9605263 6.00961538,17.9605263 Z"/>
    </g>
  </g>
</svg>