<svg xmlns="http://www.w3.org/2000/svg" width="679" height="168" viewBox="0 0 700 168">
    <g fill="none" fill-rule="evenodd">
        <g stroke-linejoin="square">
            <path fill="#0000C8" stroke="#FFF" stroke-width="10" d="M5 5v158h642.157l8.967-15.065c23.452-39.398 23.452-88.472 0-127.87L647.157 5H5z"/>
            <path stroke="#1700D0" stroke-width="6" d="M3 3v162h645.294l9.549-16.042c23.826-40.028 23.826-89.888 0-129.916L648.294 3H3z"/>
        </g>
        <path fill="#FFF" d="M38 49h535a5 5 0 0 1 5 5v60a5 5 0 0 1-5 5H38a5 5 0 0 1-5-5V54a5 5 0 0 1 5-5z"/>
        <g fill="#000" transform="translate(49 58)">
            <ellipse cx="16.605" cy="4.052" rx="4" ry="4.052"/>
            <path d="M16.605 35.443a.532.532 0 0 0-.364.151c-.111.101-.2.348-.268.74L14.75 51.91h-3.7l1.555-20.083V17.1c-.005-.418-.22-.629-.646-.633-.194 0-.4.211-.618.633L6.65 27.06H3.204l6.804-14.206c.575-1.302 1.108-2.135 1.597-2.5.49-.366 1.304-.537 2.443-.514h5.115c1.139-.023 1.953.148 2.442.513.49.366 1.022 1.2 1.598 2.501l6.804 14.206H26.56L21.87 17.1c-.218-.422-.424-.633-.618-.633-.425.004-.64.215-.646.633v14.728l1.557 20.083H18.46l-1.223-15.578c-.068-.391-.157-.638-.268-.739a.532.532 0 0 0-.365-.15"/>
            <path d="M0 32.466v12.791h9.284V32.466H5.318v-2.7c0-.532-.343-.798-1.028-.798s-1.047.266-1.086.797v2.7H0zM23.967 43.889l1.167-10.07h.726c.394-3.478 1.331-5.218 2.814-5.218 1.482 0 2.688 1.74 3.617 5.219h.976l.66 10.069h-9.96zm3.269-10.087h3.66c-.26-1.208-.556-2.107-.89-2.7-.477-.883-.927-1.31-1.35-1.278-.385.044-.706.47-.964 1.278-.169.473-.32 1.373-.456 2.7z"/>
        </g>
        <g fill="#FFF">
            <path d="M597.5 77.541l19 .5-3.29-12.263a3 3 0 0 1 4.67-3.198l28.94 20.14a1 1 0 0 1 0 1.642l-28.94 20.14a3 3 0 0 1-4.67-3.197l3.29-12.264-19 .5v-12z"/>
        </g>
    </g>
</svg>
