<?xml version="1.0" encoding="utf-8"?>
<!-- Generator: Adobe Illustrator 16.0.0, SVG Export Plug-In . SVG Version: 6.00 Build 0)  -->
<!DOCTYPE svg PUBLIC "-//W3C//DTD SVG 1.1//EN" "http://www.w3.org/Graphics/SVG/1.1/DTD/svg11.dtd">
<svg version="1.1" id="Laag_1" xmlns="http://www.w3.org/2000/svg" xmlns:xlink="http://www.w3.org/1999/xlink" x="0px" y="0px"
	 width="305.159px" height="291.356px" viewBox="0 0 305.159 291.356" enable-background="new 0 0 305.159 291.356"
	 xml:space="preserve">
<g>
	<path d="M31.061,272.14l-14.793-5.359c0-0.002-0.002,0-0.002,0c-1.468-0.685-3.102-1.079-4.83-1.079
		C5.127,265.701,0,270.823,0,277.146l0.007,14.209l44.798-0.016C44.629,282.73,39.181,275.087,31.061,272.14"/>
	<path d="M74.844,218.901c5.931-8.524,3.818-20.247-4.706-26.174c-8.526-5.929-20.243-3.831-26.178,4.702
		c-0.317,0.459-0.617,0.928-0.89,1.407L1.496,271.486c-2.898,5.093-1.483,11.642,3.414,15.046
		c4.895,3.404,11.533,2.452,15.293-2.033l53.626-64.273C74.185,219.806,74.522,219.364,74.844,218.901"/>
	<path d="M128.69,154.331c8.241-11.854,5.314-28.154-6.542-36.4c-11.86-8.246-28.159-5.313-36.402,6.539
		c-0.457,0.659-0.88,1.333-1.272,2.016L43.07,198.837c-4.795,8.377-2.475,19.159,5.596,24.771c8.063,5.61,18.985,4.035,25.163-3.386
		l53.409-63.998C127.742,155.619,128.229,154.99,128.69,154.331"/>
	<path d="M183.466,272.134l-14.783-5.369h-0.004c-1.474-0.686-3.104-1.08-4.829-1.08c-6.309,0-11.439,5.123-11.439,11.444v14.211
		h44.796C197.032,282.724,191.595,275.083,183.466,272.134"/>
	<path d="M189.939,195.091c0.911-10.351-6.744-19.478-17.088-20.383c-10.344-0.909-19.471,6.733-20.383,17.09
		c-0.053,0.558-0.07,1.113-0.07,1.663l0.006,83.706c0.02,5.854,4.506,10.837,10.442,11.353c5.939,0.523,11.224-3.59,12.263-9.361
		l14.607-82.418C189.813,196.196,189.895,195.646,189.939,195.091"/>
	<path d="M124.091,119.421c-11.033-9.321-27.532-7.933-36.854,3.106c-9.319,11.031-7.928,27.535,3.107,36.85
		c0.612,0.518,1.241,1.007,1.888,1.456l68.154,47.994c7.886,5.561,18.851,4.257,25.182-3.251c6.34-7.504,5.798-18.525-1.005-25.37
		l-58.722-59.166C125.288,120.478,124.706,119.938,124.091,119.421"/>
	<polygon fill="#ED1C24" points="257.945,223.677 100.757,66.488 93.1,74.147 250.297,231.338 238.271,243.361 273.44,278.544 
		298.061,271.444 305.159,246.814 269.983,211.645 	"/>
	<path d="M104.499,97.421c7.35-6.98,7.795-18.547,1.015-26.079l-6.267-6.875c-0.061-0.067-0.123-0.136-0.186-0.202
		c-3.73-3.928-9.94-4.088-13.863-0.358c-3.928,3.729-4.092,9.936-0.358,13.863c0.059,0.067,0.123,0.128,0.187,0.187L104.499,97.421z
		"/>
	<path d="M85.195,78.128c3.872,3.681,9.958,3.578,13.708-0.194l43.179-43.069c0.075-0.073,0.147-0.146,0.215-0.217
		c4.354-4.585,4.17-11.825-0.41-16.178c-4.583-4.358-11.828-4.175-16.183,0.41c-0.066,0.073-0.135,0.146-0.202,0.223L84.688,64.43
		C81.114,68.366,81.324,74.448,85.195,78.128"/>
	<path d="M125.688,18.89c-4.28,4.515-4.156,11.602,0.222,15.975l42.921,42.89c0.089,0.089,0.182,0.178,0.274,0.269
		c5.244,4.965,13.514,4.742,18.482-0.503c4.975-5.248,4.744-13.518-0.499-18.484c-0.089-0.087-0.187-0.177-0.283-0.259
		l-45.16-40.529C137.049,14.109,129.968,14.376,125.688,18.89"/>
	<g>
		<g>
			<defs>
				<rect id="SVGID_1_" x="181.404" y="-0.001" width="61.019" height="61.019"/>
			</defs>
			<clipPath id="SVGID_2_">
				<use xlink:href="#SVGID_1_"  overflow="visible"/>
			</clipPath>
			<g clip-path="url(#SVGID_2_)">
				<defs>
					<rect id="SVGID_3_" x="181.404" y="-0.001" width="61.019" height="61.019"/>
				</defs>
				<clipPath id="SVGID_4_">
					<use xlink:href="#SVGID_3_"  overflow="visible"/>
				</clipPath>
				<path clip-path="url(#SVGID_4_)" d="M189.367,9.957c11.347-12.452,30.642-13.35,43.098-2.001
					c12.454,11.353,13.348,30.651,2.001,43.1c-11.353,12.459-30.642,13.356-43.1,2.004C178.914,41.711,178.015,22.411,189.367,9.957
					"/>
			</g>
		</g>
	</g>
	<path d="M187.348,59.268c-10.211-10.211-26.767-10.211-36.985,0l-61.637,61.641c-10.215,10.215-10.215,26.769,0,36.981
		c10.219,10.214,26.769,10.214,36.984,0l61.638-61.638C197.566,86.042,197.566,69.483,187.348,59.268"/>
	
		<line fill="none" stroke="#FFFFFF" stroke-width="8.7172" stroke-linecap="round" stroke-miterlimit="10" x1="190.014" y1="127.268" x2="171.202" y2="83.171"/>
	<path d="M239.356,211.881c7.342-6.984,7.795-18.555,1.002-26.079l-6.26-6.869c-0.069-0.068-0.13-0.144-0.188-0.204
		c-3.735-3.93-9.945-4.085-13.863-0.354c-3.93,3.733-4.087,9.938-0.352,13.863c0.055,0.064,0.119,0.13,0.182,0.188L239.356,211.881z
		"/>
	<path d="M230.526,194.555c4.94-2.035,7.33-7.627,5.422-12.59l-21.671-57.014c-0.032-0.097-0.068-0.188-0.108-0.276
		c-2.402-5.851-9.083-8.646-14.931-6.245c-5.851,2.408-8.646,9.093-6.243,14.941c0.045,0.089,0.085,0.184,0.124,0.278l24.694,55.769
		C219.944,194.288,225.586,196.585,230.526,194.555"/>
	<path d="M207.857,139.636c5.773-2.323,8.613-8.813,6.452-14.611l-21.141-56.875c-0.048-0.117-0.089-0.24-0.135-0.357
		c-2.701-6.703-10.312-9.946-17.013-7.249c-6.708,2.698-9.948,10.31-7.252,17.015c0.053,0.117,0.098,0.236,0.15,0.354l24.162,55.66
		C195.545,139.249,202.084,141.958,207.857,139.636"/>
</g>
</svg>
