<svg xmlns="http://www.w3.org/2000/svg" width="20" height="22" viewBox="0 0 20 22">
    <g fill="none" fill-rule="evenodd">
        <path fill="#434343" d="M7.45 19.475C3.162 18.36 0 14.495 0 9.9 0 4.432 4.477 0 10 0s10 4.432 10 9.9c0 4.595-3.162 8.459-7.45 9.575L10 22l-2.55-2.525z"/>
        <path fill="#FFF" d="M8.577 8.218h2.902v6.542H8.577V8.218zm-.05-1.89c0-.2.04-.388.12-.567a1.47 1.47 0 0 1 .326-.466c.138-.133.3-.238.484-.317a1.486 1.486 0 0 1 1.156 0c.175.079.332.184.47.317.139.133.248.288.327.466.08.179.12.367.12.566a1.403 1.403 0 0 1-.446 1.039c-.139.128-.296.23-.471.305a1.558 1.558 0 0 1-1.64-.305 1.4 1.4 0 0 1-.446-1.039z"/>
    </g>
</svg>
