<svg xmlns="http://www.w3.org/2000/svg" width="29" height="22" viewBox="0 0 29 22">
    <g fill="none" fill-rule="evenodd">
        <path d="M10.017 12.591l-.31-.631-1.375-2.785-1.374 2.785-.31.631-.697.101-3.075.447L5.1 15.308l.505.49-.12.695-.525 3.062 2.75-1.445.622-.328.624.328 2.749 1.444-.525-3.061-.12-.694.505-.49 1.096-1.07.357-1.211-2.304-.335z"/>
        <path fill="#434343" fill-rule="nonzero" d="M12.661 14.239l-1.096 1.068-.505.49.12.695.525 3.061-2.75-1.444-.623-.328-.622.328-2.75 1.445.525-3.062.12-.694-.505-.49-2.224-2.168 3.075-.448.697-.1.31-.632 1.374-2.785 1.375 2.785.31.631.697.101 2.304.335.382-1.296-2.494-.363-2.574-5.217-2.574 5.217L0 12.205l4.166 4.06L3.183 22l5.15-2.707L13.482 22l-.89-5.187-.778.3z"/>
        <path fill="#9AA6A6" fill-rule="nonzero" d="M28.234 7.89l-6.352-1.695L19.676 0l-3.575 5.517L9.53 5.7l4.142 5.106-.272.925-.382 1.296-.357 1.212-.846 2.873.777-.3 5.36-2.062 5.423 3.715-.351-6.566z"/>
    </g>
</svg>
