<svg xmlns="http://www.w3.org/2000/svg" width="26" height="22" viewBox="0 0 26 22">
    <g fill="none" fill-rule="nonzero">
        <path fill="#434343" d="M24.738 5.286h-5.555v6.906c0 .701-.569 1.27-1.27 1.271H6.572v4.267A1.02 1.02 0 0 0 7.59 18.75h12.874l.275.275L23.719 22v-3.25h1.02a1.02 1.02 0 0 0 1.02-1.018V6.304a1.018 1.018 0 0 0-1.02-1.018z"/>
        <path fill="#9AA6A6" d="M19.183 12.192V1.27c0-.702-.569-1.27-1.27-1.271H1.27C.57 0 0 .569 0 1.27v10.922c0 .701.569 1.27 1.27 1.271h1.577v3.075l2.091-2.086.992-.989h11.983c.701 0 1.27-.57 1.27-1.271zM5.067 8.089a1.147 1.147 0 1 1 0-2.294 1.147 1.147 0 0 1 0 2.294zm4.505 0a1.147 1.147 0 1 1 0-2.294 1.147 1.147 0 0 1 0 2.294zm4.504 0a1.147 1.147 0 1 1 0-2.294 1.147 1.147 0 0 1 0 2.294z"/>
        <path fill="#FFF" d="M5.067 5.795a1.147 1.147 0 1 0 0 2.294 1.147 1.147 0 0 0 0-2.294zM9.572 5.795a1.147 1.147 0 1 0 0 2.294 1.147 1.147 0 0 0 0-2.294zM14.076 5.795a1.147 1.147 0 1 0 0 2.294 1.147 1.147 0 0 0 0-2.294z"/>
    </g>
</svg>
