<?xml version="1.0" standalone="no"?>
<!DOCTYPE svg PUBLIC "-//W3C//DTD SVG 1.1//EN" "http://www.w3.org/Graphics/SVG/1.1/DTD/svg11.dtd" >
<svg>
<metadata>
Created by FontForge 20090622 at Fri Jul 19 13:09:34 2019
 By deploy user
Copyright (c) Michael D. Adams, 2005. All rights reserved.
</metadata>
<defs>
<font id="Roadgeek2005SeriesD" horiz-adv-x="522" >
  <font-face 
    font-family="Roadgeek 2005 Series D"
    font-weight="400"
    font-stretch="normal"
    units-per-em="1000"
    panose-1="2 0 0 0 0 0 0 0 0 0"
    ascent="800"
    descent="-200"
    x-height="489"
    cap-height="670"
    bbox="-26 -314 1164 1006"
    underline-thickness="20"
    underline-position="-123"
    unicode-range="U+0005-U+2122"
  />
<missing-glyph horiz-adv-x="261" 
 />
    <glyph glyph-name=".notdef" horiz-adv-x="261" 
 />
    <glyph glyph-name="quotedbl" unicode="&#x22;" horiz-adv-x="482" 
d="M381 402h-89l-22 268h132zM188 402h-87l-21 268h129z" />
    <glyph glyph-name="numbersign" unicode="#" horiz-adv-x="646" 
d="M595 400h-108l-17 -116h106l-12 -84h-106l-32 -200h-99l33 200h-118l-30 -200h-94l30 200h-108l12 84h108l19 116h-108l11 84h108l31 186h94l-31 -186h120l29 186h96l-28 -186h106zM273 400l-17 -116h118l16 116h-117z" />
    <glyph glyph-name="dollar" unicode="$" 
d="M489 193q0 -46 -17 -85t-49 -68q-17 -16 -47 -30t-56 -22v-84h-106q-1 26 -1 46v31.5t1 16.5q-62 14 -108.5 55.5t-72.5 104.5l101 37q21 -48 58 -73.5t85 -25.5q47 0 75.5 28.5t28.5 70.5q0 33 -17.5 54t-45.5 35.5t-61.5 25.5t-66.5 24q-15 6 -37 17t-42.5 30.5
t-35 48.5t-14.5 71q0 81 42 123t111 53v92h106v-92q51 -12 86 -46t55 -86l-94 -28q-8 16 -21 29q-11 11 -30.5 20t-47.5 10q-18 1 -37.5 -2.5t-34.5 -12.5t-24 -24.5t-7 -38.5q2 -31 27 -47.5t61 -28.5t77.5 -24.5t76.5 -36t58.5 -63t23.5 -105.5z" />
    <glyph glyph-name="ampersand" unicode="&#x26;" horiz-adv-x="663" 
d="M520 0l-57 71q-44 -47 -86.5 -66t-99.5 -19q-47 0 -85.5 14.5t-66.5 40t-43.5 61.5t-15.5 79q0 79 63 139q14 16 29 31t49 32q-18 24 -29.5 43t-18.5 35.5t-10 33t-3 34.5q0 33 12 60.5t34.5 47.5t53.5 31t69 11q35 0 64.5 -11t50.5 -31.5t33 -48.5t12 -61
q0 -53 -26.5 -92t-84.5 -78l97 -120q7 22 12 43t7 44h101q-5 -54 -16 -91t-36 -75l134 -158h-143zM374 524q0 30 -17.5 48t-43.5 18q-27 0 -45.5 -17t-18.5 -42q0 -22 17 -49q2 -5 7.5 -12.5l13.5 -18.5q3 -3 7 -11q2 -3 4 -4.5t3 -3.5t2 -2q39 25 55 46.5t16 47.5zM275 303
q-51 -28 -73.5 -56.5t-22.5 -63.5q0 -20 8 -38t22.5 -31.5t33 -21t39.5 -7.5q34 0 61 14t57 51z" />
    <glyph glyph-name="parenleft" unicode="(" horiz-adv-x="315" 
d="M289 0h-60h-31.5t-13 0.5t-3.5 1.5q-29 30 -51 70t-36 84.5t-21 91t-7 88.5q0 91 27.5 179.5t89.5 154.5h106q-55 -75 -85 -157.5t-30 -176.5q0 -182 115 -336z" />
    <glyph glyph-name="parenright" unicode=")" horiz-adv-x="315" 
d="M249 336q0 -42 -6.5 -88.5t-21 -91t-36 -84.5t-51.5 -70q0 -1 -2 -1.5t-12.5 -0.5h-32h-61.5q115 154 115 336q0 94 -29.5 176.5t-83.5 157.5h106q60 -66 87.5 -154.5t27.5 -179.5z" />
    <glyph glyph-name="asterisk" unicode="*" horiz-adv-x="468" 
d="M343 480q-3 -2 -7 -2.5t-9 -1.5t-10 -1q3 -3 7 -6q3 -2 5.5 -4t4.5 -4q12 -14 23 -29.5t24 -31.5l-35 -27t-26 -20l-21 -17l-24 27l-17.5 20.5t-10.5 13.5l-14 26l-12 -26l-49 -58l-85 58l16 23q7 9 14 19t12 15q2 4 6.5 8.5t8.5 7.5q4 4 9 7q-6 1 -11 2t-10 1.5t-7 1.5
q-18 2 -35.5 8t-35.5 11l28 96q20 -5 35 -7t29 -7q5 -1 11 -3.5t13 -4.5l16 -6q-2 7 -4 13q-3 10 -3 20v68h108l2 -66q0 -3 -1.5 -9t-3.5 -12l-4 -16q8 3 15 6l25 10q16 5 35.5 7.5t30.5 6.5l28 -99z" />
    <glyph glyph-name="plus" unicode="+" horiz-adv-x="489" 
d="M299 275v-167h-106v167h-172v108h172v167h106v-167h171v-108h-171z" />
    <glyph glyph-name="comma" unicode="," horiz-adv-x="174" 
d="M148 38q0 -32 -15 -63t-41 -53l-36 22q13 11 23 25t15 26h-7q-29 0 -45 14.5t-16 39.5q0 27 18 45.5t43 18.5q26 0 43.5 -20t17.5 -55z" />
    <glyph glyph-name="hyphen" unicode="-" horiz-adv-x="277" 
d="M21 277v106h235v-106h-235z" />
    <glyph glyph-name="period" unicode="." horiz-adv-x="174" 
d="M146 54q0 -25 -17 -43t-42 -18t-43 18t-18 43t18 42t43 17t42 -17t17 -42z" />
    <glyph glyph-name="slash" unicode="/" horiz-adv-x="376" 
d="M362 756l-262 -842h-87l262 842h87z" />
    <glyph glyph-name="zero" unicode="0" horiz-adv-x="609" 
d="M541 334q0 -80 -19 -153t-54 -118q-56 -75 -162 -75q-71 0 -117 29t-76 91q-21 43 -34 104.5t-13 121.5q0 83 19.5 154t53.5 119q30 38 71.5 56.5t99.5 18.5q64 0 109 -29t77 -91q21 -45 33 -105t12 -123zM435 334q0 57 -10 105.5t-30 82.5q-16 26 -36.5 38t-50.5 14
q-39 2 -65 -18t-43 -65q-13 -30 -19.5 -72.5t-6.5 -84.5q0 -54 10 -104t30 -82q16 -26 38 -39t54 -13q37 0 61.5 20t41.5 65q5 13 10 31.5t8.5 39t5.5 41.5t2 41z" />
    <glyph glyph-name="one" unicode="1" horiz-adv-x="315" 
d="M127 0v543h-61v85h7q21 0 42 11t35 31h85v-670h-108z" />
    <glyph glyph-name="two" unicode="2" horiz-adv-x="588" 
d="M66 0q2 59 15 108t41 97q21 38 52 70.5t66 58.5q9 5 16 10.5l14 10.5l36 19l33 19l32 18q20 13 32.5 32.5t12.5 40.5q0 19 -10 35.5t-26.5 28.5t-38.5 19t-47 7q-51 0 -82.5 -24t-39.5 -70l-106 23q17 84 78 131.5t150 47.5q48 0 89.5 -16t72 -43t48.5 -63.5t18 -77.5
q0 -39 -17.5 -76.5t-50.5 -66.5l-14.5 -11t-13.5 -8l-33 -21l-36 -19l-33 -19q-24 -14 -42.5 -29.5t-34 -33.5t-29 -40t-25.5 -50h329v-108h-456z" />
    <glyph glyph-name="three" unicode="3" horiz-adv-x="576" 
d="M508 221q0 -51 -17 -94t-47.5 -73.5t-73 -48t-93.5 -17.5q-41 0 -76.5 13t-65 36t-50.5 56t-31 74l104 30q12 -49 44 -75t80 -26q27 0 49 9t37.5 24.5t24.5 37t9 47.5t-10 49t-28 36q-6 4 -10.5 6.5t-11 3.5t-17 2t-29.5 2h-12v108v-3h3h2h21q32 0 49 17t17 49
q0 39 -27.5 64.5t-68.5 25.5q-67 0 -101 -66l-99 37q26 64 78.5 100.5t118.5 36.5q42 0 79.5 -16t65.5 -44t44 -65.5t16 -79.5q0 -30 -8 -54t-30 -56q19 -17 31 -32.5t19.5 -32.5t10.5 -36.5t3 -44.5z" />
    <glyph glyph-name="four" unicode="4" horiz-adv-x="595" 
d="M451 167v-167h-105v167h-332v63l332 440h105v-407h64v-96h-64zM346 515l-191 -252h191v252z" />
    <glyph glyph-name="five" unicode="5" horiz-adv-x="588" 
d="M522 247q0 -56 -21.5 -103t-60.5 -82t-92.5 -54.5t-117.5 -19.5q-44 0 -86.5 10t-77.5 28l52 94q21 -11 55 -17.5t71 -6.5q36 0 67.5 11.5t55 31.5t36.5 47.5t13 60.5q0 25 -9.5 46t-26 37t-38 25t-46.5 9q-18 0 -31.5 -3t-25.5 -11t-24 -21.5t-27 -34.5l-106 30l17 346
h385v-106h-282l-7 -110q37 11 58 15t46 4q46 0 86.5 -18t71 -49t48 -72t17.5 -87z" />
    <glyph glyph-name="six" unicode="6" horiz-adv-x="588" 
d="M522 193q0 -43 -17.5 -80.5t-48 -65t-72.5 -43.5t-90 -16t-90 16.5t-72.5 45.5t-48 68t-17.5 84q0 70 18.5 139t52.5 132t81.5 116.5t105.5 92.5l54 -90q-31 -24 -54.5 -46.5t-43 -46.5t-35.5 -50.5t-31 -58.5q29 5 44.5 6t35.5 1q46 0 87.5 -16t73 -43.5t49.5 -65
t18 -79.5zM416 195q0 19 -9.5 37t-26 31t-39 21t-47.5 8t-46.5 -8t-38 -21t-26 -31t-9.5 -37q0 -20 9.5 -38t26 -31.5t38 -21.5t46.5 -8t47 8t38.5 21.5t26.5 31.5t10 38z" />
    <glyph glyph-name="seven" unicode="7" horiz-adv-x="548" 
d="M501 564l-16.5 -20t-14 -18l-13.5 -19t-15 -23q-45 -74 -76.5 -156t-48.5 -163l-6 -40.5t-4.5 -39t-2.5 -40t-1 -45.5h-108q1 58 7 112t17.5 106t29.5 103.5t43 104.5q17 38 37 74t38 64h-320v106h454v-106v0z" />
    <glyph glyph-name="eight" unicode="8" horiz-adv-x="588" 
d="M522 214q0 -46 -18.5 -87t-50 -72t-72.5 -49t-87 -18t-87 18t-72.5 49t-50 72t-18.5 87q0 48 20 86.5t57 68.5q-49 52 -49 122q0 39 16 73.5t43.5 61t63.5 41.5t77 15q40 0 77 -15t64.5 -41.5t44 -61t16.5 -73.5q0 -35 -13.5 -65.5t-38.5 -56.5q39 -30 58.5 -69.5
t19.5 -85.5zM388 494q0 33 -27.5 56.5t-66.5 23.5t-66.5 -23.5t-27.5 -56.5q0 -30 27.5 -51.5t66.5 -21.5t66.5 21.5t27.5 51.5zM416 212q0 21 -10 39.5t-26.5 32t-38.5 21.5t-47 8t-46.5 -8t-38 -21.5t-26 -32t-9.5 -39.5q0 -24 9.5 -45t26 -37t38 -25t46.5 -9t47.5 9
t39 25t26 37t9.5 45z" />
    <glyph glyph-name="nine" unicode="9" horiz-adv-x="588" 
d="M522 468q0 -69 -18.5 -137.5t-52.5 -131.5t-82 -117t-106 -94l-51 90q30 24 53.5 46.5t42.5 46.5t35 51t31 60q-29 -5 -44.5 -7t-35.5 -2q-47 0 -88.5 16t-72.5 43.5t-49 65t-18 79.5q0 43 18 80.5t48.5 65t72 43.5t89.5 16t90 -16.5t72.5 -45t48 -67.5t17.5 -85z
M416 477q0 19 -10 37t-26.5 31t-38.5 21t-47 8t-46.5 -7.5t-38 -20.5t-26 -31t-9.5 -38t9.5 -37.5t26 -30.5t38 -20.5t46.5 -7.5t47.5 7.5t39 20.5t26 30.5t9.5 37.5z" />
    <glyph glyph-name="colon" unicode=":" horiz-adv-x="202" 
d="M160 329q0 -25 -17 -43t-42 -18t-43 18t-18 43t18 42t43 17q23 0 41 -17t18 -42zM160 49q0 -25 -17 -43t-42 -18t-43 18t-18 43q0 23 18 41t43 18q23 0 41 -18t18 -41z" />
    <glyph glyph-name="equal" unicode="=" horiz-adv-x="489" 
d="M21 367v106h449v-106h-449zM21 183v109h449v-109h-449z" />
    <glyph glyph-name="a" unicode="a" horiz-adv-x="475" 
d="M313 0v14q-13 -11 -40.5 -16t-56.5 -5q-37 0 -70 11.5t-58 34.5t-40 57t-15 78q0 52 27.5 87t68.5 53t88.5 19t88.5 -16q0 22 -8 40q-7 15 -22 28.5t-43 16.5q-26 3 -48.5 -3t-40.5 -16.5t-30.5 -22t-17.5 -19.5l-30 103q30 25 68 39t77 17t76 -6t65.5 -30t46 -55.5
t17.5 -81.5v-327h-103zM308 221q-17 8 -45.5 15t-56 5t-47.5 -17t-20 -52q0 -30 9.5 -48t25 -26.5t35 -10t38 1t35 8.5t26.5 11v113z" />
    <glyph glyph-name="b" unicode="b" horiz-adv-x="510" 
d="M470 247q0 -52 -11 -99t-35 -82.5t-62.5 -56.5t-93.5 -21q-29 0 -49 6t-45 20v-14h-108v630l108 52v-209q4 4 14 8.5t22.5 8.5t26.5 7t26 4q60 5 99.5 -16t63 -57.5t33.5 -84.5t11 -96zM362 247q1 26 -3.5 53.5t-16.5 49.5t-32 36.5t-51 15.5q-23 0 -43 -6t-40 -29v-247
q20 -20 40.5 -27.5t49.5 -5.5q27 1 45.5 16.5t29.5 39t15.5 51t5.5 53.5z" />
    <glyph glyph-name="c" unicode="c" horiz-adv-x="458" 
d="M437 153q-7 -33 -21 -62t-36.5 -51.5t-56 -35.5t-79.5 -13q-63 0 -103 22t-62.5 58t-30.5 82t-8 94q0 40 8 85t30.5 82.5t62.5 62t103 24.5q79 0 124 -35t62 -88l-108 -37q-9 30 -27.5 45.5t-50.5 15.5q-31 0 -49.5 -17.5t-29 -42t-14 -51t-3.5 -44.5q0 -19 3.5 -46
t14 -52t29 -42.5t49.5 -17.5q41 0 60.5 27.5t24.5 64.5l108 -28v0z" />
    <glyph glyph-name="d" unicode="d" horiz-adv-x="510" 
d="M40 247q1 48 10.5 96t32.5 84.5t62 57.5t99 16q12 -1 26.5 -4t27.5 -7t23 -8.5t15 -8.5v157l106 52v-682h-106v14q-25 -14 -45 -20t-49 -6q-56 0 -94.5 21t-62.5 56.5t-35 82.5t-10 99zM148 247q1 -26 6 -53.5t16 -51t29 -39t45 -16.5q29 -2 49.5 5.5t40.5 27.5v247
q-21 23 -40 29t-42 6q-31 -1 -51.5 -15.5t-32.5 -36.5t-16.5 -49.5t-3.5 -53.5z" />
    <glyph glyph-name="e" unicode="e" horiz-adv-x="463" 
d="M150 200q2 -20 7.5 -40t16 -36t27 -25.5t41.5 -9.5q34 0 58.5 18.5t33.5 50.5l87 -55q-11 -24 -26 -44.5t-37 -35.5t-50.5 -23.5t-65.5 -8.5q-63 0 -102.5 22t-61.5 58t-30 82t-8 94q0 40 8 85t30 82.5t61.5 62t102.5 24.5q72 0 112 -30t59 -75.5t22 -98t2 -97.5h-287z
M331 299q0 18 -2.5 36t-12 33t-27 24.5t-47.5 9.5q-31 0 -49.5 -9t-28.5 -24t-13 -33.5t-3 -36.5h183v0z" />
    <glyph glyph-name="f" unicode="f" horiz-adv-x="282" 
d="M197 393v-393h-108v393h-63v96h63v85q0 18 4.5 37.5t15.5 35t29.5 25.5t47.5 10q25 0 41 -3.5t41 -8.5v-92q-9 2 -21 5.5t-23.5 3.5t-19 -5.5t-7.5 -21.5v-71h71v-96h-71z" />
    <glyph glyph-name="g" unicode="g" horiz-adv-x="512" 
d="M242 -12q-56 0 -94.5 21t-62.5 56.5t-35 82.5t-10 99q1 48 10.5 96t32.5 84.5t62 57.5t99 16q12 -1 26.5 -4t27.5 -7t23 -8.5t15 -8.5v16h106v-426q0 -16 1.5 -43t-2 -59t-14.5 -65.5t-35.5 -62.5t-66.5 -50t-106 -27l-52 79l52 13.5t55 21t44 34t18 51.5v59
q-23 -14 -44 -20t-50 -6zM148 247q1 -26 6 -53.5t16 -51t29 -39t45 -16.5q29 -2 49.5 5.5t40.5 27.5v247q-21 21 -40 28t-42 7q-31 -1 -51.5 -15.5t-32.5 -36.5t-16.5 -49.5t-3.5 -53.5z" />
    <glyph glyph-name="h" unicode="h" 
d="M355 0v324q0 24 -7.5 39t-20.5 24t-31.5 12t-39.5 3q-32 -2 -57 -21t-25 -61v-320h-108v630l106 52v-209q41 26 91.5 29t94.5 -15t73.5 -56t29.5 -95v-336h-106z" />
    <glyph glyph-name="i" unicode="i" horiz-adv-x="244" 
d="M179 625q0 -23 -17 -38.5t-40 -15.5t-39.5 15.5t-16.5 38.5t16.5 40t39.5 17t40 -17t17 -40zM71 0v489h105v-489h-105z" />
    <glyph glyph-name="j" unicode="j" horiz-adv-x="287" 
d="M221 625q0 -23 -16.5 -38.5t-39.5 -15.5t-39 15.5t-16 38.5t16 40t39 17t39.5 -17t16.5 -40zM219 -16q0 -39 -7.5 -67.5t-19 -49t-26.5 -33.5t-30 -22q-32 -20 -68 -35t-68 -19v101l26 8q11 4 23 9t22 11q39 30 39 78v524h109v-505v0z" />
    <glyph glyph-name="k" unicode="k" horiz-adv-x="510" 
d="M376 0l-141 275l-61 -63v-212h-108v630l108 52v-334l134 141h136l-129 -134l183 -355h-122z" />
    <glyph glyph-name="l" unicode="l" horiz-adv-x="240" 
d="M66 0v630l108 52v-682h-108z" />
    <glyph glyph-name="m" unicode="m" horiz-adv-x="790" 
d="M623 0v317q0 48 -23.5 66.5t-65.5 18.5q-32 0 -55 -21t-23 -64v-317h-113v317q0 48 -23.5 66.5t-67.5 18.5q-32 -2 -54 -22t-22 -63v-317h-110v489h108v-21q26 20 58.5 28.5t65.5 5.5t63.5 -18t52.5 -40q20 27 51.5 41t66.5 16t70 -8t63.5 -31.5t46 -54.5t17.5 -76v-331
h-106z" />
    <glyph glyph-name="n" unicode="n" 
d="M355 0v324q0 24 -7.5 39t-20.5 24t-31.5 12t-39.5 3q-32 -2 -57 -21t-25 -61v-320h-108v489h106v-16q41 26 91.5 29t94.5 -15t73.5 -56t29.5 -95v-336h-106z" />
    <glyph glyph-name="o" unicode="o" horiz-adv-x="487" 
d="M447 247q0 -44 -8 -89.5t-30.5 -82.5t-62 -60.5t-102.5 -23.5t-103 22t-62.5 58t-30.5 82t-8 94q0 40 8 85t30.5 82.5t62.5 62t103 24.5t102.5 -23t62 -60t30.5 -82t8 -89zM339 247q0 18 -3.5 44t-14 51t-29 42.5t-48.5 17.5q-31 0 -49.5 -17.5t-29 -42.5t-14 -52
t-3.5 -46q0 -18 3.5 -45t14 -52t29 -42.5t49.5 -17.5t50 18t29 43.5t13 52.5t3 46z" />
    <glyph glyph-name="p" unicode="p" horiz-adv-x="510" 
d="M470 247q0 -52 -11 -99t-35 -82.5t-62.5 -56.5t-93.5 -21q-29 0 -49 6t-45 20v-155l-108 -47v677h108v-16q4 4 14 8.5t22.5 8.5t26.5 7t26 4q60 5 99.5 -16t63 -57.5t33.5 -84.5t11 -96zM362 247q1 26 -3.5 53.5t-16.5 49.5t-32 36.5t-51 15.5q-23 0 -43 -6t-40 -29v-247
q20 -20 40.5 -27.5t49.5 -5.5q27 1 45.5 16.5t29.5 39t15.5 51t5.5 53.5z" />
    <glyph glyph-name="q" unicode="q" horiz-adv-x="510" 
d="M40 247q1 48 10.5 96t32.5 84.5t62 57.5t99 16q12 -1 26.5 -4t27.5 -7t23 -8.5t15 -8.5v16h106v-630l-106 -47v202q-25 -14 -45 -20t-49 -6q-56 0 -94.5 21t-62.5 56.5t-35 82.5t-10 99zM148 247q1 -26 6 -53.5t16 -51t29 -39t45 -16.5q29 -2 49.5 5.5t40.5 27.5v247
q-21 23 -40 29t-42 6q-31 -1 -51.5 -15.5t-32.5 -36.5t-16.5 -49.5t-3.5 -53.5z" />
    <glyph glyph-name="r" unicode="r" horiz-adv-x="334" 
d="M306 374q-17 12 -30.5 20t-33.5 8q-23 0 -36.5 -6.5t-20.5 -18.5t-9 -30t-2 -41v-306h-108v489h108v-24l17.5 15.5t16 11t18 7t23.5 2.5q29 0 43.5 -9.5t27.5 -23.5z" />
    <glyph glyph-name="s" unicode="s" horiz-adv-x="360" 
d="M339 127q-2 -27 -14 -52t-33.5 -43.5t-52 -29.5t-70.5 -11q-53 0 -86.5 21t-56.5 56l75 64q18 -23 40 -36.5t45 -6.5q33 9 36.5 36t-22.5 56q-24 27 -53 48l-54.5 40.5t-43.5 40.5t-21 50q-3 50 22.5 87t78.5 49q43 11 92 -3t92 -65l-76 -61q-15 16 -30 26
q-13 8 -28 10.5t-29 -10.5q-15 -14 -5.5 -29t31.5 -32.5t51 -38t55 -45.5t43 -55t14 -66z" />
    <glyph glyph-name="t" unicode="t" horiz-adv-x="280" 
d="M259 12q-27 -13 -43.5 -17t-36.5 -4q-29 -2 -48.5 7.5t-31 27.5t-16.5 41.5t-5 50.5v272h-71v99h71v141l103 52v-193h85v-96h-85v-259q0 -25 6 -36t29 -11q18 0 29.5 5.5t27.5 17.5z" />
    <glyph glyph-name="u" unicode="u" 
d="M350 0v16q-48 -28 -99.5 -31.5t-93.5 15t-69 57.5t-27 96v336h106v-324q0 -24 7.5 -39t20.5 -24t31.5 -12t39.5 -3q16 1 30.5 5t26 13t18.5 24t7 36v324h106v-489h-104z" />
    <glyph glyph-name="v" unicode="v" horiz-adv-x="501" 
d="M296 0h-94l-188 489h113l122 -329l118 329h120z" />
    <glyph glyph-name="w" unicode="w" horiz-adv-x="783" 
d="M635 0h-120l-125 336l-122 -336h-118l-136 489h113l87 -327l117 327h123l110 -329l92 329h113z" />
    <glyph glyph-name="x" unicode="x" 
d="M390 0l-129 181l-132 -181h-129l197 270l-159 219h131l92 -127l89 127h130l-156 -216l198 -273h-132z" />
    <glyph glyph-name="y" unicode="y" horiz-adv-x="527" 
d="M247 -188h-118l73 188l-188 489h115l134 -343l130 343h119z" />
    <glyph glyph-name="z" unicode="z" horiz-adv-x="376" 
d="M155 96h200v-96h-334v85l212 308h-191v96h315v-96z" />
    <glyph glyph-name="cent" unicode="&#xa2;" horiz-adv-x="524" 
d="M477 165q-53 -110 -143 -118v-92h-104v94q-44 7 -75 37t-51 71t-29 86.5t-9 83.5q0 43 8.5 89t28 85t51 67t76.5 36v78h104v-78q47 -7 80 -31t63 -77l-89 -35q-11 15 -20 25.5t-20.5 17.5t-27 10t-38.5 3q-31 0 -53 -16t-36.5 -42t-21 -60.5t-6.5 -71.5q0 -38 7.5 -73.5
t22.5 -63.5t37 -44.5t50 -16.5q25 0 41.5 5.5t28 14.5t19.5 21t15 25l91 -30v0z" />
    <glyph glyph-name="onequarter" unicode="&#xbc;" horiz-adv-x="1013" 
d="M933 -147h-63v-167h-105v167h-324v71l324 432h105v-408h63v-95zM793 733l-603 -1047h-107l602 1047h108zM228 63h-103v536h-59v88q23 0 45 13.5t30 32.5h87v-670zM765 -52v235l-177 -235h177z" />
    <glyph glyph-name="onehalf" unicode="&#xbd;" horiz-adv-x="1108" 
d="M1040 -314h-451q0 110 40 188q45 90 177 172l112 67q17 17 17 46q0 47 -34 74t-92 27q-56 0 -92 -46q-11 -15 -25 -47l-103 17q10 65 65 119q65 61 155 61q110 0 174 -65q57 -57 57 -140q0 -93 -77 -141l-105 -61q-71 -44 -109 -91q-25 -29 -39 -75h330v-105zM793 733
l-603 -1047h-107l602 1047h108zM228 63h-103v536h-59v88q23 0 45 13.5t30 32.5h87v-670z" />
    <glyph glyph-name="threequarters" unicode="&#xbe;" horiz-adv-x="1244" 
d="M1164 -147h-63v-167h-105v167h-324v71l324 432h105v-408h63v-95zM1023 733l-603 -1047h-106l602 1047h107zM504 272q0 -111 -78 -174q-65 -52 -146 -52q-113 0 -181 88q-22 29 -45 88l100 27q16 -33 30 -49q41 -49 96 -49q46 0 79 26q40 32 40 95q0 57 -42 81
q-29 15 -73 15v105q51 0 67 8q28 11 28 51q0 42 -27.5 69t-71.5 27q-49 0 -77 -31q-10 -11 -19 -32l-101 32q20 46 39 68q59 68 158 68q90 0 146.5 -58.5t56.5 -142.5q0 -55 -19 -88q-6 -11 -18 -23q19 -16 29 -31q29 -45 29 -118zM996 -52v235l-177 -235h177z" />
    <glyph glyph-name="percent" unicode="%" horiz-adv-x="733" 
d="M345 507q0 -68 -29 -117q-33 -55 -91 -55t-91 54q-29 49 -29 118q0 68 29 116q33 55 91 55t91 -54q29 -48 29 -117zM616 678l-396 -686h-73l394 686h75zM657 163q0 -68 -29 -116q-33 -55 -91 -55t-91 54q-29 48 -29 117q0 68 29 117q33 55 91 55t91 -54q29 -49 29 -118z
M276 507q0 44 -8 67q-13 34 -43 34q-29 0 -40 -29t-11 -72q0 -44 8 -67q13 -35 43 -35q29 0 42 34q9 25 9 68zM588 163q0 44 -8 67q-13 35 -43 35q-29 0 -40 -29.5t-11 -72.5q0 -44 8 -67q13 -34 43 -34q29 0 42 33q9 25 9 68z" />
    <glyph glyph-name="arrowup" horiz-adv-x="1036" 
d="M953 35q4 -7 5 -10q5 -13 5 -25q0 -16 -3 -24q-2 -4 -11 -16.5t-24 -18.5t-27 -6h-11q-1 0 -4 1l-208 64v-314h-314v314l-208 -64q-10 -1 -15 -1q-20 0 -31 6t-19 17t-11.5 22.5t-3.5 19.5q0 14 4 25q1 3 5 10l436 648z" />
    <glyph glyph-name="arrowright" horiz-adv-x="1143" 
d="M1070 288l-648 -436q-7 -3 -14 -5.5t-20 -2.5q-16 0 -24 3q-4 2 -16.5 11t-18.5 23.5t-6 27.5v10q0 1 1 5l63 207h-314v314h314l-63 208q-1 10 -1 15q0 16 5.5 29t17.5 21.5t21 11t21 2.5q13 0 24 -4q3 -1 10 -6z" />
    <glyph glyph-name="arrowdown" horiz-adv-x="1036" 
d="M953 384l-435 -648l-436 648q-3 6 -4 10q-5 13 -5 25q0 15 3 24q2 4 11 16.5t23.5 18.5t27.5 6h10q1 0 5 -1l208 -64v314h314v-314l208 64q10 1 15 1q20 0 31 -6t20 -18q7 -10 10.5 -21.5t3.5 -19.5q0 -14 -2.5 -21.5t-7.5 -13.5z" />
    <glyph glyph-name="arrowleft" horiz-adv-x="1143" 
d="M1070 131h-314l62 -207q1 -10 1 -15q0 -20 -5.5 -31t-16.5 -19.5t-22.5 -11.5t-21.5 -3q-11 0 -18.5 2.5t-13.5 5.5l-648 436l648 434q6 3 9 5q14 5 25 5q15 0 23 -2.5t20.5 -11.5t16.5 -25.5t4 -24.5v-11q0 -1 -1 -4l-62 -208h314v-314z" />
    <glyph glyph-name="question" unicode="?" horiz-adv-x="524" 
d="M477 498q0 -27 -4.5 -48.5t-16.5 -41.5t-33 -42t-54 -49q-13 -11 -21.5 -19.5t-14 -16.5t-9 -16.5t-7.5 -20.5q-2 -7 -2.5 -12t-1.5 -11.5t-1.5 -15.5t-1.5 -24h-98v35.5t2 18.5q2 30 10.5 52t22.5 40q3 4 7.5 9.5t12 13t19 18t29.5 25.5q30 26 43 49t13 52
q0 46 -27.5 72t-75.5 26q-55 0 -82 -32.5t-31 -101.5h-108q2 48 11 80.5t29 60.5q32 42 77.5 63.5t108.5 21.5q46 0 83.5 -13.5t64.5 -38.5t41.5 -59t14.5 -75zM197 49q0 27 19 45.5t45 18.5q25 0 43 -18.5t18 -45.5q0 -25 -18 -43t-43 -18q-26 0 -45 18t-19 43z" />
    <glyph glyph-name="at" unicode="@" horiz-adv-x="806" 
d="M738 383q0 -47 -13.5 -90.5t-37 -77t-55.5 -54t-68 -20.5q-25 0 -44.5 13t-30.5 34q-23 -25 -52.5 -38.5t-62.5 -13.5t-60.5 13t-47.5 35.5t-31.5 54t-11.5 67.5q0 42 14.5 80t40 66.5t59 45.5t72.5 17q59 0 94 -42l5 30h91l-39 -214q-4 -17 -6 -26.5t-2 -13.5
q0 -16 5 -21t12 -5q14 0 29 12.5t27.5 34t20.5 50t8 61.5q0 48 -17 88t-48 68.5t-74.5 44t-96.5 15.5q-59 0 -107 -19.5t-82 -54t-52.5 -83t-18.5 -106.5q0 -57 18 -104t52 -84q37 -38 84.5 -56.5t110.5 -18.5q54 0 102 10.5t103 33.5l23 -84q-55 -23 -111 -34t-114 -11
q-80 0 -143.5 24t-113.5 72t-76.5 113.5t-26.5 140.5q0 77 26 140.5t72.5 109.5t110 71t139.5 25q70 0 129.5 -22.5t103 -62t67.5 -94.5t24 -120zM475 348q0 34 -16.5 52t-44.5 18q-18 0 -34 -8.5t-28.5 -23.5t-20 -35.5t-7.5 -44.5q0 -35 19 -56.5t45 -21.5q18 0 33.5 9
t27.5 24.5t19 37.5t7 49z" />
    <glyph glyph-name="A" unicode="A" horiz-adv-x="609" 
d="M475 0l-66 188h-209l-66 -188h-113l231 670h105l231 -670h-113zM306 484l-69 -188h134z" />
    <glyph glyph-name="B" unicode="B" horiz-adv-x="569" 
d="M536 188q0 -27 -8 -54t-22.5 -50t-34 -40.5t-43.5 -27.5q-18 -7 -44.5 -11.5t-49.5 -4.5h-254v670h254q40 0 74 -13t59 -35.5t39 -53.5t14 -67q0 -97 -94 -151q53 -25 81.5 -66t28.5 -96zM414 496q0 68 -73 68h-155v-164h127q23 0 36 3.5t27 14.5q38 30 38 78zM428 186
q0 33 -17.5 61.5t-46.5 39.5q-11 4 -19 4.5t-25 0.5h-134v-184h160q82 0 82 78z" />
    <glyph glyph-name="C" unicode="C" horiz-adv-x="588" 
d="M522 136q-60 -148 -202 -148q-75 0 -124 29t-81 91q-23 45 -36 105t-13 123q0 80 20 153t55 118q30 37 72.5 56t99.5 19q76 0 125.5 -33t83.5 -104l-99 -42q-14 21 -25.5 35t-24 22t-27 11t-33.5 3q-41 0 -68.5 -19t-44.5 -64q-13 -30 -19.5 -71t-6.5 -84
q0 -55 11 -105.5t31 -82.5q18 -26 42 -39t59 -13q34 0 59 18.5t45 59.5l101 -38v0z" />
    <glyph glyph-name="D" unicode="D" horiz-adv-x="602" 
d="M536 336q0 -101 -30.5 -177.5t-87.5 -120.5q-19 -18 -44.5 -27t-51.5 -11h-38h-204v670h216q25 0 43.5 -1.5t33.5 -5.5t27 -11t26 -17q53 -46 81.5 -122.5t28.5 -176.5zM428 336q0 68 -14.5 121t-39.5 79q-13 12 -30 20t-38 8h-120v-456h106q26 0 43.5 6t31.5 20
q30 30 45.5 82.5t15.5 119.5z" />
    <glyph glyph-name="E" unicode="E" horiz-adv-x="529" 
d="M80 0v670h395v-106h-289v-164h195v-108h-195v-184h310v-108h-416z" />
    <glyph glyph-name="F" unicode="F" horiz-adv-x="515" 
d="M186 564v-164h195v-108h-195v-292h-106v670h416v-106h-310z" />
    <glyph glyph-name="G" unicode="G" horiz-adv-x="588" 
d="M522 200q0 -46 -16 -84.5t-44 -67t-67 -44.5t-85 -16q-76 0 -123 29.5t-77 92.5q-21 45 -32.5 103.5t-11.5 120.5q0 40 5.5 79.5t15 75t23.5 66t31 52.5q30 37 72.5 56t99.5 19q77 0 126 -34.5t83 -113.5l-101 -40q-21 44 -45.5 62t-62.5 18q-41 0 -68.5 -19t-44.5 -64
q-13 -30 -19.5 -72.5t-6.5 -84.5q0 -54 8.5 -103t24.5 -81q31 -54 92 -54q51 0 84 29t33 75v28h-122v106h228v-134v0z" />
    <glyph glyph-name="H" unicode="H" horiz-adv-x="616" 
d="M430 0v292h-244v-292h-106v670h106v-270h244v270h106v-670h-106z" />
    <glyph glyph-name="I" unicode="I" horiz-adv-x="268" 
d="M80 0v670h108v-670h-108z" />
    <glyph glyph-name="J" unicode="J" horiz-adv-x="529" 
d="M449 202q0 -48 -16 -87t-45 -67.5t-70 -44t-90 -15.5q-46 0 -89.5 18t-77.5 50q-11 11 -19 22t-21 32l97 45q24 -32 50 -45.5t60 -13.5q55 0 84 33.5t29 93.5v447h108v-468v0z" />
    <glyph glyph-name="K" unicode="K" horiz-adv-x="583" 
d="M426 0l-170 317l-70 -87v-230h-106v670h106v-266l211 266h137l-207 -261l221 -409h-122z" />
    <glyph glyph-name="L" unicode="L" horiz-adv-x="515" 
d="M80 0v670h106v-571h310v-99h-416z" />
    <glyph glyph-name="M" unicode="M" horiz-adv-x="682" 
d="M496 0v388l-155 -388l-155 388v-388h-106v670h106l155 -376l155 376h106v-670h-106z" />
    <glyph glyph-name="N" unicode="N" horiz-adv-x="616" 
d="M442 0l-256 454v-454h-106v670h106l244 -428v428h106v-670h-94z" />
    <glyph glyph-name="O" unicode="O" horiz-adv-x="609" 
d="M541 334q0 -80 -19 -153t-54 -118q-56 -75 -162 -75q-71 0 -117 29t-76 91q-21 43 -34 104.5t-13 121.5q0 83 19.5 154t53.5 119q30 38 71.5 56.5t99.5 18.5q64 0 109 -29t77 -91q21 -45 33 -105t12 -123zM435 334q0 57 -10 105.5t-30 82.5q-16 26 -36.5 38t-50.5 14
q-39 2 -65 -18t-43 -65q-13 -30 -19.5 -72.5t-6.5 -84.5q0 -54 10 -104t30 -82q16 -26 38 -39t54 -13q37 0 61.5 20t41.5 65q5 13 10 31.5t8.5 39t5.5 41.5t2 41z" />
    <glyph glyph-name="P" unicode="P" horiz-adv-x="555" 
d="M536 482q0 -27 -8 -52.5t-22 -48t-32.5 -39.5t-40.5 -27q-23 -11 -53.5 -17t-69.5 -6h-124v-292h-106v670h230q41 0 69.5 -4.5t53.5 -16.5q22 -11 40.5 -28.5t32.5 -40t22 -48t8 -50.5zM428 482q0 21 -11.5 40t-28.5 30q-14 8 -26.5 10t-37.5 2h-138v-164h138
q25 0 37.5 2t26.5 9q17 9 28.5 29.5t11.5 41.5z" />
    <glyph glyph-name="Q" unicode="Q" horiz-adv-x="609" 
d="M541 336q0 -45 -6 -88t-17.5 -80.5t-27.5 -68.5t-36 -52l23 -38l-80 -51l-26 40q-17 -4 -33.5 -7t-34.5 -3q-69 0 -113.5 29t-76.5 91q-21 45 -34 105t-13 123q0 40 5.5 79.5t15 74.5t23 65t29.5 52q59 75 167 75q67 0 112.5 -28.5t77.5 -91.5q21 -45 33 -104.5
t12 -121.5zM435 336q0 55 -11.5 104.5t-28.5 81.5q-31 52 -89 52q-39 0 -64.5 -19t-41.5 -64q-13 -30 -19.5 -72t-6.5 -83q0 -71 16 -128t45 -86q13 -12 30.5 -19t40.5 -7l-54 83l77 51l61 -89q21 32 33 83.5t12 111.5z" />
    <glyph glyph-name="R" unicode="R" horiz-adv-x="569" 
d="M421 0l-108 292h-127v-292h-106v670h221q39 0 67 -4.5t53 -16.5q22 -11 40.5 -28.5t32 -40t21 -48t7.5 -50.5q0 -27 -7.5 -52.5t-21 -48t-33 -40.5t-42.5 -28l118 -313h-115zM416 482q0 21 -11 40t-31 30q-13 7 -24 9.5t-37 2.5h-127v-164h127q25 0 36.5 2t24.5 9
q20 11 31 30.5t11 40.5z" />
    <glyph glyph-name="S" unicode="S" 
d="M489 193q0 -46 -17 -85t-49 -68q-28 -25 -65.5 -38.5t-80.5 -13.5q-87 0 -148.5 46.5t-95.5 123.5l101 37q21 -48 58 -73.5t85 -25.5q47 0 75.5 28.5t28.5 70.5q0 33 -17.5 54t-45.5 35.5t-61.5 25.5t-66.5 24q-15 6 -37 17t-42.5 30.5t-35 48.5t-14.5 71q0 49 16 83.5
t43.5 56t66 31.5t83.5 10q71 0 118.5 -37t72.5 -100l-94 -28q-8 16 -21 29q-11 11 -30.5 20t-47.5 10q-18 1 -37.5 -2.5t-34.5 -12.5t-24 -24.5t-7 -38.5q2 -31 27 -47.5t61 -28.5t77.5 -24.5t76.5 -36t58.5 -63t23.5 -105.5z" />
    <glyph glyph-name="T" unicode="T" horiz-adv-x="454" 
d="M280 576v-576h-106v576h-153v94h414v-94h-155z" />
    <glyph glyph-name="U" unicode="U" horiz-adv-x="616" 
d="M536 240q0 -39 -8.5 -74t-22.5 -65q-13 -25 -34 -45.5t-47 -35.5t-55.5 -23.5t-60.5 -8.5t-60.5 8.5t-55.5 23.5t-47.5 35.5t-34.5 45.5q-14 30 -22 65t-8 74v430h106v-430q0 -66 33.5 -105t88.5 -39t88.5 39t33.5 105v430h106v-430v0z" />
    <glyph glyph-name="V" unicode="V" horiz-adv-x="548" 
d="M315 0h-82l-212 670h111l143 -447l141 447h113z" />
    <glyph glyph-name="W" unicode="W" horiz-adv-x="635" 
d="M517 0h-94l-106 430l-103 -430h-94l-99 670h108l52 -353l85 353h103l87 -353l52 353h108z" />
    <glyph glyph-name="X" unicode="X" 
d="M369 0l-108 223l-108 -223h-120l167 346l-155 324h120l96 -200l96 200h120l-157 -324l169 -346h-120z" />
    <glyph glyph-name="Y" unicode="Y" horiz-adv-x="642" 
d="M374 292v-292h-106v292l-235 378h127l160 -259l162 259h125z" />
    <glyph glyph-name="Z" unicode="Z" 
d="M33 0v89l306 475h-280v106h430v-63l-310 -499h310v-108h-456z" />
    <glyph glyph-name="space" unicode=" " horiz-adv-x="221" 
 />
    <glyph glyph-name="semicolon" unicode=";" horiz-adv-x="174" 
d="M148 38q0 -32 -15 -63t-41 -53l-36 22q13 11 23 25t15 26h-7q-29 0 -45 14.5t-16 39.5q0 27 18 45.5t43 18.5q26 0 43.5 -20t17.5 -55zM153 330q0 -25 -17 -43t-42 -18t-43 18t-18 43t18 42t43 17q23 0 41 -17t18 -42z" />
    <glyph glyph-name="quotesingle" unicode="'" horiz-adv-x="226" 
d="M168 670l-21 -313h-68l-21 313h110z" />
    <glyph glyph-name="less" unicode="&#x3c;" horiz-adv-x="349" 
d="M293 45l-245 242v84l245 243v-125l-163 -159l163 -160v-125z" />
    <glyph glyph-name="greater" unicode="&#x3e;" horiz-adv-x="349" 
d="M301 287l-245 -242v124l163 159l-163 160v126l245 -243v-84z" />
    <glyph glyph-name="bracketleft" unicode="[" horiz-adv-x="320" 
d="M267 -105h-187v775h187v-81h-104v-613h104v-81z" />
    <glyph glyph-name="backslash" unicode="\" horiz-adv-x="376" 
d="M362 -86h-87l-262 842h87z" />
    <glyph glyph-name="bracketright" unicode="]" horiz-adv-x="320" 
d="M240 -105h-187v81h104v613h-104v81h187v-775z" />
    <glyph glyph-name="asciicircum" unicode="^" horiz-adv-x="487" 
d="M447 366h-97l-108 200l-107 -200h-95l170 304h67z" />
    <glyph glyph-name="underscore" unicode="_" horiz-adv-x="421" 
d="M421 -169h-421v91h421v-91z" />
    <glyph glyph-name="grave" unicode="`" horiz-adv-x="421" 
d="M292 569h-69l-139 154h118z" />
    <glyph glyph-name="braceleft" unicode="{" horiz-adv-x="358" 
d="M313 -105q-194 0 -194 202v61q0 50 -10 66.5t-38 16.5h-20v85h20q28 0 38 17t10 67v62q0 203 194 203v-73q-60 -7 -83.5 -36t-23.5 -88v-45q0 -68 -14 -101t-50 -49q36 -14 50 -47t14 -101v-45q0 -58 23 -85q24 -30 84 -37v-73z" />
    <glyph glyph-name="bar" unicode="|" horiz-adv-x="248" 
d="M164 -177h-80v943h80v-943z" />
    <glyph glyph-name="braceright" unicode="}" horiz-adv-x="358" 
d="M306 243h-19q-29 0 -38.5 -16.5t-9.5 -66.5v-62q0 -203 -194 -203v72q59 7 84 38q23 28 23 87v45q0 68 13.5 101t50.5 48q-36 15 -50 48t-14 101v45q0 58 -24 86t-83 35v74q194 0 194 -202v-61q0 -50 9.5 -67t38.5 -17h19v-85z" />
    <glyph glyph-name="asciitilde" unicode="~" horiz-adv-x="473" 
d="M438 406q-46 -135 -129 -135q-39 0 -81 32q-49 39 -70 39q-19 0 -31 -15t-31 -58l-61 35q47 135 129 135q40 0 81 -32q49 -39 69 -39q19 0 32 15t31 58z" />
    <glyph glyph-name="quotesinglbase" unicode="&#x201a;" horiz-adv-x="223" 
d="M177 133l-64 -240h-58l12 240h110z" />
    <glyph glyph-name="florin" unicode="&#x192;" horiz-adv-x="343" 
d="M301 585q-29 9 -59 9q-27 0 -38 -10.5t-11 -37.5v-44h90v-91h-90v-543l-87 -53v596h-66v91h66v52q0 127 120 127q43 0 75 -10v-86z" />
    <glyph glyph-name="quotedblbase" unicode="&#x201e;" horiz-adv-x="421" 
d="M375 133l-64 -240h-58l11 240h111zM177 133l-64 -240h-58l12 240h110z" />
    <glyph glyph-name="ellipsis" unicode="&#x2026;" horiz-adv-x="642" 
d="M601 65q0 -31 -19.5 -53.5t-46.5 -22.5t-47 22.5t-20 53.5t20 54t47 23t46.5 -23t19.5 -54zM387 65q0 -31 -19.5 -53.5t-46.5 -22.5t-47 22.5t-20 53.5t20 54t47 23t46.5 -23t19.5 -54zM173 65q0 -31 -19.5 -53.5t-46.5 -22.5t-47 22.5t-20 53.5t20 54t47 23t46.5 -23
t19.5 -54z" />
    <glyph glyph-name="dagger" unicode="&#x2020;" horiz-adv-x="500" 
d="M454 364h-161v-460h-86v460h-161v93h161v213h86v-213h161v-93z" />
    <glyph glyph-name="daggerdbl" unicode="&#x2021;" horiz-adv-x="500" 
d="M454 118h-161v-214h-86v214h-161v93h161v153h-161v93h161v213h86v-213h161v-93h-161v-153h161v-93z" />
    <glyph glyph-name="circumflex" unicode="&#x2c6;" horiz-adv-x="421" 
d="M360 569h-70l-80 85l-80 -85h-69l99 154h101z" />
    <glyph glyph-name="perthousand" unicode="&#x2030;" horiz-adv-x="1155" 
d="M1122 198q0 -91 -41 -150t-105 -59t-104 57.5t-40 149.5q0 93 40 151.5t105 58.5q67 0 106 -58t39 -150zM782 198q0 -91 -41 -150t-105 -59t-104 57.5t-40 149.5q0 93 40 151.5t105 58.5q67 0 106 -58t39 -150zM635 670l-361 -670h-85l361 670h85zM333 473
q0 -91 -41.5 -150t-105.5 -59t-104 57.5t-40 149.5q0 93 40 151.5t106 58.5t105.5 -58t39.5 -150zM1047 196q0 59 -19 93t-51 34q-69 0 -69 -125q0 -58 18.5 -92t50.5 -34q33 0 52 36q18 34 18 88zM706 196q0 59 -18.5 93t-50.5 34q-70 0 -70 -125q0 -58 19 -92t51 -34
q33 0 52 36q17 34 17 88zM257 471q0 58 -18.5 92t-51.5 34q-69 0 -69 -124q0 -59 18.5 -93t51.5 -34t51 37q18 33 18 88z" />
    <glyph glyph-name="guilsinglleft" unicode="&#x2039;" horiz-adv-x="308" 
d="M274 0h-93l-156 251l156 251h93l-151 -250z" />
    <glyph glyph-name="OE" unicode="&#x152;" horiz-adv-x="892" 
d="M843 0h-382v79q-54 -90 -163 -90q-113 0 -181 96t-68 250t68 250t181 96q51 0 95.5 -24.5t67.5 -65.5v79h369v-98h-291v-165h169v-98h-169v-211h304v-98zM458 335q0 114 -41.5 179.5t-118.5 65.5q-76 0 -117.5 -65.5t-41.5 -179.5t41.5 -179.5t117.5 -65.5
q77 0 118.5 65.5t41.5 179.5z" />
    <glyph glyph-name="quoteleft" unicode="&#x2018;" horiz-adv-x="223" 
d="M168 670l-11 -240h-111l64 240h58z" />
    <glyph glyph-name="quoteright" unicode="&#x2019;" horiz-adv-x="223" 
d="M177 670l-64 -240h-58l12 240h110z" />
    <glyph glyph-name="quotedblleft" unicode="&#x201c;" horiz-adv-x="421" 
d="M366 670l-12 -240h-110l64 240h58zM168 670l-11 -240h-111l64 240h58z" />
    <glyph glyph-name="quotedblright" unicode="&#x201d;" horiz-adv-x="421" 
d="M375 670l-64 -240h-58l11 240h111zM177 670l-64 -240h-58l12 240h110z" />
    <glyph glyph-name="bullet" unicode="&#x2022;" horiz-adv-x="362" 
d="M307 350q0 -60 -36.5 -101.5t-89.5 -41.5t-89.5 41.5t-36.5 101.5q0 61 36.5 103.5t89.5 42.5t89.5 -42.5t36.5 -103.5z" />
    <glyph glyph-name="endash" unicode="&#x2013;" horiz-adv-x="387" 
d="M341 304h-295v92h295v-92z" />
    <glyph glyph-name="emdash" unicode="&#x2014;" 
d="M476 304h-430v92h430v-92z" />
    <glyph glyph-name="tilde" unicode="&#x2dc;" horiz-adv-x="421" 
d="M370 697q0 -62 -24.5 -96t-64.5 -34q-38 0 -99 42q-20 13 -33 13q-27 0 -33 -53h-60q0 63 24.5 97t64.5 34q38 0 99 -42q20 -14 33 -14q27 0 33 53h60z" />
    <glyph glyph-name="trademark" unicode="&#x2122;" horiz-adv-x="648" 
d="M613 293h-54v242q-4 -12 -13 -37l-83 -217l-81 217q-4 13 -13 36q1 -13 1 -42v-199h-54v377h56l75 -195q7 -18 18 -52q6 17 17 52l74 195h57v-377zM261 607h-94v-314h-57v314h-94v63h245v-63z" />
    <glyph glyph-name="guilsinglright" unicode="&#x203a;" horiz-adv-x="308" 
d="M283 252l-156 -252h-93l151 251l-151 251h93z" />
    <glyph glyph-name="oe" unicode="&#x153;" horiz-adv-x="771" 
d="M724 258q0 -11 -2 -43h-291q7 -67 39 -102q28 -32 71 -32q52 0 95 41l53 -67q-59 -66 -154 -66q-43 0 -83 26t-62 70q-53 -96 -153 -96q-84 0 -139 72.5t-55 189.5q0 120 57 193q54 69 140 69q46 0 86.5 -26t62.5 -69q50 95 149 95q89 0 140 -77q46 -68 46 -178zM634 300
q-3 54 -27 86q-26 36 -75 36q-86 0 -100 -122h202zM349 251q0 77 -30 122.5t-82 45.5q-49 0 -77.5 -45t-28.5 -120q0 -82 29.5 -126.5t80.5 -44.5q48 0 79 50q29 47 29 118z" />
    <glyph glyph-name="sterling" unicode="&#xa3;" horiz-adv-x="536" 
d="M498 590l-55 -76q-61 67 -148 67q-110 0 -110 -79q0 -30 25 -87q16 -37 21 -58h133v-89h-127q-6 -91 -67 -175h317v-93h-415v98q39 46 56 80q19 39 23 90h-79v89h66l-29 72q-16 42 -16 75q0 85 54.5 131t148.5 46q115 0 202 -91z" />
    <glyph glyph-name="yen" unicode="&#xa5;" horiz-adv-x="538" 
d="M512 670l-200 -405v-64h136v-88h-136v-113h-86v113h-136v88h136v60l-200 409h99l80 -172q28 -59 64 -148q11 32 64 147l81 173h98z" />
    <glyph glyph-name="section" unicode="&#xa7;" horiz-adv-x="556" 
d="M509 240q0 -90 -91 -151q28 -37 28 -90q0 -68 -44 -111q-46 -45 -122 -45q-94 0 -171 69l53 77q56 -50 126 -50q66 0 66 57q0 34 -45 58q-8 4 -101 40q-75 29 -111 63q-51 49 -51 126q0 90 92 152q-29 37 -29 90q0 67 45.5 111.5t121.5 44.5q94 0 171 -69l-53 -78
q-56 51 -126 51q-67 0 -67 -58q0 -33 46 -57q8 -5 101 -40q75 -29 111 -63q50 -49 50 -127zM418 231q0 60 -83 100l-131 53q-67 -39 -67 -91q0 -60 84 -101l131 -52q66 39 66 91z" />
    <glyph glyph-name="dieresis" unicode="&#xa8;" horiz-adv-x="421" 
d="M349 634q0 -26 -16.5 -45.5t-39.5 -19.5q-24 0 -40.5 19.5t-16.5 45.5t16.5 45.5t40.5 19.5q23 0 39.5 -19.5t16.5 -45.5zM185 634q0 -26 -16.5 -45.5t-39.5 -19.5q-24 0 -40.5 19.5t-16.5 45.5t16.5 45.5t40.5 19.5q23 0 39.5 -19.5t16.5 -45.5z" />
    <glyph glyph-name="copyright" unicode="&#xa9;" horiz-adv-x="704" 
d="M656 335q0 -147 -87 -246.5t-217 -99.5t-217 99.5t-87 246.5t87 246.5t217 99.5t217 -99.5t87 -246.5zM607 335q0 123 -73 206.5t-182 83.5t-182 -83.5t-73 -206.5t73 -206.5t182 -83.5t182 83.5t73 206.5zM471 219q-39 -77 -117 -77q-63 0 -101.5 54t-38.5 141
q0 86 38.5 140t101.5 54q80 0 116 -74l-50 -36q-26 46 -66 46q-82 0 -82 -130q0 -131 82 -131q43 0 70 50z" />
    <glyph glyph-name="ordfeminine" unicode="&#xaa;" horiz-adv-x="387" 
d="M329 267h-71v35q-42 -45 -94 -45q-50 0 -84 32q-41 36 -41 106q0 64 41 100q39 32 103 32q43 0 75 -15v26q0 67 -65 67q-52 0 -92 -24l-28 60q56 40 122 40q62 0 97 -35q37 -37 37 -104v-275zM258 384v53q-34 19 -79 19q-70 0 -70 -59q0 -64 66 -64q51 0 83 51z" />
    <glyph glyph-name="guillemotleft" unicode="&#xab;" horiz-adv-x="495" 
d="M461 0h-93l-156 251l156 251h93l-151 -250zM274 0h-93l-156 251l156 251h93l-151 -250z" />
    <glyph glyph-name="registered" unicode="&#xae;" horiz-adv-x="704" 
d="M656 335q0 -147 -87 -246.5t-217 -99.5t-217 99.5t-87 246.5t87 246.5t217 99.5t217 -99.5t87 -246.5zM607 335q0 123 -73 206.5t-182 83.5t-182 -83.5t-73 -206.5t73 -206.5t182 -83.5t182 83.5t73 206.5zM491 416q0 -87 -71 -111l68 -152h-66l-65 146h-64v-146h-56v377
h145q47 0 78 -28.5t31 -85.5zM434 414q0 54 -53 54h-88v-107h88q53 0 53 53z" />
    <glyph glyph-name="macron" unicode="&#xaf;" horiz-adv-x="421" 
d="M328 584h-235v86h235v-86z" />
    <glyph glyph-name="degree" unicode="&#xb0;" horiz-adv-x="409" 
d="M371 492q0 -81 -48 -136t-118 -55t-118.5 55.5t-48.5 135.5q0 79 48.5 134t118.5 55t118 -55t48 -134zM296 492q0 43 -27 73t-64 30q-38 0 -64.5 -30.5t-26.5 -72.5q0 -44 26.5 -74.5t64.5 -30.5t64.5 30t26.5 75z" />
    <glyph glyph-name="minus" unicode="&#xad;" 
d="M476 304h-430v92h430v-92z" />
    <glyph glyph-name="acute" unicode="&#xb4;" horiz-adv-x="421" 
d="M337 723l-139 -154h-69l90 154h118z" />
    <glyph glyph-name="paragraph" unicode="&#xb6;" horiz-adv-x="610" 
d="M535 -177h-84v755h-66v-755h-84v427h-70q-81 0 -135 54q-56 59 -56 156t57 155q53 55 134 55h304v-847z" />
    <glyph glyph-name="periodcentered" unicode="&#xb7;" horiz-adv-x="214" 
d="M173 351q0 -30 -19.5 -52.5t-46.5 -22.5t-47 22.5t-20 52.5q0 31 20 54t47 23t46.5 -23t19.5 -54z" />
    <glyph glyph-name="periodcentered" unicode="&#x2219;" horiz-adv-x="214" 
d="M173 351q0 -30 -19.5 -52.5t-46.5 -22.5t-47 22.5t-20 52.5q0 31 20 54t47 23t46.5 -23t19.5 -54z" />
    <glyph glyph-name="cedilla" unicode="&#xb8;" horiz-adv-x="421" 
d="M316 -101q0 -84 -103 -84q-56 0 -104 35l19 31q35 -23 74 -23q54 0 54 38q0 30 -27 30q-19 0 -34 -14l-30 13l15 86h43l-8 -54q18 9 40 9q25 0 41 -16q20 -18 20 -51z" />
    <glyph glyph-name="ordmasculine" unicode="&#xba;" horiz-adv-x="407" 
d="M363 472q0 -99 -45.5 -156.5t-116.5 -57.5q-67 0 -111.5 58.5t-44.5 152.5q0 98 45 156q45 56 114 56t114 -57.5t45 -151.5zM290 469q0 61 -24 97t-65 36q-39 0 -61 -35.5t-22 -94.5q0 -64 23.5 -99.5t63.5 -35.5q37 0 61 38t24 94z" />
    <glyph glyph-name="guillemotright" unicode="&#xbb;" horiz-adv-x="495" 
d="M470 252l-156 -252h-93l151 251l-151 251h93zM283 252l-156 -252h-93l151 251l-151 251h93z" />
    <glyph glyph-name="AE" unicode="&#xc6;" horiz-adv-x="857" 
d="M808 0h-389v157h-218l-91 -157h-98l395 670h389v-98h-292v-165h170v-98h-170v-211h304v-98zM421 541l-61 -112l-105 -179h164v161q0 21 1 69.5t1 60.5z" />
    <glyph glyph-name="Eth" unicode="&#xd0;" horiz-adv-x="584" 
d="M537 335q0 -168 -86 -257q-76 -78 -201 -78h-161v302h-55v96h55v272h161q127 0 203 -78q84 -89 84 -257zM447 335q0 236 -197 236h-75v-173h107v-96h-107v-203h75q197 0 197 236z" />
    <glyph glyph-name="Thorn" unicode="&#xde;" horiz-adv-x="550" 
d="M513 348q0 -100 -53.5 -155t-142.5 -55h-152v-138h-88v670h88v-112h158q84 0 136 -53q54 -56 54 -157zM423 348q0 55 -27.5 84t-74.5 29h-156v-227h156q102 0 102 114z" />
    <glyph glyph-name="germandbls" unicode="&#xdf;" horiz-adv-x="489" 
d="M446 216q0 -216 -217 -216h-10v90h15q125 0 125 121q0 60 -39 93q-35 30 -92 30h-9v89h13q37 0 59 24t22 68q0 41 -22 65t-60 24q-80 0 -80 -102v-634l-87 -53v684q0 98 46 149q44 47 122 47q74 0 120 -47q49 -50 49 -130q0 -104 -75 -133q120 -31 120 -169z" />
    <glyph glyph-name="ae" unicode="&#xe6;" horiz-adv-x="716" 
d="M668 260q0 -13 -2 -45h-270q3 -65 30.5 -99.5t68.5 -34.5q42 0 85 41l53 -66q-60 -67 -143 -67q-92 0 -141 86q-54 -86 -151 -86q-62 0 -104 39q-51 46 -51 131q0 80 51 123q47 41 127 41q52 0 90 -21v36q0 83 -77 83q-65 0 -113 -31l-34 76q68 47 150 47q92 0 128 -70
q51 70 128 70q85 0 132 -76q43 -69 43 -177zM583 300q-6 122 -95 122q-81 0 -91 -122h186zM311 144v69q-37 22 -94 22q-41 0 -64.5 -20t-23.5 -53q0 -81 82 -81q60 0 100 63z" />
    <glyph glyph-name="eth" unicode="&#xf0;" horiz-adv-x="480" 
d="M437 279q0 -148 -57 -223q-52 -67 -143 -67q-85 0 -139.5 65.5t-54.5 173.5q0 110 54 172q49 58 125 58q85 0 130 -64q-19 93 -75 147l-42 -50l-50 50l33 39q-31 16 -72 19v82q71 -4 125 -38l31 38l50 -50l-25 -31q110 -112 110 -321zM349 228q0 70 -32 109
q-30 36 -80 36q-47 0 -76.5 -37t-29.5 -105t30 -108t80 -40q49 0 78.5 41.5t29.5 103.5z" />
    <glyph glyph-name="thorn" unicode="&#xfe;" horiz-adv-x="480" 
d="M435 243q0 -122 -53 -191q-47 -63 -121 -63q-66 0 -111 58v-181l-86 -51v832l86 51v-243q55 58 115 58q77 0 121 -63q49 -70 49 -207zM349 240q0 182 -100 182q-55 0 -100 -64v-212q43 -66 104 -66q96 0 96 160z" />
    <glyph glyph-name="breve" horiz-adv-x="421" 
d="M360 723q-6 -73 -45.5 -113.5t-104.5 -40.5q-64 0 -103.5 40.5t-45.5 113.5h63q11 -72 87 -72q78 0 88 72h61z" />
    <glyph glyph-name="dotaccent" horiz-adv-x="421" 
d="M267 634q0 -26 -17 -45.5t-40 -19.5t-40 19.5t-17 45.5t17 45.5t40 19.5t40 -19.5t17 -45.5z" />
    <glyph glyph-name="ring" horiz-adv-x="421" 
d="M317 689q0 -52 -30.5 -86t-76.5 -34q-45 0 -75.5 34t-30.5 86t30.5 86.5t75.5 34.5q46 0 76.5 -34.5t30.5 -86.5zM262 689q0 26 -15 42.5t-37 16.5q-21 0 -36 -16.5t-15 -42.5t15 -42.5t36 -16.5q22 0 37 16.5t15 42.5z" />
    <glyph glyph-name="hungarumlaut" unicode="&#xa;" horiz-adv-x="421" 
d="M423 723l-139 -154h-69l90 154h118zM250 723l-139 -154h-69l90 154h118z" />
    <glyph glyph-name="ogonek" horiz-adv-x="421" 
d="M317 -144q-48 -41 -100 -41q-88 0 -88 83q0 59 72 102h42q-49 -50 -49 -96q0 -39 36 -39q28 0 67 24z" />
    <glyph glyph-name="caron" horiz-adv-x="421" 
d="M360 723l-99 -154h-101l-99 154h70l80 -85l80 85h69z" />
    <glyph glyph-name="dotlessi" unicode="&#xd;" horiz-adv-x="244" 
d="M71 0v489h105v-489h-105z" />
    <glyph glyph-name="fraction" horiz-adv-x="689" 
d="M108 0h-108l581 1006h108z" />
    <glyph glyph-name="Zcaron" 
d="M33 0v89l306 475h-280v106h430v-63l-310 -499h310v-108h-456zM410 904l-99 -154h-101l-99 154h70l80 -85l80 85h69z" />
    <glyph glyph-name="zcaron" horiz-adv-x="376" 
d="M155 96h200v-96h-334v85l212 308h-191v96h315v-96zM339 723l-99 -154h-101l-99 154h70l80 -85l80 85h69z" />
    <glyph glyph-name="scaron" unicode="&#x161;" horiz-adv-x="360" 
d="M339 127q-2 -27 -14 -52t-33.5 -43.5t-52 -29.5t-70.5 -11q-53 0 -86.5 21t-56.5 56l75 64q18 -23 40 -36.5t45 -6.5q33 9 36.5 36t-22.5 56q-24 27 -53 48l-54.5 40.5t-43.5 40.5t-21 50q-3 50 22.5 87t78.5 49q43 11 92 -3t92 -65l-76 -61q-15 16 -30 26
q-13 8 -28 10.5t-29 -10.5q-15 -14 -5.5 -29t31.5 -32.5t51 -38t55 -45.5t43 -55t14 -66zM331 723l-99 -154h-101l-99 154h70l80 -85l80 85h69z" />
    <glyph glyph-name="Ydieresis" unicode="&#x178;" horiz-adv-x="642" 
d="M374 292v-292h-106v292l-235 378h127l160 -259l162 259h125zM459 815q0 -26 -16.5 -45.5t-39.5 -19.5q-24 0 -40.5 19.5t-16.5 45.5t16.5 45.5t40.5 19.5q23 0 39.5 -19.5t16.5 -45.5zM295 815q0 -26 -16.5 -45.5t-39.5 -19.5q-24 0 -40.5 19.5t-16.5 45.5t16.5 45.5
t40.5 19.5q23 0 39.5 -19.5t16.5 -45.5z" />
    <glyph glyph-name="Agrave" unicode="&#xc0;" horiz-adv-x="609" 
d="M475 0l-66 188h-209l-66 -188h-113l231 670h105l231 -670h-113zM306 484l-69 -188h134zM408 750h-69l-139 154h118z" />
    <glyph glyph-name="Aacute" unicode="&#xc1;" horiz-adv-x="609" 
d="M475 0l-66 188h-209l-66 -188h-113l231 670h105l231 -670h-113zM306 484l-69 -188h134zM408 904l-139 -154h-69l90 154h118z" />
    <glyph glyph-name="Acircumflex" unicode="&#xc2;" horiz-adv-x="609" 
d="M475 0l-66 188h-209l-66 -188h-113l231 670h105l231 -670h-113zM306 484l-69 -188h134zM454 750h-70l-80 85l-80 -85h-69l99 154h101z" />
    <glyph glyph-name="Atilde" unicode="&#xc3;" horiz-adv-x="609" 
d="M475 0l-66 188h-209l-66 -188h-113l231 670h105l231 -670h-113zM306 484l-69 -188h134zM461 878q0 -62 -24.5 -96t-64.5 -34q-38 0 -99 42q-20 13 -33 13q-27 0 -33 -53h-60q0 63 24.5 97t64.5 34q38 0 99 -42q20 -14 33 -14q27 0 33 53h60z" />
    <glyph glyph-name="Adieresis" unicode="&#xc4;" horiz-adv-x="609" 
d="M475 0l-66 188h-209l-66 -188h-113l231 670h105l231 -670h-113zM306 484l-69 -188h134zM443 815q0 -26 -16.5 -45.5t-39.5 -19.5q-24 0 -40.5 19.5t-16.5 45.5t16.5 45.5t40.5 19.5q23 0 39.5 -19.5t16.5 -45.5zM279 815q0 -26 -16.5 -45.5t-39.5 -19.5q-24 0 -40.5 19.5
t-16.5 45.5t16.5 45.5t40.5 19.5q23 0 39.5 -19.5t16.5 -45.5z" />
    <glyph glyph-name="Aring" unicode="&#xc5;" horiz-adv-x="609" 
d="M475 0l-66 188h-209l-66 -188h-113l231 670h105l231 -670h-113zM306 484l-69 -188h134zM411 870q0 -52 -30.5 -86t-76.5 -34q-45 0 -75.5 34t-30.5 86t30.5 86.5t75.5 34.5q46 0 76.5 -34.5t30.5 -86.5zM356 870q0 26 -15 42.5t-37 16.5q-21 0 -36 -16.5t-15 -42.5
t15 -42.5t36 -16.5q22 0 37 16.5t15 42.5z" />
    <glyph glyph-name="Ccedilla" unicode="&#xc7;" horiz-adv-x="588" 
d="M522 136q-60 -148 -202 -148q-75 0 -124 29t-81 91q-23 45 -36 105t-13 123q0 80 20 153t55 118q30 37 72.5 56t99.5 19q76 0 125.5 -33t83.5 -104l-99 -42q-14 21 -25.5 35t-24 22t-27 11t-33.5 3q-41 0 -68.5 -19t-44.5 -64q-13 -30 -19.5 -71t-6.5 -84
q0 -55 11 -105.5t31 -82.5q18 -26 42 -39t59 -13q34 0 59 18.5t45 59.5l101 -38v0zM397 -101q0 -84 -103 -84q-56 0 -104 35l19 31q35 -23 74 -23q54 0 54 38q0 30 -27 30q-19 0 -34 -14l-30 13l15 86h43l-8 -54q18 9 40 9q25 0 41 -16q20 -18 20 -51z" />
    <glyph glyph-name="Egrave" unicode="&#xc8;" horiz-adv-x="529" 
d="M80 0v670h395v-106h-289v-164h195v-108h-195v-184h310v-108h-416zM368 750h-69l-139 154h118z" />
    <glyph glyph-name="Eacute" unicode="&#xc9;" horiz-adv-x="529" 
d="M80 0v670h395v-106h-289v-164h195v-108h-195v-184h310v-108h-416zM368 904l-139 -154h-69l90 154h118z" />
    <glyph glyph-name="Ecircumflex" unicode="&#xca;" horiz-adv-x="529" 
d="M80 0v670h395v-106h-289v-164h195v-108h-195v-184h310v-108h-416zM414 750h-70l-80 85l-80 -85h-69l99 154h101z" />
    <glyph glyph-name="Edieresis" unicode="&#xcb;" horiz-adv-x="529" 
d="M80 0v670h395v-106h-289v-164h195v-108h-195v-184h310v-108h-416zM403 815q0 -26 -16.5 -45.5t-39.5 -19.5q-24 0 -40.5 19.5t-16.5 45.5t16.5 45.5t40.5 19.5q23 0 39.5 -19.5t16.5 -45.5zM239 815q0 -26 -16.5 -45.5t-39.5 -19.5q-24 0 -40.5 19.5t-16.5 45.5
t16.5 45.5t40.5 19.5q23 0 39.5 -19.5t16.5 -45.5z" />
    <glyph glyph-name="Igrave" unicode="&#xcc;" horiz-adv-x="268" 
d="M80 0v670h108v-670h-108zM239 750h-69l-139 154h118z" />
    <glyph glyph-name="Iacute" unicode="&#xcd;" horiz-adv-x="268" 
d="M80 0v670h108v-670h-108zM239 904l-139 -154h-69l90 154h118z" />
    <glyph glyph-name="Icircumflex" unicode="&#xce;" horiz-adv-x="268" 
d="M80 0v670h108v-670h-108zM285 750h-70l-80 85l-80 -85h-69l99 154h101z" />
    <glyph glyph-name="Idieresis" unicode="&#xcf;" horiz-adv-x="268" 
d="M80 0v670h108v-670h-108zM274 815q0 -26 -16.5 -45.5t-39.5 -19.5q-24 0 -40.5 19.5t-16.5 45.5t16.5 45.5t40.5 19.5q23 0 39.5 -19.5t16.5 -45.5zM110 815q0 -26 -16.5 -45.5t-39.5 -19.5q-24 0 -40.5 19.5t-16.5 45.5t16.5 45.5t40.5 19.5q23 0 39.5 -19.5t16.5 -45.5
z" />
    <glyph glyph-name="Ntilde" unicode="&#xd1;" horiz-adv-x="616" 
d="M442 0l-256 454v-454h-106v670h106l244 -428v428h106v-670h-94zM465 878q0 -62 -24.5 -96t-64.5 -34q-38 0 -99 42q-20 13 -33 13q-27 0 -33 -53h-60q0 63 24.5 97t64.5 34q38 0 99 -42q20 -14 33 -14q27 0 33 53h60z" />
    <glyph glyph-name="Ograve" unicode="&#xd2;" horiz-adv-x="609" 
d="M541 334q0 -80 -19 -153t-54 -118q-56 -75 -162 -75q-71 0 -117 29t-76 91q-21 43 -34 104.5t-13 121.5q0 83 19.5 154t53.5 119q30 38 71.5 56.5t99.5 18.5q64 0 109 -29t77 -91q21 -45 33 -105t12 -123zM435 334q0 57 -10 105.5t-30 82.5q-16 26 -36.5 38t-50.5 14
q-39 2 -65 -18t-43 -65q-13 -30 -19.5 -72.5t-6.5 -84.5q0 -54 10 -104t30 -82q16 -26 38 -39t54 -13q37 0 61.5 20t41.5 65q5 13 10 31.5t8.5 39t5.5 41.5t2 41zM408 750h-69l-139 154h118z" />
    <glyph glyph-name="Oacute" unicode="&#xd3;" horiz-adv-x="609" 
d="M541 334q0 -80 -19 -153t-54 -118q-56 -75 -162 -75q-71 0 -117 29t-76 91q-21 43 -34 104.5t-13 121.5q0 83 19.5 154t53.5 119q30 38 71.5 56.5t99.5 18.5q64 0 109 -29t77 -91q21 -45 33 -105t12 -123zM435 334q0 57 -10 105.5t-30 82.5q-16 26 -36.5 38t-50.5 14
q-39 2 -65 -18t-43 -65q-13 -30 -19.5 -72.5t-6.5 -84.5q0 -54 10 -104t30 -82q16 -26 38 -39t54 -13q37 0 61.5 20t41.5 65q5 13 10 31.5t8.5 39t5.5 41.5t2 41zM408 904l-139 -154h-69l90 154h118z" />
    <glyph glyph-name="Ocircumflex" unicode="&#xd4;" horiz-adv-x="609" 
d="M541 334q0 -80 -19 -153t-54 -118q-56 -75 -162 -75q-71 0 -117 29t-76 91q-21 43 -34 104.5t-13 121.5q0 83 19.5 154t53.5 119q30 38 71.5 56.5t99.5 18.5q64 0 109 -29t77 -91q21 -45 33 -105t12 -123zM435 334q0 57 -10 105.5t-30 82.5q-16 26 -36.5 38t-50.5 14
q-39 2 -65 -18t-43 -65q-13 -30 -19.5 -72.5t-6.5 -84.5q0 -54 10 -104t30 -82q16 -26 38 -39t54 -13q37 0 61.5 20t41.5 65q5 13 10 31.5t8.5 39t5.5 41.5t2 41zM454 750h-70l-80 85l-80 -85h-69l99 154h101z" />
    <glyph glyph-name="Otilde" unicode="&#xd5;" horiz-adv-x="609" 
d="M541 334q0 -80 -19 -153t-54 -118q-56 -75 -162 -75q-71 0 -117 29t-76 91q-21 43 -34 104.5t-13 121.5q0 83 19.5 154t53.5 119q30 38 71.5 56.5t99.5 18.5q64 0 109 -29t77 -91q21 -45 33 -105t12 -123zM435 334q0 57 -10 105.5t-30 82.5q-16 26 -36.5 38t-50.5 14
q-39 2 -65 -18t-43 -65q-13 -30 -19.5 -72.5t-6.5 -84.5q0 -54 10 -104t30 -82q16 -26 38 -39t54 -13q37 0 61.5 20t41.5 65q5 13 10 31.5t8.5 39t5.5 41.5t2 41zM461 878q0 -62 -24.5 -96t-64.5 -34q-38 0 -99 42q-20 13 -33 13q-27 0 -33 -53h-60q0 63 24.5 97t64.5 34
q38 0 99 -42q20 -14 33 -14q27 0 33 53h60z" />
    <glyph glyph-name="Odieresis" unicode="&#xd6;" horiz-adv-x="609" 
d="M541 334q0 -80 -19 -153t-54 -118q-56 -75 -162 -75q-71 0 -117 29t-76 91q-21 43 -34 104.5t-13 121.5q0 83 19.5 154t53.5 119q30 38 71.5 56.5t99.5 18.5q64 0 109 -29t77 -91q21 -45 33 -105t12 -123zM435 334q0 57 -10 105.5t-30 82.5q-16 26 -36.5 38t-50.5 14
q-39 2 -65 -18t-43 -65q-13 -30 -19.5 -72.5t-6.5 -84.5q0 -54 10 -104t30 -82q16 -26 38 -39t54 -13q37 0 61.5 20t41.5 65q5 13 10 31.5t8.5 39t5.5 41.5t2 41zM443 815q0 -26 -16.5 -45.5t-39.5 -19.5q-24 0 -40.5 19.5t-16.5 45.5t16.5 45.5t40.5 19.5q23 0 39.5 -19.5
t16.5 -45.5zM279 815q0 -26 -16.5 -45.5t-39.5 -19.5q-24 0 -40.5 19.5t-16.5 45.5t16.5 45.5t40.5 19.5q23 0 39.5 -19.5t16.5 -45.5z" />
    <glyph glyph-name="Ugrave" unicode="&#xd9;" horiz-adv-x="616" 
d="M536 240q0 -39 -8.5 -74t-22.5 -65q-13 -25 -34 -45.5t-47 -35.5t-55.5 -23.5t-60.5 -8.5t-60.5 8.5t-55.5 23.5t-47.5 35.5t-34.5 45.5q-14 30 -22 65t-8 74v430h106v-430q0 -66 33.5 -105t88.5 -39t88.5 39t33.5 105v430h106v-430v0zM412 750h-69l-139 154h118z" />
    <glyph glyph-name="Uacute" unicode="&#xda;" horiz-adv-x="616" 
d="M536 240q0 -39 -8.5 -74t-22.5 -65q-13 -25 -34 -45.5t-47 -35.5t-55.5 -23.5t-60.5 -8.5t-60.5 8.5t-55.5 23.5t-47.5 35.5t-34.5 45.5q-14 30 -22 65t-8 74v430h106v-430q0 -66 33.5 -105t88.5 -39t88.5 39t33.5 105v430h106v-430v0zM412 904l-139 -154h-69l90 154h118
z" />
    <glyph glyph-name="Ucircumflex" unicode="&#xdb;" horiz-adv-x="616" 
d="M536 240q0 -39 -8.5 -74t-22.5 -65q-13 -25 -34 -45.5t-47 -35.5t-55.5 -23.5t-60.5 -8.5t-60.5 8.5t-55.5 23.5t-47.5 35.5t-34.5 45.5q-14 30 -22 65t-8 74v430h106v-430q0 -66 33.5 -105t88.5 -39t88.5 39t33.5 105v430h106v-430v0zM457 750h-70l-80 85l-80 -85h-69
l99 154h101z" />
    <glyph glyph-name="Udieresis" unicode="&#xdc;" horiz-adv-x="616" 
d="M536 240q0 -39 -8.5 -74t-22.5 -65q-13 -25 -34 -45.5t-47 -35.5t-55.5 -23.5t-60.5 -8.5t-60.5 8.5t-55.5 23.5t-47.5 35.5t-34.5 45.5q-14 30 -22 65t-8 74v430h106v-430q0 -66 33.5 -105t88.5 -39t88.5 39t33.5 105v430h106v-430v0zM446 815q0 -26 -16.5 -45.5
t-39.5 -19.5q-24 0 -40.5 19.5t-16.5 45.5t16.5 45.5t40.5 19.5q23 0 39.5 -19.5t16.5 -45.5zM282 815q0 -26 -16.5 -45.5t-39.5 -19.5q-24 0 -40.5 19.5t-16.5 45.5t16.5 45.5t40.5 19.5q23 0 39.5 -19.5t16.5 -45.5z" />
    <glyph glyph-name="Yacute" unicode="&#xdd;" horiz-adv-x="642" 
d="M374 292v-292h-106v292l-235 378h127l160 -259l162 259h125zM425 904l-139 -154h-69l90 154h118z" />
    <glyph glyph-name="agrave" unicode="&#xe0;" horiz-adv-x="475" 
d="M313 0v14q-13 -11 -40.5 -16t-56.5 -5q-37 0 -70 11.5t-58 34.5t-40 57t-15 78q0 52 27.5 87t68.5 53t88.5 19t88.5 -16q0 22 -8 40q-7 15 -22 28.5t-43 16.5q-26 3 -48.5 -3t-40.5 -16.5t-30.5 -22t-17.5 -19.5l-30 103q30 25 68 39t77 17t76 -6t65.5 -30t46 -55.5
t17.5 -81.5v-327h-103zM308 221q-17 8 -45.5 15t-56 5t-47.5 -17t-20 -52q0 -30 9.5 -48t25 -26.5t35 -10t38 1t35 8.5t26.5 11v113zM341 569h-69l-139 154h118z" />
    <glyph glyph-name="aacute" unicode="&#xe1;" horiz-adv-x="475" 
d="M313 0v14q-13 -11 -40.5 -16t-56.5 -5q-37 0 -70 11.5t-58 34.5t-40 57t-15 78q0 52 27.5 87t68.5 53t88.5 19t88.5 -16q0 22 -8 40q-7 15 -22 28.5t-43 16.5q-26 3 -48.5 -3t-40.5 -16.5t-30.5 -22t-17.5 -19.5l-30 103q30 25 68 39t77 17t76 -6t65.5 -30t46 -55.5
t17.5 -81.5v-327h-103zM308 221q-17 8 -45.5 15t-56 5t-47.5 -17t-20 -52q0 -30 9.5 -48t25 -26.5t35 -10t38 1t35 8.5t26.5 11v113zM341 723l-139 -154h-69l90 154h118z" />
    <glyph glyph-name="acircumflex" unicode="&#xe2;" horiz-adv-x="475" 
d="M313 0v14q-13 -11 -40.5 -16t-56.5 -5q-37 0 -70 11.5t-58 34.5t-40 57t-15 78q0 52 27.5 87t68.5 53t88.5 19t88.5 -16q0 22 -8 40q-7 15 -22 28.5t-43 16.5q-26 3 -48.5 -3t-40.5 -16.5t-30.5 -22t-17.5 -19.5l-30 103q30 25 68 39t77 17t76 -6t65.5 -30t46 -55.5
t17.5 -81.5v-327h-103zM308 221q-17 8 -45.5 15t-56 5t-47.5 -17t-20 -52q0 -30 9.5 -48t25 -26.5t35 -10t38 1t35 8.5t26.5 11v113zM387 569h-70l-80 85l-80 -85h-69l99 154h101z" />
    <glyph glyph-name="atilde" unicode="&#xe3;" horiz-adv-x="475" 
d="M313 0v14q-13 -11 -40.5 -16t-56.5 -5q-37 0 -70 11.5t-58 34.5t-40 57t-15 78q0 52 27.5 87t68.5 53t88.5 19t88.5 -16q0 22 -8 40q-7 15 -22 28.5t-43 16.5q-26 3 -48.5 -3t-40.5 -16.5t-30.5 -22t-17.5 -19.5l-30 103q30 25 68 39t77 17t76 -6t65.5 -30t46 -55.5
t17.5 -81.5v-327h-103zM308 221q-17 8 -45.5 15t-56 5t-47.5 -17t-20 -52q0 -30 9.5 -48t25 -26.5t35 -10t38 1t35 8.5t26.5 11v113zM394 697q0 -62 -24.5 -96t-64.5 -34q-38 0 -99 42q-20 13 -33 13q-27 0 -33 -53h-60q0 63 24.5 97t64.5 34q38 0 99 -42q20 -14 33 -14
q27 0 33 53h60z" />
    <glyph glyph-name="adieresis" unicode="&#xe4;" horiz-adv-x="475" 
d="M313 0v14q-13 -11 -40.5 -16t-56.5 -5q-37 0 -70 11.5t-58 34.5t-40 57t-15 78q0 52 27.5 87t68.5 53t88.5 19t88.5 -16q0 22 -8 40q-7 15 -22 28.5t-43 16.5q-26 3 -48.5 -3t-40.5 -16.5t-30.5 -22t-17.5 -19.5l-30 103q30 25 68 39t77 17t76 -6t65.5 -30t46 -55.5
t17.5 -81.5v-327h-103zM308 221q-17 8 -45.5 15t-56 5t-47.5 -17t-20 -52q0 -30 9.5 -48t25 -26.5t35 -10t38 1t35 8.5t26.5 11v113zM376 634q0 -26 -16.5 -45.5t-39.5 -19.5q-24 0 -40.5 19.5t-16.5 45.5t16.5 45.5t40.5 19.5q23 0 39.5 -19.5t16.5 -45.5zM212 634
q0 -26 -16.5 -45.5t-39.5 -19.5q-24 0 -40.5 19.5t-16.5 45.5t16.5 45.5t40.5 19.5q23 0 39.5 -19.5t16.5 -45.5z" />
    <glyph glyph-name="aring" unicode="&#xe5;" horiz-adv-x="475" 
d="M313 0v14q-13 -11 -40.5 -16t-56.5 -5q-37 0 -70 11.5t-58 34.5t-40 57t-15 78q0 52 27.5 87t68.5 53t88.5 19t88.5 -16q0 22 -8 40q-7 15 -22 28.5t-43 16.5q-26 3 -48.5 -3t-40.5 -16.5t-30.5 -22t-17.5 -19.5l-30 103q30 25 68 39t77 17t76 -6t65.5 -30t46 -55.5
t17.5 -81.5v-327h-103zM308 221q-17 8 -45.5 15t-56 5t-47.5 -17t-20 -52q0 -30 9.5 -48t25 -26.5t35 -10t38 1t35 8.5t26.5 11v113zM344 689q0 -52 -30.5 -86t-76.5 -34q-45 0 -75.5 34t-30.5 86t30.5 86.5t75.5 34.5q46 0 76.5 -34.5t30.5 -86.5zM289 689q0 26 -15 42.5
t-37 16.5q-21 0 -36 -16.5t-15 -42.5t15 -42.5t36 -16.5q22 0 37 16.5t15 42.5z" />
    <glyph glyph-name="ccedilla" unicode="&#xe7;" horiz-adv-x="458" 
d="M437 153q-7 -33 -21 -62t-36.5 -51.5t-56 -35.5t-79.5 -13q-63 0 -103 22t-62.5 58t-30.5 82t-8 94q0 40 8 85t30.5 82.5t62.5 62t103 24.5q79 0 124 -35t62 -88l-108 -37q-9 30 -27.5 45.5t-50.5 15.5q-31 0 -49.5 -17.5t-29 -42t-14 -51t-3.5 -44.5q0 -19 3.5 -46
t14 -52t29 -42.5t49.5 -17.5q41 0 60.5 27.5t24.5 64.5l108 -28v0zM332 -101q0 -84 -103 -84q-56 0 -104 35l19 31q35 -23 74 -23q54 0 54 38q0 30 -27 30q-19 0 -34 -14l-30 13l15 86h43l-8 -54q18 9 40 9q25 0 41 -16q20 -18 20 -51z" />
    <glyph glyph-name="egrave" unicode="&#xe8;" horiz-adv-x="463" 
d="M150 200q2 -20 7.5 -40t16 -36t27 -25.5t41.5 -9.5q34 0 58.5 18.5t33.5 50.5l87 -55q-11 -24 -26 -44.5t-37 -35.5t-50.5 -23.5t-65.5 -8.5q-63 0 -102.5 22t-61.5 58t-30 82t-8 94q0 40 8 85t30 82.5t61.5 62t102.5 24.5q72 0 112 -30t59 -75.5t22 -98t2 -97.5h-287z
M331 299q0 18 -2.5 36t-12 33t-27 24.5t-47.5 9.5q-31 0 -49.5 -9t-28.5 -24t-13 -33.5t-3 -36.5h183v0zM335 569h-69l-139 154h118z" />
    <glyph glyph-name="eacute" unicode="&#xe9;" horiz-adv-x="463" 
d="M150 200q2 -20 7.5 -40t16 -36t27 -25.5t41.5 -9.5q34 0 58.5 18.5t33.5 50.5l87 -55q-11 -24 -26 -44.5t-37 -35.5t-50.5 -23.5t-65.5 -8.5q-63 0 -102.5 22t-61.5 58t-30 82t-8 94q0 40 8 85t30 82.5t61.5 62t102.5 24.5q72 0 112 -30t59 -75.5t22 -98t2 -97.5h-287z
M331 299q0 18 -2.5 36t-12 33t-27 24.5t-47.5 9.5q-31 0 -49.5 -9t-28.5 -24t-13 -33.5t-3 -36.5h183v0zM337 723l-139 -154h-69l90 154h118z" />
    <glyph glyph-name="ecircumflex" unicode="&#xea;" horiz-adv-x="463" 
d="M150 200q2 -20 7.5 -40t16 -36t27 -25.5t41.5 -9.5q34 0 58.5 18.5t33.5 50.5l87 -55q-11 -24 -26 -44.5t-37 -35.5t-50.5 -23.5t-65.5 -8.5q-63 0 -102.5 22t-61.5 58t-30 82t-8 94q0 40 8 85t30 82.5t61.5 62t102.5 24.5q72 0 112 -30t59 -75.5t22 -98t2 -97.5h-287z
M331 299q0 18 -2.5 36t-12 33t-27 24.5t-47.5 9.5q-31 0 -49.5 -9t-28.5 -24t-13 -33.5t-3 -36.5h183v0zM381 569h-70l-80 85l-80 -85h-69l99 154h101z" />
    <glyph glyph-name="edieresis" unicode="&#xeb;" horiz-adv-x="463" 
d="M150 200q2 -20 7.5 -40t16 -36t27 -25.5t41.5 -9.5q34 0 58.5 18.5t33.5 50.5l87 -55q-11 -24 -26 -44.5t-37 -35.5t-50.5 -23.5t-65.5 -8.5q-63 0 -102.5 22t-61.5 58t-30 82t-8 94q0 40 8 85t30 82.5t61.5 62t102.5 24.5q72 0 112 -30t59 -75.5t22 -98t2 -97.5h-287z
M331 299q0 18 -2.5 36t-12 33t-27 24.5t-47.5 9.5q-31 0 -49.5 -9t-28.5 -24t-13 -33.5t-3 -36.5h183v0zM370 634q0 -26 -16.5 -45.5t-39.5 -19.5q-24 0 -40.5 19.5t-16.5 45.5t16.5 45.5t40.5 19.5q23 0 39.5 -19.5t16.5 -45.5zM206 634q0 -26 -16.5 -45.5t-39.5 -19.5
q-24 0 -40.5 19.5t-16.5 45.5t16.5 45.5t40.5 19.5q23 0 39.5 -19.5t16.5 -45.5z" />
    <glyph glyph-name="ntilde" unicode="&#xf1;" 
d="M355 0v324q0 24 -7.5 39t-20.5 24t-31.5 12t-39.5 3q-32 -2 -57 -21t-25 -61v-320h-108v489h106v-16q41 26 91.5 29t94.5 -15t73.5 -56t29.5 -95v-336h-106zM418 697q0 -62 -24.5 -96t-64.5 -34q-38 0 -99 42q-20 13 -33 13q-27 0 -33 -53h-60q0 63 24.5 97t64.5 34
q38 0 99 -42q20 -14 33 -14q27 0 33 53h60z" />
    <glyph glyph-name="ograve" unicode="&#xf2;" horiz-adv-x="487" 
d="M447 247q0 -44 -8 -89.5t-30.5 -82.5t-62 -60.5t-102.5 -23.5t-103 22t-62.5 58t-30.5 82t-8 94q0 40 8 85t30.5 82.5t62.5 62t103 24.5t102.5 -23t62 -60t30.5 -82t8 -89zM339 247q0 18 -3.5 44t-14 51t-29 42.5t-48.5 17.5q-31 0 -49.5 -17.5t-29 -42.5t-14 -52
t-3.5 -46q0 -18 3.5 -45t14 -52t29 -42.5t49.5 -17.5t50 18t29 43.5t13 52.5t3 46zM347 569h-69l-139 154h118z" />
    <glyph glyph-name="oacute" unicode="&#xf3;" horiz-adv-x="487" 
d="M447 247q0 -44 -8 -89.5t-30.5 -82.5t-62 -60.5t-102.5 -23.5t-103 22t-62.5 58t-30.5 82t-8 94q0 40 8 85t30.5 82.5t62.5 62t103 24.5t102.5 -23t62 -60t30.5 -82t8 -89zM339 247q0 18 -3.5 44t-14 51t-29 42.5t-48.5 17.5q-31 0 -49.5 -17.5t-29 -42.5t-14 -52
t-3.5 -46q0 -18 3.5 -45t14 -52t29 -42.5t49.5 -17.5t50 18t29 43.5t13 52.5t3 46zM347 723l-139 -154h-69l90 154h118z" />
    <glyph glyph-name="ocircumflex" unicode="&#xf4;" horiz-adv-x="487" 
d="M447 247q0 -44 -8 -89.5t-30.5 -82.5t-62 -60.5t-102.5 -23.5t-103 22t-62.5 58t-30.5 82t-8 94q0 40 8 85t30.5 82.5t62.5 62t103 24.5t102.5 -23t62 -60t30.5 -82t8 -89zM339 247q0 18 -3.5 44t-14 51t-29 42.5t-48.5 17.5q-31 0 -49.5 -17.5t-29 -42.5t-14 -52
t-3.5 -46q0 -18 3.5 -45t14 -52t29 -42.5t49.5 -17.5t50 18t29 43.5t13 52.5t3 46zM393 569h-70l-80 85l-80 -85h-69l99 154h101z" />
    <glyph glyph-name="otilde" unicode="&#xf5;" horiz-adv-x="487" 
d="M447 247q0 -44 -8 -89.5t-30.5 -82.5t-62 -60.5t-102.5 -23.5t-103 22t-62.5 58t-30.5 82t-8 94q0 40 8 85t30.5 82.5t62.5 62t103 24.5t102.5 -23t62 -60t30.5 -82t8 -89zM339 247q0 18 -3.5 44t-14 51t-29 42.5t-48.5 17.5q-31 0 -49.5 -17.5t-29 -42.5t-14 -52
t-3.5 -46q0 -18 3.5 -45t14 -52t29 -42.5t49.5 -17.5t50 18t29 43.5t13 52.5t3 46zM400 697q0 -62 -24.5 -96t-64.5 -34q-38 0 -99 42q-20 13 -33 13q-27 0 -33 -53h-60q0 63 24.5 97t64.5 34q38 0 99 -42q20 -14 33 -14q27 0 33 53h60z" />
    <glyph glyph-name="odieresis" unicode="&#xf6;" horiz-adv-x="487" 
d="M447 247q0 -44 -8 -89.5t-30.5 -82.5t-62 -60.5t-102.5 -23.5t-103 22t-62.5 58t-30.5 82t-8 94q0 40 8 85t30.5 82.5t62.5 62t103 24.5t102.5 -23t62 -60t30.5 -82t8 -89zM339 247q0 18 -3.5 44t-14 51t-29 42.5t-48.5 17.5q-31 0 -49.5 -17.5t-29 -42.5t-14 -52
t-3.5 -46q0 -18 3.5 -45t14 -52t29 -42.5t49.5 -17.5t50 18t29 43.5t13 52.5t3 46zM382 634q0 -26 -16.5 -45.5t-39.5 -19.5q-24 0 -40.5 19.5t-16.5 45.5t16.5 45.5t40.5 19.5q23 0 39.5 -19.5t16.5 -45.5zM218 634q0 -26 -16.5 -45.5t-39.5 -19.5q-24 0 -40.5 19.5
t-16.5 45.5t16.5 45.5t40.5 19.5q23 0 39.5 -19.5t16.5 -45.5z" />
    <glyph glyph-name="ugrave" unicode="&#xf9;" 
d="M350 0v16q-48 -28 -99.5 -31.5t-93.5 15t-69 57.5t-27 96v336h106v-324q0 -24 7.5 -39t20.5 -24t31.5 -12t39.5 -3q16 1 30.5 5t26 13t18.5 24t7 36v324h106v-489h-104zM365 569h-69l-139 154h118z" />
    <glyph glyph-name="uacute" unicode="&#xfa;" 
d="M350 0v16q-48 -28 -99.5 -31.5t-93.5 15t-69 57.5t-27 96v336h106v-324q0 -24 7.5 -39t20.5 -24t31.5 -12t39.5 -3q16 1 30.5 5t26 13t18.5 24t7 36v324h106v-489h-104zM365 723l-139 -154h-69l90 154h118z" />
    <glyph glyph-name="ucircumflex" unicode="&#xfb;" 
d="M350 0v16q-48 -28 -99.5 -31.5t-93.5 15t-69 57.5t-27 96v336h106v-324q0 -24 7.5 -39t20.5 -24t31.5 -12t39.5 -3q16 1 30.5 5t26 13t18.5 24t7 36v324h106v-489h-104zM410 569h-70l-80 85l-80 -85h-69l99 154h101z" />
    <glyph glyph-name="udieresis" unicode="&#xfc;" 
d="M350 0v16q-48 -28 -99.5 -31.5t-93.5 15t-69 57.5t-27 96v336h106v-324q0 -24 7.5 -39t20.5 -24t31.5 -12t39.5 -3q16 1 30.5 5t26 13t18.5 24t7 36v324h106v-489h-104zM399 634q0 -26 -16.5 -45.5t-39.5 -19.5q-24 0 -40.5 19.5t-16.5 45.5t16.5 45.5t40.5 19.5
q23 0 39.5 -19.5t16.5 -45.5zM235 634q0 -26 -16.5 -45.5t-39.5 -19.5q-24 0 -40.5 19.5t-16.5 45.5t16.5 45.5t40.5 19.5q23 0 39.5 -19.5t16.5 -45.5z" />
    <glyph glyph-name="yacute" unicode="&#xfd;" horiz-adv-x="527" 
d="M247 -188h-118l73 188l-188 489h115l134 -343l130 343h119zM367 723l-139 -154h-69l90 154h118z" />
    <glyph glyph-name="ydieresis" unicode="&#xff;" horiz-adv-x="527" 
d="M247 -188h-118l73 188l-188 489h115l134 -343l130 343h119zM402 634q0 -26 -16.5 -45.5t-39.5 -19.5q-24 0 -40.5 19.5t-16.5 45.5t16.5 45.5t40.5 19.5q23 0 39.5 -19.5t16.5 -45.5zM238 634q0 -26 -16.5 -45.5t-39.5 -19.5q-24 0 -40.5 19.5t-16.5 45.5t16.5 45.5
t40.5 19.5q23 0 39.5 -19.5t16.5 -45.5z" />
    <glyph glyph-name="fi" horiz-adv-x="526" 
d="M197 393v-393h-108v393h-63v96h63v85q0 18 4.5 37.5t15.5 35t29.5 25.5t47.5 10q25 0 41 -3.5t41 -8.5v-92q-9 2 -21 5.5t-23.5 3.5t-19 -5.5t-7.5 -21.5v-71h71v-96h-71zM461 625q0 -23 -17 -38.5t-40 -15.5t-39.5 15.5t-16.5 38.5t16.5 40t39.5 17t40 -17t17 -40z
M353 0v489h105v-489h-105z" />
    <glyph glyph-name="fl" 
d="M197 393v-393h-108v393h-63v96h63v85q0 18 4.5 37.5t15.5 35t29.5 25.5t47.5 10q25 0 41 -3.5t41 -8.5v-92q-9 2 -21 5.5t-23.5 3.5t-19 -5.5t-7.5 -21.5v-71h71v-96h-71zM348 0v630l108 52v-682h-108z" />
    <glyph glyph-name="exclamdown" unicode="&#xa1;" horiz-adv-x="268" 
d="M120 472h40l28 -291v-193h-104v190zM82 616q0 23 15 38.5t37 15.5q23 0 38.5 -15.5t15.5 -38.5q0 -22 -15.5 -37t-38.5 -15q-22 0 -37 15t-15 37z" />
    <glyph glyph-name="questiondown" unicode="&#xbf;" horiz-adv-x="524" 
d="M47 174q0 27 4.5 48.5t16.5 41.5t33 42t54 49q13 11 21.5 19.5t14 16.5t9 16.5t7.5 20.5q1 7 2 12t2 11.5t1.5 15.5t1.5 24h98v-35.5t-2 -18.5q-2 -30 -10.5 -52t-22.5 -40q-3 -5 -7.5 -10t-12 -12.5t-19 -18t-29.5 -25.5q-30 -26 -43 -49t-13 -52q0 -46 27.5 -72
t75.5 -26q55 0 82 32.5t31 101.5h108q-2 -48 -11 -80.5t-29 -60.5q-32 -42 -77.5 -63.5t-108.5 -21.5q-46 0 -83.5 13.5t-64.5 38.5t-41.5 59t-14.5 75zM327 623q0 -27 -19 -45.5t-45 -18.5q-25 0 -43 18.5t-18 45.5q0 25 18 43t43 18q26 0 45 -18t19 -43z" />
    <glyph glyph-name="igrave" unicode="&#xec;" horiz-adv-x="244" 
d="M71 0v489h105v-489h-105zM227 569h-69l-139 154h118z" />
    <glyph glyph-name="iacute" unicode="&#xed;" horiz-adv-x="244" 
d="M71 0v489h105v-489h-105zM227 723l-139 -154h-69l90 154h118z" />
    <glyph glyph-name="icircumflex" unicode="&#xee;" horiz-adv-x="244" 
d="M71 0v489h105v-489h-105zM273 569h-70l-80 85l-80 -85h-69l99 154h101z" />
    <glyph glyph-name="idieresis" unicode="&#xef;" horiz-adv-x="244" 
d="M71 0v489h105v-489h-105zM262 634q0 -26 -16.5 -45.5t-39.5 -19.5q-24 0 -40.5 19.5t-16.5 45.5t16.5 45.5t40.5 19.5q23 0 39.5 -19.5t16.5 -45.5zM98 634q0 -26 -16.5 -45.5t-39.5 -19.5q-24 0 -40.5 19.5t-16.5 45.5t16.5 45.5t40.5 19.5q23 0 39.5 -19.5t16.5 -45.5z
" />
    <glyph glyph-name="Scaron" unicode="&#x160;" 
d="M489 193q0 -46 -17 -85t-49 -68q-28 -25 -65.5 -38.5t-80.5 -13.5q-87 0 -148.5 46.5t-95.5 123.5l101 37q21 -48 58 -73.5t85 -25.5q47 0 75.5 28.5t28.5 70.5q0 33 -17.5 54t-45.5 35.5t-61.5 25.5t-66.5 24q-15 6 -37 17t-42.5 30.5t-35 48.5t-14.5 71q0 49 16 83.5
t43.5 56t66 31.5t83.5 10q71 0 118.5 -37t72.5 -100l-94 -28q-8 16 -21 29q-11 11 -30.5 20t-47.5 10q-18 1 -37.5 -2.5t-34.5 -12.5t-24 -24.5t-7 -38.5q2 -31 27 -47.5t61 -28.5t77.5 -24.5t76.5 -36t58.5 -63t23.5 -105.5zM410 904l-99 -154h-101l-99 154h70l80 -85
l80 85h69z" />
    <glyph glyph-name="Lslash" horiz-adv-x="515" 
d="M80 0v670h106v-571h310v-99h-416zM40 345q-9 -5 -16.5 -2t-11.5 10t-2.5 15t10.5 13l214 116q9 5 16.5 1.5t11.5 -10t2.5 -14.5t-10.5 -13l-214 -116v0z" />
    <glyph glyph-name="lslash" horiz-adv-x="240" 
d="M66 0v630l108 52v-682h-108zM40 385q-8 -6 -16 -4.5t-12.5 7.5t-4 14.5t8.5 14.5l181 141q8 6 16 4.5t12.5 -7.5t4 -14.5t-8.5 -14.5l-181 -141v0z" />
    <glyph glyph-name="Oslash" unicode="&#xd8;" horiz-adv-x="609" 
d="M541 334q0 -80 -19 -153t-54 -118q-56 -75 -162 -75q-71 0 -117 29t-76 91q-21 43 -34 104.5t-13 121.5q0 83 19.5 154t53.5 119q30 38 71.5 56.5t99.5 18.5q64 0 109 -29t77 -91q21 -45 33 -105t12 -123zM435 334q0 57 -10 105.5t-30 82.5q-16 26 -36.5 38t-50.5 14
q-39 2 -65 -18t-43 -65q-13 -30 -19.5 -72.5t-6.5 -84.5q0 -54 10 -104t30 -82q16 -26 38 -39t54 -13q37 0 61.5 20t41.5 65q5 13 10 31.5t8.5 39t5.5 41.5t2 41zM81 -8q-6 -8 -14 -8.5t-14 4t-8 12.5t4 16l478 658q6 8 14 8.5t14 -4t8 -12.5t-4 -16l-478 -658v0z" />
    <glyph glyph-name="oslash" unicode="&#xf8;" horiz-adv-x="487" 
d="M447 247q0 -44 -8 -89.5t-30.5 -82.5t-62 -60.5t-102.5 -23.5t-103 22t-62.5 58t-30.5 82t-8 94q0 40 8 85t30.5 82.5t62.5 62t103 24.5t102.5 -23t62 -60t30.5 -82t8 -89zM339 247q0 18 -3.5 44t-14 51t-29 42.5t-48.5 17.5q-31 0 -49.5 -17.5t-29 -42.5t-14 -52
t-3.5 -46q0 -18 3.5 -45t14 -52t29 -42.5t49.5 -17.5t50 18t29 43.5t13 52.5t3 46zM70 -9q-6 -8 -14.5 -8t-14.5 5t-7.5 13t4.5 16l395 490q6 8 14.5 8t14.5 -5t7.5 -13t-4.5 -16l-395 -490v0z" />
    <glyph glyph-name="Euro" unicode="&#x20ac;" horiz-adv-x="432" 
d="M301 601q-65 0 -108 -37q-26 -22 -47 -63q-21 -40 -26 -78h261l-11 -60h-254q-2 -10 -2 -18q0 -35 2 -42h244l-11 -60h-225q16 -104 76 -148q45 -32 94 -32q73 0 111 45v-93q-47 -26 -104 -26q-173 0 -232 170q-13 34 -21 84h-59l11 60h41q-2 19 -2 41v19h-50l11 60h43
q24 148 124 212q61 40 135 40q71 0 119 -36l-16 -85q-45 47 -104 47z" />
    <glyph glyph-name="currency" unicode="&#xa4;" horiz-adv-x="432" 
d="M81 435l-52 62l43 54l53 -63q41 33 90 33q50 0 91 -33l52 63l44 -54l-53 -62q27 -49 27 -106q0 -58 -27 -107l53 -61l-44 -55l-52 63q-41 -32 -91 -32q-49 0 -90 32l-53 -63l-43 55l52 61q-26 49 -26 107q0 57 26 106zM116 329q0 -49 28.5 -83.5t69.5 -34.5
q42 0 70.5 34.5t28.5 83.5t-28.5 83t-70.5 34q-41 0 -69.5 -34t-28.5 -83z" />
    <glyph glyph-name="brokenbar" unicode="&#xa6;" horiz-adv-x="203" 
d="M131 675v-358h-61v358h61zM131 164v-359h-61v359h61z" />
    <glyph glyph-name="logicalnot" unicode="&#xac;" horiz-adv-x="455" 
d="M412 192h-64v199h-305v76h369v-275z" />
    <glyph glyph-name="plusminus" unicode="&#xb1;" horiz-adv-x="427" 
d="M181 118v182h-152v75h152v182h65v-182h150v-75h-150v-182h-65zM396 0h-367v76h367v-76z" />
    <glyph glyph-name="twosuperior" unicode="&#xb2;" horiz-adv-x="259" 
d="M9 332q2 26 19 52q23 38 78 86t64 61q15 18 15 38q0 22 -13 36t-38 14q-27 0 -38.5 -10.5t-20.5 -41.5l-57 8q11 50 38.5 73.5t77.5 23.5q57 0 84 -26.5t27 -65.5q0 -38 -23 -71q-16 -26 -77 -78q-33 -28 -45 -44h146v-55h-237z" />
    <glyph glyph-name="threesuperior" unicode="&#xb3;" horiz-adv-x="259" 
d="M13 421l54 6q8 -27 22 -36q15 -14 37 -14q28 0 44.5 18t16.5 42q0 23 -14 36.5t-48 13.5q-5 0 -11 -1h-10l10 49q31 0 44.5 13.5t13.5 33.5q0 17 -11.5 28.5t-34.5 11.5q-20 0 -31.5 -10t-20.5 -36l-55 10q17 48 40.5 67t66.5 19q57 0 82 -24t25 -60q0 -25 -13.5 -45
t-39.5 -27q34 -11 50 -34t16 -54q0 -41 -30.5 -72.5t-85.5 -31.5q-53 0 -81 25.5t-36 71.5z" />
    <glyph glyph-name="mu" unicode="&#xb5;" horiz-adv-x="448" 
d="M387 481v-481h-61v58q-20 -37 -40 -51q-26 -18 -61 -18q-32 0 -57 15q-17 11 -40 44v-233h-67v666h67v-204q0 -110 10 -143.5t32.5 -52.5t51.5 -19q30 0 54.5 20t34 52t9.5 141v206h67z" />
    <glyph glyph-name="onesuperior" unicode="&#xb9;" horiz-adv-x="259" 
d="M125 332v251q-38 -37 -84 -51v56q23 9 52 33t47 51h41v-340h-56z" />
    <glyph glyph-name="multiply" unicode="&#xd7;" horiz-adv-x="455" 
d="M61 186l120 142l-120 142l46 55l120 -141l121 141l44 -55l-119 -142l119 -141l-44 -56l-121 142l-120 -142z" />
    <glyph glyph-name="divide" unicode="&#xf7;" horiz-adv-x="427" 
d="M175 417v94h77v-94h-77zM396 290h-367v76h367v-76zM175 145v92h77v-92h-77z" />
    <glyph glyph-name="exclam" unicode="!" horiz-adv-x="268" 
d="M150 186h-40l-28 291v193h104v-190zM188 42q0 -23 -15 -38.5t-37 -15.5q-23 0 -38.5 15.5t-15.5 38.5q0 22 15.5 37t38.5 15q22 0 37 -15t15 -37z" />
  </font>
</defs>
</svg>
