<svg xmlns="http://www.w3.org/2000/svg" width="309" height="271" viewBox="0 0 309 271">
    <g fill="none" fill-rule="evenodd">
        <path fill="#171112" d="M70.18 89.727L27.404 77.129h-5.756C14.015 77.053 7.743 70.932 7.592 63.3l20.781-.982h.227a7.403 7.403 0 0 1 2.367.34l40.128 9.558 31.511-26.294a9.795 9.795 0 0 1 9.192-2.194h.151l50.63 13.602a9.925 9.925 0 0 1 5.522 3.86.35.35 0 0 1 .058.084c.078.113.154.228.227.344l22.894 34.07 41.054.404c1.216-.06 2.46.18 3.62.76l.152.075 6.196 3.25c6.726 3.551 9.446 11.864 6.046 18.74l-17.194-8.01-43.879 1.949c-.385.03-.771.036-1.155.015-3.413-.044-6.306-2.108-7.64-5.04l-21.658-28.799-13.95 51.945c.093.248.18.5.261.755.169.427.248.797.326 1.166l.105.133 13.276 57.988a12.411 12.411 0 0 1 1.202 4.24v.982l.89 57.177 6.289 2.294c6.12 2.267 10.201 8.011 10.352 14.434h-33.778V260.01l-8.196-58.43-.075-.208-16.396-45.18-7.558 39.084c.054.345.094.694.12 1.048.021.15.053.374-.001.534l.01.074.017 61.345c.041.342.062.69.062 1.043v10.73H76c.076-6.498 4.232-12.241 10.353-14.432l5.195-1.896-6.651-53.346a12.513 12.513 0 0 1-.769-5.387l4.272-62.734-.068-.155c.02-.377.04-.755.14-1.203.142-1.049.382-2.06.707-3.025.312-1.699.788-3.34 1.411-4.906l14.625-54.458L78.322 88.54a8.572 8.572 0 0 1-8.142 1.188zm52.122-72.674C125.627 4.736 138.247-2.518 150.49.807c12.317 3.325 19.572 15.944 16.247 28.186-3.326 12.317-15.945 19.572-28.187 16.247-12.242-3.25-19.572-15.87-16.247-28.187z"/>
        <g fill-rule="nonzero" stroke="#000" stroke-width="3">
            <path d="M191.5 134.5l13 12M192.337 145.393l11.556-10.5"/>
            <path fill="#F3F3F3" d="M176.224 143.5l-6.03 29.395a5.5 5.5 0 0 0 5.388 6.605h44.836a5.5 5.5 0 0 0 5.388-6.605l-6.03-29.395h-43.552z"/>
            <path fill="#BDD131" d="M173.5 139.5v.5a4.5 4.5 0 0 0 4.5 4.5h41a4.5 4.5 0 0 0 4.5-4.5v-.5h-50z"/>
            <g fill="#BDD131" transform="translate(186 126)">
                <ellipse cx="19.406" cy="4.5" rx="4.406" ry="4.5"/>
                <ellipse cx="4.482" cy="4.5" rx="4.482" ry="4.5"/>
            </g>
        </g>
        <g fill-rule="nonzero" stroke="#000" stroke-width="3">
            <path d="M272.5 134.5l13 12M273.337 145.393l11.556-10.5"/>
            <path fill="#F3F3F3" d="M257.224 143.5l-6.03 29.395a5.5 5.5 0 0 0 5.388 6.605h44.836a5.5 5.5 0 0 0 5.388-6.605l-6.03-29.395h-43.552z"/>
            <path fill="#BDD131" d="M254.5 139.5v.5a4.5 4.5 0 0 0 4.5 4.5h41a4.5 4.5 0 0 0 4.5-4.5v-.5h-50z"/>
            <g fill="#BDD131" transform="translate(267 126)">
                <ellipse cx="19.406" cy="4.5" rx="4.406" ry="4.5"/>
                <ellipse cx="4.482" cy="4.5" rx="4.482" ry="4.5"/>
            </g>
        </g>
        <g fill-rule="nonzero" stroke="#000" stroke-width="3">
            <path d="M232.5 149.5l13 12M233.337 160.393l11.556-10.5"/>
            <path fill="#F3F3F3" d="M217.224 158.5l-6.03 29.395a5.5 5.5 0 0 0 5.388 6.605h44.836a5.5 5.5 0 0 0 5.388-6.605l-6.03-29.395h-43.552z"/>
            <path fill="#BDD131" d="M214.5 154.5v.5a4.5 4.5 0 0 0 4.5 4.5h41a4.5 4.5 0 0 0 4.5-4.5v-.5h-50z"/>
            <g fill="#BDD131" transform="translate(227 141)">
                <ellipse cx="19.406" cy="4.5" rx="4.406" ry="4.5"/>
                <ellipse cx="4.482" cy="4.5" rx="4.482" ry="4.5"/>
            </g>
        </g>
        <path fill="#BDD131" stroke="#000" stroke-linecap="round" stroke-width="3" d="M6.912 42.822H3.364a1 1 0 0 1-.954-1.3l1.328-4.217h2.494c-.076-.831-.076-1.662-.076-2.569 0-1.134.076-2.191.151-3.098H3.533a1 1 0 0 1-.95-1.313l1.457-4.43h3.25c2.569-8.993 9.219-13.98 18.136-13.98 1.62 0 3.613.347 5.98 1.042a3 3 0 0 1 1.98 3.888l-.207.58a3 3 0 0 1-3.758 1.841c-1.687-.551-3.069-.81-4.146-.777-4.157 0-7.935 2.04-9.824 7.406h13.9a1 1 0 0 1 .953 1.3l-1.402 4.443h-14.66c-.076 1.209-.151 2.342-.151 3.551 0 .756 0 1.512.075 2.192H26.09a1 1 0 0 1 .952 1.308l-1.39 4.284H14.997c1.21 4.61 3.93 7.632 8.54 7.632 1.49.078 3.33-.59 5.522-2.007a3 3 0 0 1 3.75.398l.513.513a2.757 2.757 0 0 1-.471 4.278c-3.403 2.16-6.634 3.241-9.692 3.241-9.824 0-14.585-5.894-16.247-14.206z"/>
    </g>
</svg>
