<svg xmlns="http://www.w3.org/2000/svg" width="106" height="74" viewBox="0 0 106 74">
    <g fill="none" fill-rule="evenodd" stroke="#000">
        <path d="M97.602 49.167a1 1 0 0 0-1 1V72.5a1 1 0 0 0 1 1h5.898a1 1 0 0 0 1-1V50.167a1 1 0 0 0-1-1h-5.898zM92.322 73.5a1.5 1.5 0 0 0 1.5-1.5V49.762a2.5 2.5 0 0 0-.588-1.61l-9.372-11.119a1.5 1.5 0 0 0-1.147-.533h-4.682a.5.5 0 0 0-.46.694l4.168 9.89a1.5 1.5 0 0 1-1.383 2.083H63.332a1.5 1.5 0 0 0-1.415 1.997l7.258 20.664a2.5 2.5 0 0 0 2.359 1.672h20.788zM8.398 60.833a1 1 0 0 0 1-1V37.5a1 1 0 0 0-1-1H2.5a1 1 0 0 0-1 1v22.333a1 1 0 0 0 1 1h5.898zm5.28-24.333a1.5 1.5 0 0 0-1.5 1.5v22.238c0 .59.208 1.16.588 1.61l9.372 11.119a1.5 1.5 0 0 0 1.147.533h4.682a.5.5 0 0 0 .46-.694l-4.168-9.89a1.5 1.5 0 0 1 1.383-2.083h17.026a1.5 1.5 0 0 0 1.415-1.997l-7.258-20.664a2.5 2.5 0 0 0-2.359-1.672H13.678z"/>
        <path fill="#FFF" d="M70.5 36.932V2A1.5 1.5 0 0 0 69 .5H33A1.5 1.5 0 0 0 31.5 2v24a1.5 1.5 0 0 0 1.5 1.5h26.181L70.5 36.932z"/>
        <g fill="#D8D8D8" transform="translate(38 12)">
            <circle cx="2.191" cy="2.191" r="2.191"/>
            <circle cx="12.831" cy="2.191" r="2.191"/>
            <circle cx="23.472" cy="2.191" r="2.191"/>
        </g>
    </g>
</svg>
