<svg xmlns="http://www.w3.org/2000/svg" width="59" height="85" viewBox="0 0 59 85">
    <g fill="none" fill-rule="evenodd" stroke="#000">
        <path d="M14.02 8v5H2a1.5 1.5 0 0 0-1.5 1.5V83A1.5 1.5 0 0 0 2 84.5h55a1.5 1.5 0 0 0 1.5-1.5V14.5A1.5 1.5 0 0 0 57 13H44.98V8h-7.398l-.06-.43C36.954 3.533 33.542.5 29.5.5c-4.043 0-7.454 3.033-8.022 7.07l-.06.43H14.02z"/>
        <path fill="#FFF" d="M14.02 8v11.5h30.96V8h-7.398l-.06-.43C36.954 3.533 33.542.5 29.5.5c-4.043 0-7.454 3.033-8.022 7.07l-.06.43H14.02z"/>
        <path d="M7.375 35l5.326 5 10.653-10M7.375 52.5l5.326 5 10.653-10M7.375 70l5.326 5 10.653-10"/>
        <path stroke-linecap="square" d="M30.082 35.625h20.993M30.082 53.125h20.993M30.082 70.625h20.993"/>
    </g>
</svg>
