<svg xmlns="http://www.w3.org/2000/svg" width="172" height="102" viewBox="0 0 172 102">
    <g fill="none" fill-rule="evenodd" transform="translate(0 -1)">
        <path fill="#000" fill-opacity="0" fill-rule="nonzero" d="M.5.524h170.96V102.5H.5z"/>
        <rect width="121.711" height="12.149" x="23.937" y="16.826" fill="#FFF" fill-rule="nonzero" stroke="#000" rx="6.074" transform="rotate(-15 84.792 22.901)"/>
        <path fill="#000" fill-opacity="0" fill-rule="nonzero" d="M107.475 7.522h63.985v65.985h-63.985z"/>
        <path fill="#FFF" fill-rule="nonzero" stroke="#000" d="M171.46 54.511c0 25.328-63.985 25.328-63.985 0h63.985z"/>
        <path stroke="#000" d="M108.057 54.226L139.05 7.247m31.997 47.546L139.054 7.804"/>
        <path fill="#000" fill-opacity="0" fill-rule="nonzero" d="M126.47 27.518h24.994v22.994H126.47z"/>
        <path fill="#000" fill-opacity="0" fill-rule="nonzero" d="M127.962 42.08h22.383v8.432h-22.383z"/>
        <path fill="#D8D8D8" fill-rule="nonzero" stroke="#000" d="M149.845 47.83c0 .074-.078.299-.626.609-.508.288-1.276.564-2.268.801-1.977.474-4.734.772-7.797.772-3.063 0-5.82-.298-7.797-.772-.992-.237-1.76-.513-2.268-.801-.548-.31-.626-.535-.626-.61v-2.566h21.382v2.567z"/>
        <path fill="#FFF" fill-rule="nonzero" stroke="#000" d="M149.845 44.764c0 .074-.078.299-.626.609-.508.288-1.276.564-2.268.802-1.977.473-4.734.772-7.797.772-3.063 0-5.82-.299-7.797-.773-.993-.237-1.761-.513-2.269-.801-.547-.31-.626-.535-.626-.61 0-.073.079-.298.626-.609.508-.288 1.276-.563 2.269-.801 1.977-.474 4.734-.772 7.797-.772 3.063 0 5.82.298 7.797.772.992.238 1.76.514 2.268.801.548.31.626.535.626.61z"/>
        <path fill="#000" fill-opacity="0" fill-rule="nonzero" d="M126.47 37.099h22.383v8.43H126.47z"/>
        <path fill="#D8D8D8" fill-rule="nonzero" stroke="#000" d="M148.353 42.847c0 .075-.078.3-.626.61-.508.288-1.276.563-2.268.801-1.977.474-4.734.772-7.797.772-3.063 0-5.82-.298-7.797-.772-.993-.238-1.761-.513-2.269-.801-.547-.31-.626-.535-.626-.61v-2.566h21.383v2.566z"/>
        <path fill="#FFF" fill-rule="nonzero" stroke="#000" d="M148.353 39.782c0 .074-.078.299-.626.609-.508.288-1.276.564-2.268.801-1.977.474-4.734.772-7.797.772-3.063 0-5.82-.298-7.797-.772-.993-.237-1.761-.513-2.269-.801-.547-.31-.626-.535-.626-.61 0-.074.079-.298.626-.609.508-.288 1.276-.563 2.269-.801 1.977-.474 4.734-.772 7.797-.772 3.063 0 5.82.298 7.797.772.992.238 1.76.513 2.268.801.548.31.626.535.626.61z"/>
        <path fill="#000" fill-opacity="0" fill-rule="nonzero" d="M129.082 32.5h22.383v8.43h-22.383z"/>
        <path fill="#D8D8D8" fill-rule="nonzero" stroke="#000" d="M150.965 38.248c0 .075-.079.3-.626.61-.508.288-1.276.563-2.269.801-1.977.474-4.734.772-7.797.772-3.063 0-5.82-.298-7.797-.772-.992-.238-1.76-.513-2.268-.801-.548-.31-.626-.535-.626-.61v-2.566h21.383v2.566z"/>
        <path fill="#FFF" fill-rule="nonzero" stroke="#000" d="M150.965 35.183c0 .074-.079.299-.626.609-.508.288-1.276.563-2.269.801-1.977.474-4.734.772-7.797.772-3.063 0-5.82-.298-7.797-.772-.992-.238-1.76-.513-2.268-.801-.548-.31-.626-.535-.626-.61 0-.074.078-.298.626-.609.508-.288 1.276-.563 2.268-.801 1.977-.474 4.734-.772 7.797-.772 3.063 0 5.82.298 7.797.772.993.238 1.761.513 2.269.801.547.31.626.535.626.61z"/>
        <path fill="#000" fill-opacity="0" fill-rule="nonzero" d="M126.47 27.518h22.383v8.43H126.47z"/>
        <path fill="#D8D8D8" fill-rule="nonzero" stroke="#000" d="M148.353 33.266c0 .075-.078.3-.626.61-.508.287-1.276.563-2.268.801-1.977.474-4.734.772-7.797.772-3.063 0-5.82-.298-7.797-.772-.993-.238-1.761-.514-2.269-.801-.547-.31-.626-.535-.626-.61V30.7h21.383v2.566z"/>
        <path fill="#FFF" fill-rule="nonzero" stroke="#000" d="M148.353 30.2c0 .075-.078.3-.626.61-.508.288-1.276.563-2.268.801-1.977.474-4.734.772-7.797.772-3.063 0-5.82-.298-7.797-.772-.993-.238-1.761-.513-2.269-.801-.547-.31-.626-.535-.626-.61 0-.074.079-.299.626-.609.508-.288 1.276-.564 2.269-.801 1.977-.474 4.734-.772 7.797-.772 3.063 0 5.82.298 7.797.772.992.238 1.76.513 2.268.801.548.31.626.535.626.61V30.2z"/>
        <path fill="#000" fill-opacity="0" fill-rule="nonzero" d="M.5 36.516h63.985V102.5H.5z"/>
        <path fill="#FFF" fill-rule="nonzero" stroke="#000" d="M64.485 83.505c0 25.327-63.985 25.327-63.985 0h63.985z"/>
        <path stroke="#000" d="M1.082 83.219L32.075 36.24m31.997 47.546L32.079 36.797"/>
        <path fill="#000" fill-opacity="0" fill-rule="nonzero" d="M23.494 51.512h17.33v28.059h-17.33z"/>
        <path fill="#FFF" stroke="#000" d="M39.17 65.08a8.6 8.6 0 0 0 1.654-5.04c0-4.728-3.859-8.528-8.665-8.528-4.804 0-8.665 3.798-8.665 8.528a8.6 8.6 0 0 0 1.655 5.04l.078.077c.158.233.394.465.55.698 1.104 1.318 3.23 4.186 3.23 6.59h6.303c0-2.404 2.126-5.273 3.23-6.59.236-.233.394-.465.55-.698 0 .002.08-.077.08-.077z"/>
        <path stroke="#000" d="M28.462 74.572h7.348m-7.348 2h7.348m-6.348 1.999h5.349"/>
    </g>
</svg>
