<?xml version="1.0" encoding="utf-8"?>
<!-- Generator: Adobe Illustrator 16.0.0, SVG Export Plug-In . SVG Version: 6.00 Build 0)  -->
<!DOCTYPE svg PUBLIC "-//W3C//DTD SVG 1.1//EN" "http://www.w3.org/Graphics/SVG/1.1/DTD/svg11.dtd">
<svg version="1.1" id="Layer_1" xmlns="http://www.w3.org/2000/svg" xmlns:xlink="http://www.w3.org/1999/xlink" x="0px" y="0px"
	 width="74px" height="74px" viewBox="0 0 74 74" enable-background="new 0 0 74 74" xml:space="preserve">
<g>
	<g transform="translate(60 44)">
		<path fill="#FFFFFF" stroke="#000000" stroke-width="3" d="M-45.605-41.696H1.191c1.488,0,2.692,1.205,2.692,2.69v64.011
			c0,1.487-1.204,2.691-2.692,2.691h-46.796c-1.485,0-2.689-1.204-2.689-2.691v-64.011C-48.294-40.491-47.09-41.696-45.605-41.696z"
			/>
		<path fill="#BED300" stroke="#BED300" stroke-width="2" d="M-35.96-25.422l9.137-9.072l2.535,2.517L-35.96-20.386l-6.755-6.709
			l2.535-2.519L-35.96-25.422z M-35.96-4.981l9.137-9.073l2.535,2.517L-35.96,0.056l-6.755-6.708l2.535-2.519L-35.96-4.981z
			 M-35.96,15.46l9.137-9.074l2.535,2.521l-11.671,11.589l-6.756-6.707l2.536-2.518L-35.96,15.46z"/>
		<g>
			<path d="M-17.902-31.206h16.139v1.614h-16.139V-31.206z M-17.902-25.289h16.139v1.614h-16.139V-25.289z"/>
		</g>
		<g>
			<path d="M-17.902-10.766h16.139v1.613h-16.139V-10.766z M-17.902-4.849h16.139v1.613h-16.139V-4.849z"/>
		</g>
		<g>
			<path d="M-17.902,9.677h16.139v1.612h-16.139V9.677z M-17.902,15.593h16.139v1.613h-16.139V15.593z"/>
		</g>
	</g>
</g>
</svg>
