<svg xmlns="http://www.w3.org/2000/svg" width="98" height="75" viewBox="0 0 98 75">
    <g fill="none" fill-rule="nonzero" transform="translate(2 1)">
        <circle cx="59.5" cy="22.5" r="4.5" fill="#EA1D25"/>
        <circle cx="74.5" cy="22.5" r="4.5" fill="#EA1D25"/>
        <g stroke="#000" stroke-width="3">
            <path d="M45.217 37.5l-5.21 24.749A8.5 8.5 0 0 0 48.324 72.5h37.352a8.5 8.5 0 0 0 8.317-10.251L88.783 37.5H45.217z"/>
            <path fill="#EA1D25" d="M42.5 31.5V33a4.5 4.5 0 0 0 4.5 4.5h41a4.5 4.5 0 0 0 4.5-4.5v-1.5h-50z"/>
            <path d="M72.157 26.343A4.5 4.5 0 1 1 74.5 27c-.858 0-1.66-.24-2.343-.657l-5.404 5.404 5.404-5.404zM61.521 26.521a4.5 4.5 0 1 1 0 0l4.875 4.875-4.875-4.875z"/>
        </g>
        <g stroke="#000" stroke-linecap="round" stroke-width="3">
            <path d="M16.897 1.207C7.681-.84 3.072 2.413 3.072 10.97s4.609 11.96 13.825 10.207M0 8.352h13.825M0 13.496h12.289"/>
        </g>
        <g stroke="#000" stroke-linecap="round" stroke-width="3">
            <path d="M31 32.48c-7.333-1.657-11 .976-11 7.9 0 6.923 3.667 9.676 11 8.258M17 38.5h11M17 42.5h10"/>
        </g>
    </g>
</svg>
