<?xml version="1.0" encoding="utf-8"?>
<!-- Generator: Adobe Illustrator 16.0.0, SVG Export Plug-In . SVG Version: 6.00 Build 0)  -->
<!DOCTYPE svg PUBLIC "-//W3C//DTD SVG 1.1//EN" "http://www.w3.org/Graphics/SVG/1.1/DTD/svg11.dtd">
<svg version="1.1" id="Layer_1" xmlns="http://www.w3.org/2000/svg" xmlns:xlink="http://www.w3.org/1999/xlink" x="0px" y="0px"
	 width="74px" height="74px" viewBox="0 0 74 74" enable-background="new 0 0 74 74" xml:space="preserve">
<g>
	<g transform="translate(60 44)">
		<path fill="#FFFFFF" stroke="#000000" stroke-width="3" d="M-45.605-41.652H1.192c1.487,0,2.692,1.205,2.692,2.69v64.011
			c0,1.487-1.205,2.691-2.692,2.691h-46.797c-1.485,0-2.689-1.204-2.689-2.691v-64.011C-48.294-40.447-47.09-41.652-45.605-41.652z"
			/>
		<path stroke="#000000" stroke-width="2" d="M-35.96-25.378l9.137-9.072l2.535,2.517L-35.96-20.342l-6.755-6.709l2.535-2.519
			L-35.96-25.378z M-35.96-4.937l9.137-9.073l2.535,2.517L-35.96,0.099l-6.755-6.708l2.535-2.519L-35.96-4.937z M-35.96,15.504
			l9.137-9.074l2.535,2.52l-11.671,11.589l-6.756-6.707l2.536-2.518L-35.96,15.504z"/>
		<g>
			<path d="M-17.903-31.162h16.139v1.614h-16.139V-31.162z M-17.903-25.245h16.139v1.614h-16.139V-25.245z"/>
		</g>
		<g>
			<path d="M-17.903-10.722h16.139v1.613h-16.139V-10.722z M-17.903-4.804h16.139v1.613h-16.139V-4.804z"/>
		</g>
		<g>
			<path d="M-17.903,9.72h16.139v1.613h-16.139V9.72z M-17.903,15.637h16.139v1.613h-16.139V15.637z"/>
		</g>
	</g>
</g>
</svg>
