<?xml version="1.0" encoding="utf-8"?>
<!-- Generator: Adobe Illustrator 16.0.0, SVG Export Plug-In . SVG Version: 6.00 Build 0)  -->
<!DOCTYPE svg PUBLIC "-//W3C//DTD SVG 1.1//EN" "http://www.w3.org/Graphics/SVG/1.1/DTD/svg11.dtd">
<svg version="1.1" id="Layer_1" xmlns="http://www.w3.org/2000/svg" xmlns:xlink="http://www.w3.org/1999/xlink" x="0px" y="0px"
	 width="220px" height="220px" viewBox="0 0 220 220" enable-background="new 0 0 220 220" xml:space="preserve">
<g>
	<path fill="#FFFFFF" d="M110,0L110,0c60.752,0,110,49.249,110,110l0,0c0,60.752-49.248,110-110,110l0,0C49.249,220,0,170.752,0,110
		l0,0C0,49.249,49.249,0,110,0z"/>
	<g transform="translate(60 44)">
		<path fill="#FFFFFF" stroke="#000000" stroke-width="3" d="M6.531,1.453h87c2.762,0,5,2.239,5,5v119c0,2.762-2.238,5-5,5h-87
			c-2.761,0-5-2.238-5-5v-119C1.531,3.692,3.77,1.453,6.531,1.453z"/>
		<path fill="#F3F3F3" stroke="#000000" stroke-width="3" d="M24.461,31.705l16.985-16.866l4.714,4.68L24.461,41.068l-12.56-12.473
			l4.714-4.681L24.461,31.705z M24.461,69.705l16.985-16.866l4.714,4.68L24.461,79.068l-12.56-12.473l4.714-4.682L24.461,69.705z
			 M24.461,107.705L41.446,90.84l4.714,4.68l-21.698,21.547l-12.56-12.471l4.714-4.682L24.461,107.705z"/>
		<g>
			<path d="M58.031,20.953h30v3h-30V20.953z M58.031,31.953h30v3h-30V31.953z"/>
		</g>
		<g>
			<path d="M58.031,58.953h30v3h-30V58.953z M58.031,69.953h30v3h-30V69.953z"/>
		</g>
		<g>
			<path d="M58.031,96.953h30v3h-30V96.953z M58.031,107.953h30v3h-30V107.953z"/>
		</g>
	</g>
</g>
</svg>
