<?xml version="1.0" encoding="UTF-8"?>
<!-- Generator: Adobe Illustrator 16.0.0, SVG Export Plug-In . SVG Version: 6.00 Build 0)  -->
<!DOCTYPE svg PUBLIC "-//W3C//DTD SVG 1.1//EN" "http://www.w3.org/Graphics/SVG/1.1/DTD/svg11.dtd">
<svg version="1.1" id="Layer_1" xmlns="http://www.w3.org/2000/svg" xmlns:xlink="http://www.w3.org/1999/xlink" x="0px" y="0px" width="220px" height="220px" viewBox="0 0 220 220" enable-background="new 0 0 220 220" xml:space="preserve">
<g>
	<path fill="#FFFFFF" d="M110,0L110,0c60.752,0,110,49.249,110,110l0,0c0,60.752-49.248,110-110,110l0,0C49.249,220,0,170.752,0,110   l0,0C0,49.249,49.249,0,110,0z"/>
	<g transform="translate(37 55)">
		<circle fill="#F3F3F3" cx="88.445" cy="33.446" r="6.689"/>
		<circle fill="#F3F3F3" cx="110.743" cy="33.446" r="6.689"/>
		<g>
			<path fill="none" stroke="#000000" stroke-width="3" d="M66.622,55.014L57.52,98.249c-0.967,4.594,1.973,9.102,6.567,10.069     c0.576,0.121,1.163,0.182,1.751,0.182h67.514c4.693,0,8.5-3.805,8.5-8.5c0-0.588-0.062-1.176-0.183-1.751l-9.103-43.235H66.622z"/>
			<path fill="#F3F3F3" stroke="#000000" stroke-width="3" d="M62.446,46.095v5.878c0,2.485,2.015,4.5,4.5,4.5h66.785     c2.484,0,4.5-2.014,4.5-4.5v-5.878H62.446z"/>
			<path fill="none" stroke="#000000" stroke-width="3" d="M107.285,39.173c-3.164-1.909-4.181-6.021-2.271-9.184     c1.908-3.164,6.021-4.181,9.184-2.272c3.164,1.909,4.182,6.021,2.271,9.185c-1.21,2.006-3.383,3.233-5.726,3.233     C109.523,40.137,108.328,39.804,107.285,39.173L100.5,46.5L107.285,39.173z"/>
			<path fill="none" stroke="#000000" stroke-width="3" d="M98.689,46.5l-6.785-7.327c-1.043,0.631-2.238,0.964-3.458,0.962     c-2.343,0-4.516-1.227-5.726-3.233c-1.91-3.164-0.893-7.275,2.271-9.185c3.163-1.909,7.275-0.892,9.184,2.272     c1.909,3.164,0.893,7.275-2.271,9.184L98.689,46.5z"/>
		</g>
		<g>
			<path fill="none" stroke="#000000" stroke-width="3" stroke-linecap="round" d="M25.118,1.794     C11.418-1.25,4.567,3.587,4.567,16.307c0,12.72,6.85,17.777,20.55,15.172 M0,12.415h20.55 M0,20.062h18.267"/>
		</g>
		<g>
			<path fill="none" stroke="#000000" stroke-width="3" stroke-linecap="round" d="M46.081,48.281     c-10.9-2.463-16.351,1.451-16.351,11.742c0,10.293,5.45,14.385,16.35,12.276 M25.27,57.23h16.352 M25.27,63.176h14.865"/>
		</g>
	</g>
</g>
</svg>