<svg xmlns="http://www.w3.org/2000/svg" width="220" height="220" viewBox="0 0 220 220">
    <g fill="none" fill-rule="evenodd">
        <rect width="220" height="220" fill="#FFF" fill-rule="nonzero" rx="110"/>
        <g fill-rule="nonzero" stroke="#000" stroke-width="2.419">
            <path fill="#F3F3F3" d="M45.21 101.992V164a4.79 4.79 0 0 0 4.79 4.79h120a4.79 4.79 0 0 0 4.79-4.79v-62.008L110 64.942l-64.79 37.05z"/>
            <path fill="#FFF" d="M63.651 51.21h92.698v100.161H63.651z"/>
            <path fill="#F3F3F3" d="M45.21 103.429V164a4.79 4.79 0 0 0 4.79 4.79h120a4.79 4.79 0 0 0 4.79-4.79v-60.571L110 142.379l-64.79-38.95z"/>
        </g>
        <path fill="#171112" d="M89.6 79.45l-10.562-3.124h-1.421a3.509 3.509 0 0 1-3.47-3.43l5.13-.243h.056c.204-.004.4.026.585.084l9.908 2.37 7.78-6.52a2.411 2.411 0 0 1 2.27-.544h.037l12.502 3.373a2.45 2.45 0 0 1 1.433 1.063l5.653 8.449 10.137.1c.3-.015.608.045.894.188l.037.02 1.53.805a3.51 3.51 0 0 1 1.493 4.647l-4.245-1.986-10.835.483a2.13 2.13 0 0 1-.285.004 2.103 2.103 0 0 1-1.886-1.25l-5.348-7.141-3.79 14.175.23 14.81c.003.126-.002.25-.014.374l.215 13.841 1.553.569a3.923 3.923 0 0 1 2.556 3.579h-8.34v-2.513l-2.146-15.364v-.018c-.019-.038-.019-.094-.019-.131v-.01l-.54-3.888-.56 4.029a3.14 3.14 0 0 1-.064.337l-2.12 15.178v2.399h-8.34a3.858 3.858 0 0 1 2.556-3.58l1.552-.568.22-14.197v-.038c0-.075 0-.13.02-.206l.003-.036.239-15.33h-.019v-.224c.013-.81.173-1.583.455-2.294l3.61-13.504-6.64 4.967a2.11 2.11 0 0 1-2.01.295zm12.87-18.021c.82-3.055 3.937-4.853 6.96-4.029a5.699 5.699 0 0 1 4.01 6.99c-.82 3.054-3.936 4.853-6.959 4.028-3.022-.806-4.832-3.935-4.011-6.99z"/>
        <path fill="#231F20" d="M116 100.4h33.6v-1.2H116z"/>
        <g fill-rule="nonzero" stroke="#000">
            <path fill="#F6F7F7" d="M116.5 92.5v.7a4.3 4.3 0 0 0 8.6 0v-.7h-8.6z"/>
            <path d="M115.924 91.3a.5.5 0 0 0 .476.345h8.8a.5.5 0 0 0 .476-.345h-9.752z"/>
            <g stroke-width=".75">
                <path d="M119.475 90.127a.9.9 0 1 1 0 0l.545 1.273-.545-1.273zM122.102 90.127l-.546 1.273.546-1.273a.9.9 0 1 0 0 0z"/>
            </g>
        </g>
        <g fill-rule="nonzero" stroke="#000">
            <path fill="#F6F7F7" d="M128.5 92.5v.7a4.3 4.3 0 0 0 8.6 0v-.7h-8.6z"/>
            <path d="M127.924 91.3a.5.5 0 0 0 .476.345h8.8a.5.5 0 0 0 .476-.345h-9.752z"/>
            <g stroke-width=".75">
                <path d="M131.475 90.127l.545 1.273-.545-1.273a.9.9 0 1 1 0 0zM134.102 90.127a.9.9 0 1 0 0 0l-.546 1.273.546-1.273z"/>
            </g>
        </g>
        <g fill-rule="nonzero" stroke="#000">
            <path fill="#F6F7F7" d="M140.5 92.5v.7a4.3 4.3 0 0 0 8.6 0v-.7h-8.6z"/>
            <path d="M139.924 91.3a.5.5 0 0 0 .476.345h8.8a.5.5 0 0 0 .476-.345h-9.752z"/>
            <g stroke-width=".75">
                <path d="M143.475 90.127l.545 1.273-.545-1.273a.9.9 0 1 1 0 0zM146.102 90.127a.9.9 0 1 0 0 0l-.546 1.273.546-1.273z"/>
            </g>
        </g>
        <g fill-rule="nonzero" stroke="#000" stroke-linecap="round" stroke-width="1.5">
            <path d="M82.07 57.787c-4.402-.996-6.603.587-6.603 4.75s2.2 5.818 6.602 4.965M74 61.263h6.602M74 63.766h5.869"/>
        </g>
    </g>
</svg>
