<svg xmlns="http://www.w3.org/2000/svg" viewBox="0 0 1429.787 29.787"><defs><style>.cls-1{fill:#f6f6f6;}</style></defs><title>stemformulier-kartelrand</title><g id="Layer_2" data-name="Layer 2"><g id="Layer_1-2" data-name="Layer 1"><rect class="cls-1" x="4.362" y="4.362" width="21.063" height="21.063" transform="translate(-6.169 14.894) rotate(-45)"/><rect class="cls-1" x="34.149" y="4.362" width="21.063" height="21.063" transform="translate(2.555 35.956) rotate(-45)"/><rect class="cls-1" x="63.937" y="4.362" width="21.063" height="21.063" transform="translate(11.28 57.019) rotate(-45)"/><rect class="cls-1" x="93.724" y="4.362" width="21.063" height="21.063" transform="translate(20.004 78.082) rotate(-45)"/><rect class="cls-1" x="123.511" y="4.362" width="21.063" height="21.063" transform="translate(28.729 99.145) rotate(-45)"/><rect class="cls-1" x="153.298" y="4.362" width="21.063" height="21.063" transform="translate(37.454 120.208) rotate(-45)"/><rect class="cls-1" x="183.086" y="4.362" width="21.063" height="21.063" transform="translate(46.178 141.27) rotate(-45)"/><rect class="cls-1" x="212.873" y="4.362" width="21.063" height="21.063" transform="translate(54.903 162.333) rotate(-45)"/><rect class="cls-1" x="242.66" y="4.362" width="21.063" height="21.063" transform="translate(63.627 183.396) rotate(-45)"/><rect class="cls-1" x="272.447" y="4.362" width="21.063" height="21.063" transform="translate(72.352 204.459) rotate(-45)"/><rect class="cls-1" x="302.235" y="4.362" width="21.063" height="21.063" transform="translate(81.076 225.522) rotate(-45)"/><rect class="cls-1" x="332.022" y="4.362" width="21.063" height="21.063" transform="translate(89.801 246.584) rotate(-45)"/><rect class="cls-1" x="361.809" y="4.362" width="21.063" height="21.063" transform="translate(98.525 267.647) rotate(-45)"/><rect class="cls-1" x="391.596" y="4.362" width="21.063" height="21.063" transform="translate(107.25 288.71) rotate(-45)"/><rect class="cls-1" x="421.384" y="4.362" width="21.063" height="21.063" transform="translate(115.974 309.773) rotate(-45)"/><rect class="cls-1" x="451.171" y="4.362" width="21.063" height="21.063" transform="translate(124.699 330.836) rotate(-45)"/><rect class="cls-1" x="480.958" y="4.362" width="21.063" height="21.063" transform="translate(133.423 351.898) rotate(-45)"/><rect class="cls-1" x="510.745" y="4.362" width="21.063" height="21.063" transform="translate(142.148 372.961) rotate(-45)"/><rect class="cls-1" x="540.532" y="4.362" width="21.063" height="21.063" transform="translate(150.872 394.024) rotate(-45)"/><rect class="cls-1" x="570.32" y="4.362" width="21.063" height="21.063" transform="translate(159.597 415.087) rotate(-45)"/><rect class="cls-1" x="600.107" y="4.362" width="21.063" height="21.063" transform="translate(168.321 436.15) rotate(-45)"/><rect class="cls-1" x="629.894" y="4.362" width="21.063" height="21.063" transform="translate(177.046 457.212) rotate(-45)"/><rect class="cls-1" x="659.681" y="4.362" width="21.063" height="21.063" transform="translate(185.77 478.275) rotate(-45)"/><rect class="cls-1" x="689.469" y="4.362" width="21.063" height="21.063" transform="translate(194.496 499.339) rotate(-45)"/><rect class="cls-1" x="719.256" y="4.362" width="21.063" height="21.063" transform="translate(203.219 520.401) rotate(-45)"/><rect class="cls-1" x="749.043" y="4.362" width="21.063" height="21.063" transform="translate(211.944 541.464) rotate(-45)"/><rect class="cls-1" x="778.83" y="4.362" width="21.063" height="21.063" transform="translate(220.67 562.528) rotate(-45)"/><rect class="cls-1" x="808.618" y="4.362" width="21.063" height="21.063" transform="translate(229.392 583.588) rotate(-45)"/><rect class="cls-1" x="838.405" y="4.362" width="21.063" height="21.063" transform="translate(238.119 604.653) rotate(-45)"/><rect class="cls-1" x="868.192" y="4.362" width="21.063" height="21.063" transform="translate(246.841 625.714) rotate(-45)"/><rect class="cls-1" x="897.979" y="4.362" width="21.063" height="21.063" transform="translate(255.568 646.779) rotate(-45)"/><rect class="cls-1" x="927.767" y="4.362" width="21.063" height="21.063" transform="translate(264.29 667.839) rotate(-45)"/><rect class="cls-1" x="957.554" y="4.362" width="21.063" height="21.063" transform="translate(273.017 688.905) rotate(-45)"/><rect class="cls-1" x="987.341" y="4.362" width="21.063" height="21.063" transform="translate(281.739 709.965) rotate(-45)"/><rect class="cls-1" x="1017.128" y="4.362" width="21.063" height="21.063" transform="translate(290.466 731.03) rotate(-45)"/><rect class="cls-1" x="1046.915" y="4.362" width="21.063" height="21.063" transform="translate(299.188 752.09) rotate(-45)"/><rect class="cls-1" x="1076.703" y="4.362" width="21.063" height="21.063" transform="translate(307.915 773.156) rotate(-45)"/><rect class="cls-1" x="1106.49" y="4.362" width="21.063" height="21.063" transform="translate(316.637 794.216) rotate(-45)"/><rect class="cls-1" x="1136.277" y="4.362" width="21.063" height="21.063" transform="translate(325.364 815.282) rotate(-45)"/><rect class="cls-1" x="1166.064" y="4.362" width="21.063" height="21.063" transform="translate(334.086 836.341) rotate(-45)"/><rect class="cls-1" x="1195.852" y="4.362" width="21.063" height="21.063" transform="translate(342.814 857.407) rotate(-45)"/><rect class="cls-1" x="1225.639" y="4.362" width="21.063" height="21.063" transform="translate(351.535 878.467) rotate(-45)"/><rect class="cls-1" x="1255.426" y="4.362" width="21.063" height="21.063" transform="translate(360.263 899.533) rotate(-45)"/><rect class="cls-1" x="1285.213" y="4.362" width="21.063" height="21.063" transform="translate(368.983 920.592) rotate(-45)"/><rect class="cls-1" x="1315.001" y="4.362" width="21.063" height="21.063" transform="translate(377.712 941.659) rotate(-45)"/><rect class="cls-1" x="1344.788" y="4.362" width="21.063" height="21.063" transform="translate(386.432 962.718) rotate(-45)"/><rect class="cls-1" x="1374.575" y="4.362" width="21.063" height="21.063" transform="translate(395.161 983.784) rotate(-45)"/><rect class="cls-1" x="1404.362" y="4.362" width="21.063" height="21.063" transform="translate(403.881 1004.843) rotate(-45)"/></g></g></svg>