<svg xmlns="http://www.w3.org/2000/svg" viewBox="0 0 24.857 24.833"><defs><style>.cls-1{fill:#004699;}</style></defs><title>stemtool asset-bewerk knop-potlood</title><g id="Layer_2" data-name="Layer 2"><g id="Layer_1-2" data-name="Layer 1"><path class="cls-1" d="M2.193,19.321l.015.017a1.407,1.407,0,0,0-.475.59L.073,23.992a.639.639,0,0,0,.064.7.564.564,0,0,0,.524.119.965.965,0,0,0,.179-.055L4.908,23.1a1.416,1.416,0,0,0,.59-.475l.015.015L6.06,22.1,2.739,18.774Z"/><rect class="cls-1" x="2.931" y="10.08" width="18.868" height="4.779" transform="translate(-5.196 12.394) rotate(-44.994)"/><path class="cls-1" d="M24.591,2.651,22.28.34c-.428-.428-.719-.446-1.076-.089L18.7,2.76l3.379,3.379L24.6,3.616A.575.575,0,0,0,24.591,2.651Z"/></g></g></svg>