<svg xmlns="http://www.w3.org/2000/svg" viewBox="0 0 18.75 18.75"><defs><style>.cls-1{fill:#434343;}</style></defs><title>stemtool asset-headerfoto-vergroot icoon-PIJLTJES</title><g id="Layer_2" data-name="Layer 2"><g id="Layer_1-2" data-name="Layer 1"><path class="cls-1" d="M18.748.759c0-.013,0-.026,0-.039s0-.033-.007-.049l0-.028L18.723.594,18.716.568C18.711.552,18.7.537,18.7.521L18.69.494c-.006-.015-.013-.028-.02-.042L18.656.423a.326.326,0,0,0-.024-.04L18.616.356a.471.471,0,0,0-.033-.045L18.57.293A.862.862,0,0,0,18.457.18L18.439.167a.471.471,0,0,0-.045-.033L18.367.117c-.013-.008-.026-.016-.04-.023L18.3.08c-.014-.007-.027-.014-.042-.02L18.228.05,18.182.034,18.156.027,18.107.015l-.028,0L18.03,0l-.038,0-.04,0h-6.06A.764.764,0,0,0,11.2.4a.806.806,0,0,0,.7,1.2h4.125l-5.7,5.7a.784.784,0,0,0-.184.851.808.808,0,0,0,.749.511.8.8,0,0,0,.564-.234l5.7-5.7V6.859a.763.763,0,0,0,.4.691.806.806,0,0,0,1.2-.7V.8C18.75.785,18.749.772,18.748.759Z"/><path class="cls-1" d="M8.072,10.115a.764.764,0,0,0-.772.206L1.6,16.026V11.892a.764.764,0,0,0-.4-.692.806.806,0,0,0-1.2.7v6.051c0,.014,0,.027,0,.04s0,.025,0,.038,0,.033.007.049l0,.028.012.049.007.026c0,.016.011.031.016.046l.01.028c.006.015.013.028.02.042l.014.029c.007.014.015.027.023.04l.017.027a.471.471,0,0,0,.033.045l.013.018a.862.862,0,0,0,.113.113l.019.014.044.032.028.017c.013.008.025.016.039.023l.031.015c.013.006.026.013.039.018l.032.012.042.015.033.008.042.011.041.006.036,0a.7.7,0,0,0,.079,0h6.06a.763.763,0,0,0,.692-.4.806.806,0,0,0-.7-1.2H2.724l5.7-5.7A.805.805,0,0,0,8.072,10.115Z"/></g></g></svg>