<svg xmlns="http://www.w3.org/2000/svg" viewBox="0 0 98.761 68.271"><defs><style>.cls-1{fill:#ec1c24;}</style></defs><title>Logo-gemeenteams-webapplicaties</title><g id="Layer_2" data-name="Layer 2"><g id="Layer_1-2" data-name="Layer 1"><path class="cls-1" d="M38.63,8.809a8.012,8.012,0,0,1-3.829.915A4.635,4.635,0,0,1,29.912,4.9,4.655,4.655,0,0,1,34.8,0a5.28,5.28,0,0,1,3.646,1.163L37.232,2.392a3.5,3.5,0,0,0-2.418-.9A3.138,3.138,0,0,0,31.638,4.8a3.176,3.176,0,0,0,3.176,3.437,4.433,4.433,0,0,0,2.169-.484V5.568H35.088V4.078H38.63Z"/><path class="cls-1" d="M41.688,6.9a1.626,1.626,0,0,0,1.686,1.49,2.06,2.06,0,0,0,1.686-.85l1.124.85A3.42,3.42,0,0,1,40.12,6.352a3.252,3.252,0,0,1,3.411-3.294c1.752,0,2.941,1.229,2.941,3.412V6.9ZM44.9,5.725a1.444,1.444,0,0,0-1.6-1.49,1.56,1.56,0,0,0-1.621,1.49Z"/><path class="cls-1" d="M47.87,3.215h1.49V4.2h.027a1.993,1.993,0,0,1,1.921-1.137,1.913,1.913,0,0,1,1.96,1.164,2.184,2.184,0,0,1,2.065-1.164c1.673,0,2.261,1.19,2.261,2.693V9.489H56.026V5.934c0-.785-.235-1.464-1.163-1.464-.98,0-1.346.81-1.346,1.62v3.4H51.948V5.751c0-.771-.313-1.281-1.072-1.281a1.406,1.406,0,0,0-1.437,1.594V9.489H47.87Z"/><path class="cls-1" d="M60.561,6.9a1.626,1.626,0,0,0,1.686,1.49,2.062,2.062,0,0,0,1.686-.85l1.124.85a3.42,3.42,0,0,1-6.064-2.039A3.252,3.252,0,0,1,62.4,3.058c1.751,0,2.941,1.229,2.941,3.412V6.9Zm3.215-1.176a1.443,1.443,0,0,0-1.594-1.49,1.56,1.56,0,0,0-1.621,1.49Z"/><path class="cls-1" d="M68.063,6.9a1.626,1.626,0,0,0,1.686,1.49,2.062,2.062,0,0,0,1.686-.85l1.124.85A3.42,3.42,0,0,1,66.5,6.352a3.252,3.252,0,0,1,3.411-3.294c1.751,0,2.941,1.229,2.941,3.412V6.9Zm3.215-1.176a1.443,1.443,0,0,0-1.594-1.49,1.56,1.56,0,0,0-1.621,1.49Z"/><path class="cls-1" d="M74.311,3.215H75.8V4.222h.026a1.965,1.965,0,0,1,1.921-1.164,2.185,2.185,0,0,1,2.287,2.47V9.489H78.467V6.313c0-.693-.052-1.843-1.15-1.843a1.406,1.406,0,0,0-1.438,1.594V9.489H74.311Z"/><path class="cls-1" d="M81.081,4.548V3.215h1.294V1.4h1.568V3.215h1.725V4.548H83.943V7.293c0,.627.183,1.019.876,1.019a1.631,1.631,0,0,0,.849-.2v1.32a3.306,3.306,0,0,1-1.241.209c-1.66,0-2.052-.745-2.052-2.221V4.548Z"/><path class="cls-1" d="M88.151,6.9a1.626,1.626,0,0,0,1.686,1.49,2.062,2.062,0,0,0,1.686-.85l1.124.85a3.42,3.42,0,0,1-6.064-2.039,3.252,3.252,0,0,1,3.411-3.294c1.751,0,2.941,1.229,2.941,3.412V6.9Zm3.215-1.176a1.443,1.443,0,0,0-1.594-1.49,1.56,1.56,0,0,0-1.621,1.49Z"/><path class="cls-1" d="M33.5,13.585h1.424l3.986,9.253H37.029l-.862-2.117H32.154l-.836,2.117H29.475Zm2.091,5.725-1.425-3.765L32.716,19.31Z"/><path class="cls-1" d="M39.163,16.565h1.49v.98h.026A2,2,0,0,1,42.6,16.408a1.914,1.914,0,0,1,1.96,1.163,2.185,2.185,0,0,1,2.065-1.163c1.673,0,2.261,1.189,2.261,2.692v3.738H47.319V19.283c0-.784-.235-1.463-1.163-1.463-.981,0-1.347.81-1.347,1.62v3.4H43.241V19.1c0-.771-.314-1.28-1.072-1.28a1.406,1.406,0,0,0-1.437,1.594v3.424H39.163Z"/><path class="cls-1" d="M53.945,18.3a1.422,1.422,0,0,0-1.228-.64c-.418,0-.915.2-.915.666,0,1.124,3.385.209,3.385,2.654,0,1.489-1.425,2.012-2.7,2.012a3.069,3.069,0,0,1-2.445-.967l1.046-.98a1.919,1.919,0,0,0,1.49.771c.457,0,1.046-.222,1.046-.719,0-1.294-3.385-.274-3.385-2.666,0-1.4,1.254-2.026,2.522-2.026a2.715,2.715,0,0,1,2.235.954Z"/><path class="cls-1" d="M55.67,17.9V16.565h1.294V14.748h1.569v1.817h1.725V17.9H58.533v2.745c0,.627.183,1.019.875,1.019a1.632,1.632,0,0,0,.85-.2v1.32A3.308,3.308,0,0,1,59.016,23c-1.66,0-2.052-.745-2.052-2.222V17.9Z"/><path class="cls-1" d="M62.741,20.251a1.625,1.625,0,0,0,1.686,1.489,2.061,2.061,0,0,0,1.686-.849l1.124.849a3.355,3.355,0,1,1-2.653-5.332c1.751,0,2.941,1.229,2.941,3.411v.432Zm3.215-1.177a1.443,1.443,0,0,0-1.594-1.49,1.56,1.56,0,0,0-1.621,1.49Z"/><path class="cls-1" d="M68.988,16.565h1.569v.993h.026A2.008,2.008,0,0,1,73,16.5v1.516a3.121,3.121,0,0,0-.758-.118,1.577,1.577,0,0,0-1.686,1.581v3.359H68.988Z"/><path class="cls-1" d="M78.817,21.9h-.026A2.419,2.419,0,0,1,76.634,23a3.044,3.044,0,0,1-3.1-3.293,3.077,3.077,0,0,1,3.032-3.294,2.581,2.581,0,0,1,2.13.954h.039v-4.4h1.569v9.88h-1.49Zm-1.869-.313A1.882,1.882,0,1,0,75.105,19.7,1.816,1.816,0,0,0,76.948,21.584Z"/><path class="cls-1" d="M86.005,21.976h-.039A2.253,2.253,0,0,1,83.953,23a2.04,2.04,0,0,1-2.287-1.882c0-2.039,2.379-2.183,3.947-2.183h.392v-.169c0-.772-.6-1.177-1.438-1.177a2.471,2.471,0,0,0-1.673.654l-.823-.824a3.679,3.679,0,0,1,2.666-1.006c2.68,0,2.68,1.934,2.68,2.823v3.607H86.005Zm-.091-1.948h-.327c-.863,0-2.353.066-2.353.967,0,.576.589.824,1.1.824,1.072,0,1.582-.562,1.582-1.438Z"/><path class="cls-1" d="M89.037,16.565h1.49v.98h.026a2,2,0,0,1,1.922-1.137,1.914,1.914,0,0,1,1.96,1.163A2.184,2.184,0,0,1,96.5,16.408c1.673,0,2.261,1.189,2.261,2.692v3.738H97.193V19.283c0-.784-.235-1.463-1.163-1.463-.981,0-1.347.81-1.347,1.62v3.4H93.115V19.1c0-.771-.314-1.28-1.072-1.28a1.406,1.406,0,0,0-1.437,1.594v3.424H89.037Z"/><polygon class="cls-1" points="0 64.258 6.018 58.24 0 52.221 4.012 48.208 10.031 54.227 16.05 48.208 20.062 52.221 14.044 58.24 20.062 64.258 16.05 68.271 10.031 62.252 4.012 68.271 0 64.258"/><polygon class="cls-1" points="0.001 16.071 6.019 10.052 0.001 4.033 4.012 0.021 10.032 6.039 16.05 0.021 20.063 4.033 14.044 10.052 20.063 16.071 16.05 20.083 10.032 14.064 4.014 20.083 0.001 16.071"/><polygon class="cls-1" points="0.001 40.185 6.019 34.167 0.001 28.148 4.013 24.135 10.032 30.154 16.05 24.135 20.063 28.148 14.044 34.167 20.063 40.185 16.05 44.197 10.032 38.179 4.013 44.197 0.001 40.185"/></g></g></svg>