<svg xmlns="http://www.w3.org/2000/svg" viewBox="0 0 28.1 24"><defs><style>.cls-1{fill:#434343;}.cls-2{fill:#9aa6a6;}.cls-3{fill:#fff;}</style></defs><title>mobiel-nav-argumenten</title><g id="Layer_2" data-name="Layer 2"><g id="Layer_3" data-name="Layer 3"><path class="cls-1" d="M26.987,5.767h-6.06V13.3a1.387,1.387,0,0,1-1.386,1.387H7.169v4.655a1.113,1.113,0,0,0,1.112,1.111H22.325l.3.3L25.875,24V20.455h1.112A1.113,1.113,0,0,0,28.1,19.344V6.877A1.111,1.111,0,0,0,26.987,5.767Z"/><path class="cls-2" d="M20.927,13.3V1.386A1.387,1.387,0,0,0,19.541,0H1.386A1.387,1.387,0,0,0,0,1.386V13.3a1.387,1.387,0,0,0,1.386,1.387h1.72v3.355l2.281-2.276,1.082-1.079H19.541A1.387,1.387,0,0,0,20.927,13.3ZM5.528,8.824A1.251,1.251,0,1,1,6.779,7.573,1.251,1.251,0,0,1,5.528,8.824Zm4.914,0a1.251,1.251,0,1,1,1.251-1.251A1.251,1.251,0,0,1,10.442,8.824Zm4.914,0a1.251,1.251,0,1,1,1.251-1.251A1.252,1.252,0,0,1,15.356,8.824Z"/><path class="cls-3" d="M5.528,6.322A1.251,1.251,0,1,0,6.779,7.573,1.251,1.251,0,0,0,5.528,6.322Z"/><path class="cls-3" d="M10.442,6.322a1.251,1.251,0,1,0,1.251,1.251A1.251,1.251,0,0,0,10.442,6.322Z"/><path class="cls-3" d="M15.356,6.322a1.251,1.251,0,1,0,1.251,1.251A1.252,1.252,0,0,0,15.356,6.322Z"/></g></g></svg>