<svg xmlns="http://www.w3.org/2000/svg" viewBox="0 0 32.079 23.077"><defs><style>.cls-1{fill:#9aa6a6;}.cls-2{fill:#434343;}</style></defs><title>mobiel-nav-varianten</title><g id="Layer_2" data-name="Layer 2"><g id="Layer_3" data-name="Layer 3"><path class="cls-1" d="M30.581,20.3a4.294,4.294,0,0,1-4.547-.358,6.236,6.236,0,0,0-7.435,0,4.267,4.267,0,0,1-5.119,0,6.236,6.236,0,0,0-7.435,0A4.294,4.294,0,0,1,1.5,20.3,1.007,1.007,0,0,0,.1,20.828a1.192,1.192,0,0,0,.488,1.525A6.241,6.241,0,0,0,7.2,21.842a4.283,4.283,0,0,1,5.119,0,6.213,6.213,0,0,0,7.435,0,4.3,4.3,0,0,1,5.119,0,6.241,6.241,0,0,0,6.612.511,1.192,1.192,0,0,0,.488-1.525A1.007,1.007,0,0,0,30.581,20.3Z"/><path class="cls-1" d="M30.581,15.721a4.292,4.292,0,0,1-4.547-.358,6.236,6.236,0,0,0-7.435,0,4.263,4.263,0,0,1-5.119,0,6.236,6.236,0,0,0-7.435,0,4.292,4.292,0,0,1-4.547.358A1.008,1.008,0,0,0,.1,16.255a1.19,1.19,0,0,0,.488,1.524,6.24,6.24,0,0,0,6.612-.51,4.283,4.283,0,0,1,5.119,0,6.213,6.213,0,0,0,7.435,0,4.3,4.3,0,0,1,5.119,0,6.241,6.241,0,0,0,6.612.51,1.19,1.19,0,0,0,.488-1.524A1.008,1.008,0,0,0,30.581,15.721Z"/><path class="cls-2" d="M31.732,5.26a17.441,17.441,0,0,1-5.69-1.424c-.539-.27-1.015-.522-1.475-.766C22.219,1.823,20.522,0,16.04,0S9.861,1.823,7.513,3.07c-.46.244-.936.5-1.475.766A17.453,17.453,0,0,1,.347,5.26v7.4h9.71a6.142,6.142,0,0,1,11.965,0h9.71Z"/></g></g></svg>