<svg xmlns="http://www.w3.org/2000/svg" viewBox="0 0 72.525 71.297"><defs><style>.cls-1{fill:none;}.cls-2{fill:#003066;}.cls-3{fill:#fff;}.cls-4{fill:#004699;}.cls-5{fill:#333;}.cls-6{fill:#ff9100;}.cls-7{fill:#b90000;}</style></defs><title>nieuwsbrief-asset</title><g id="Layer_2" data-name="Layer 2"><g id="Layer_1-2" data-name="Layer 1"><polygon class="cls-1" points="44.338 63.451 44.336 63.452 47.577 66.697 44.339 63.451 44.338 63.451"/><polygon class="cls-1" points="54.793 32.209 61.109 27.397 54.793 32.208 54.793 32.209"/><polygon class="cls-1" points="6.323 32.212 6.437 32.299 0 27.397 22.128 44.25 6.323 32.212"/><rect class="cls-1" x="43.166" y="60.626" width="0.002" height="3.309" transform="translate(-31.395 48.765) rotate(-45)"/><path class="cls-2" d="M32.516.772a2.876,2.876,0,0,0-3.921,0l-9.359,8.71H41.874Z"/><path class="cls-3" d="M22.128,44.25h16.86L54.634,32.33l-.063.047.222-.169V9.482H6.323v22.73ZM17.813,17.86H43.136a1.052,1.052,0,0,1,0,2.1H17.813a1.052,1.052,0,1,1,0-2.1Zm0,8.5H43.136a1.052,1.052,0,0,1,0,2.1H17.813a1.052,1.052,0,1,1,0-2.1Zm0,8.334H43.136a1.052,1.052,0,0,1,0,2.1H17.813a1.052,1.052,0,1,1,0-2.1Z"/><path d="M17.813,19.964H43.136a1.052,1.052,0,0,0,0-2.1H17.813a1.052,1.052,0,1,0,0,2.1Z"/><path d="M17.813,28.464H43.136a1.052,1.052,0,0,0,0-2.1H17.813a1.052,1.052,0,1,0,0,2.1Z"/><path d="M17.813,36.8H43.136a1.052,1.052,0,0,0,0-2.1H17.813a1.052,1.052,0,1,0,0,2.1Z"/><polygon class="cls-2" points="6.323 32.212 6.323 21.506 0 27.392 0 27.397 6.437 32.299 6.323 32.212"/><polygon class="cls-2" points="61.109 27.397 61.109 27.392 54.793 21.506 54.793 32.208 61.109 27.397"/><polygon class="cls-2" points="54.793 32.208 54.571 32.377 54.634 32.33 54.793 32.209 54.793 32.208"/><polygon class="cls-2" points="53.163 61.11 61.109 61.11 56.6 57.673 53.163 61.11"/><polygon class="cls-2" points="49.248 52.07 38.988 44.25 22.128 44.25 0 61.11 40.69 61.11 41.103 60.215 49.248 52.07"/><polygon class="cls-2" points="41.998 61.11 41.103 60.215 41.997 61.11 41.998 61.11"/><polygon class="cls-4" points="0 27.397 0 61.11 22.128 44.25 0 27.397"/><polygon class="cls-4" points="61.109 61.11 61.109 53.164 56.6 57.673 61.109 61.11"/><polygon class="cls-4" points="54.634 32.33 38.988 44.25 49.248 52.07 59.083 42.234 61.109 40.208 61.109 27.397 54.793 32.209 54.634 32.33"/><polygon class="cls-3" points="44.336 63.452 44.335 63.452 44.335 63.452 41.997 61.11 41.103 60.215 40.69 61.11 38.365 66.144 41.588 69.368 47.577 66.697 44.336 63.452 44.336 63.452"/><path class="cls-5" d="M37.107,68.882,36.5,70.21a.773.773,0,0,0,1.02,1.02l1.035-.469L41.6,69.379l-.012-.011-1.615-1.614-1.608-1.61-.534,1.162Z"/><polygon class="cls-6" points="63.459 37.858 61.109 40.208 59.083 42.234 49.248 52.07 41.103 60.215 41.998 61.11 44.338 63.449 44.335 63.452 44.335 63.452 44.336 63.452 44.336 63.452 44.338 63.451 44.339 63.451 47.577 66.697 53.163 61.11 56.6 57.673 61.109 53.164 61.797 52.476 62.208 52.066 69.936 44.337 66.695 41.096 63.459 37.858"/><path class="cls-7" d="M72.084,40.021l-2.146-2.162L67.775,35.7a1.547,1.547,0,0,0-2.162,0l-2.154,2.162L66.695,41.1l3.241,3.241,2.148-2.154A1.545,1.545,0,0,0,72.084,40.021Z"/></g></g></svg>