<svg xmlns="http://www.w3.org/2000/svg" viewBox="0 0 43.094 40.985"><defs><style>.cls-1{fill:#e5e5e5;}</style></defs><title>ster-niet geselecteerd</title><g id="Layer_2" data-name="Layer 2"><g id="Layer_1-2" data-name="Layer 1"><path class="cls-1" d="M21.547,6.781l3.966,8.038.7,1.415,1.561.227,8.875,1.29-6.42,6.257-1.13,1.1.267,1.555L30.879,35.5,22.943,31.33l-1.4-.734-1.4.733L12.214,35.5l1.516-8.839L14,25.109l-1.129-1.1-6.42-6.257,8.875-1.29,1.561-.227.7-1.415,3.966-8.038m0-6.781L14.891,13.492,0,15.656l10.773,10.5L8.23,40.985l13.317-7,13.316,7L32.32,26.156l10.774-10.5L28.2,13.492,21.547,0Z"/></g></g></svg>