<svg xmlns="http://www.w3.org/2000/svg" viewBox="0 0 34.702 42.243"><defs><style>.cls-1{fill:#e8e7e7;}.cls-2{fill:#fff;}.cls-3{fill:#009de6;}</style></defs><title>stemtool asset-grijze button-stem</title><g id="Layer_2" data-name="Layer 2"><g id="Layer_1-2" data-name="Layer 1"><path class="cls-1" d="M20.71,18.273l.054.011-.053-.019Z"/><path class="cls-2" d="M31.422,8.553a6.839,6.839,0,0,0-.73-.023,31.668,31.668,0,0,0-3.184.207.7.7,0,0,1-.579-.213A.666.666,0,0,1,26.77,7.9c.22-.956.993-4.12,1.244-5.484l0-.022a.813.813,0,0,0-.643-.956c-.249-.091-.75-.118-.91.3l-.112.3c-.73,1.886-2.434,6.231-5.666,7.324a2.005,2.005,0,0,1,.046.386v8.188a1.7,1.7,0,0,1-.022.334l.053.019a58.075,58.075,0,0,0,9.227,1.2c2.117,0,2.525-.456,2.639-1.48.114-1.114.523-4.936.682-7.1a2.541,2.541,0,0,0-.344-1.874A2.253,2.253,0,0,0,31.422,8.553Z"/><path class="cls-3" d="M34.055,8.128a3.477,3.477,0,0,0-2.5-.956,23.183,23.183,0,0,0-3.184.091c.319-1.364.842-3.524,1.037-4.594A2.2,2.2,0,0,0,27.79.1,2.092,2.092,0,0,0,25.2,1.214l-.136.317c-.622,1.592-2.281,5.805-4.976,6.574h-.023a2.423,2.423,0,0,0-1.82-.8H15.563A2.448,2.448,0,0,0,13.1,9.747v8.238a2.447,2.447,0,0,0,2.436,2.457h2.728a2.488,2.488,0,0,0,1.843-.819,61.662,61.662,0,0,0,9.872,1.3h.149c1.251,0,3.571-.105,3.854-2.73.137-1.136.548-4.975.684-7.141A3.719,3.719,0,0,0,34.055,8.128ZM33.312,10.9c-.159,2.161-.568,5.983-.682,7.1-.114,1.024-.522,1.48-2.639,1.48a58.075,58.075,0,0,1-9.227-1.2l-.054-.011v-.008a1.7,1.7,0,0,0,.022-.334V9.743a2.005,2.005,0,0,0-.046-.386c3.232-1.093,4.936-5.438,5.666-7.324l.112-.3c.16-.414.661-.387.91-.3a.813.813,0,0,1,.643.956l0,.022C27.763,3.782,26.99,6.946,26.77,7.9a.666.666,0,0,0,.159.622.7.7,0,0,0,.579.213,31.668,31.668,0,0,1,3.184-.207,6.839,6.839,0,0,1,.73.023,2.253,2.253,0,0,1,1.546.476A2.541,2.541,0,0,1,33.312,10.9Z"/><path d="M4.125,22.289c-1.907,0-3.2.327-3.395,2.148-.264,2.431-.57,5.5-.7,7.3-.18,2.272.531,3,2.537,3.124a29.462,29.462,0,0,0,4.147-.176c-.459,1.866-1.072,4.449-1.292,5.653-.35,1.907,2.365,2.587,2.958,1.1.481-1.209,1.739-4.765,3.973-6.553a4.793,4.793,0,0,1,1.724-.91,2.336,2.336,0,0,0,.33-.131l.021-10.191A67.867,67.867,0,0,0,4.181,22.29Z"/><path d="M19.721,22.83h-2.8a1.086,1.086,0,0,0-1.1,1.076v9.6a1.1,1.1,0,0,0,1.1,1.1H19.7a1.085,1.085,0,0,0,1.1-1.076v-9.6A1.087,1.087,0,0,0,19.721,22.83Z"/></g></g></svg>