<svg xmlns="http://www.w3.org/2000/svg" viewBox="0 0 30 30.502"><defs><style>.cls-1{fill:#fff;}</style></defs><title>_reacties-wit groot</title><g id="Layer_2" data-name="Layer 2"><g id="Layer_1-2" data-name="Layer 1"><path class="cls-1" d="M27.317,0H2.691A2.683,2.683,0,0,0,0,2.66v16.7A2.659,2.659,0,0,0,2.685,22h18.63L30,30.5h0V2.645A2.678,2.678,0,0,0,27.317,0ZM8.27,13.214a1.86,1.86,0,1,1,1.92-1.859A1.891,1.891,0,0,1,8.27,13.214Zm6.823,0a1.86,1.86,0,1,1,1.918-1.859A1.891,1.891,0,0,1,15.093,13.214Zm6.823,0a1.86,1.86,0,1,1,1.918-1.859A1.89,1.89,0,0,1,21.916,13.214Z"/></g></g></svg>