<svg xmlns="http://www.w3.org/2000/svg" viewBox="0 0 10.63 10.63" width="10.63" height="10.63"><defs><style>.cls-1{fill:none;}.cls-2{fill:#fff;}</style></defs><title>idee-deadline-lok</title><g id="Layer_2" data-name="Layer 2"><g id="IDEE_OVERZICHT" data-name="IDEE OVERZICHT"><path class="cls-1" d="M8.42,2.21h0A4.37,4.37,0,0,0,5.32.93h0A4.39,4.39,0,0,0,.93,5.31a4.38,4.38,0,0,0,4.38,4.4h0A4.38,4.38,0,0,0,9.71,5.33,4.42,4.42,0,0,0,8.42,2.21ZM8.26,5.64a.46.46,0,0,1-.33.14H5.32a.51.51,0,0,1-.41-.25l0,0V2a.46.46,0,0,1,.46-.46h0A.46.46,0,0,1,5.81,2v2.9H7.75l.18,0a.46.46,0,0,1,.33.79Z"/><path class="cls-2" d="M9.09,1.55A5.38,5.38,0,0,0,5.32,0h0A5.38,5.38,0,0,0,1.55,1.55a5.37,5.37,0,0,0,0,7.54,5.38,5.38,0,0,0,3.77,1.55h0A5.32,5.32,0,0,0,9.09,9.08a5.38,5.38,0,0,0,1.55-3.77A5.32,5.32,0,0,0,9.09,1.55ZM8.42,8.43a4.36,4.36,0,0,1-3.1,1.28h0a4.39,4.39,0,0,1,0-8.78h0a4.37,4.37,0,0,1,3.1,1.28h0A4.42,4.42,0,0,1,9.71,5.33,4.36,4.36,0,0,1,8.42,8.43Z"/><path class="cls-2" d="M7.93,4.85l-.18,0H5.81V2a.46.46,0,0,0-.46-.46h0A.46.46,0,0,0,4.88,2v3.5l0,0a.51.51,0,0,0,.41.25H7.93a.46.46,0,1,0,0-.93Z"/></g></g></svg>