<svg xmlns="http://www.w3.org/2000/svg" viewBox="0 0 17.87 17.87" width="17.87" height="17.87"><defs><style>.cls-1{fill:none;}.cls-2{fill:#323333;}</style></defs><title>deadline-klok</title><g id="Layer_2" data-name="Layer 2"><g id="IDEE_DETAIL" data-name="IDEE DETAIL"><path class="cls-1" d="M14.37,3.6h0l-.06-.05A7.58,7.58,0,0,0,8.93,1.32h0a7.6,7.6,0,0,0-7.6,7.59,7.6,7.6,0,0,0,7.6,7.63h0A7.62,7.62,0,0,0,14.37,3.6Zm-1,6H8.93a.73.73,0,0,1-.58-.36l0,0V3.26a.66.66,0,0,1,.22-.47A.65.65,0,0,1,9,2.63a.66.66,0,0,1,.62.62V8.33H13.2V8.26h.19a.66.66,0,0,1,0,1.32Z"/><path class="cls-2" d="M13.39,8.27H13.2v.06H9.65V3.25A.66.66,0,0,0,9,2.63a.65.65,0,0,0-.48.17.66.66,0,0,0-.22.47V9.19l0,0a.73.73,0,0,0,.58.36h4.46a.66.66,0,0,0,0-1.32Z"/><path class="cls-2" d="M15.26,2.6A9.05,9.05,0,0,0,8.93,0h0A9.05,9.05,0,0,0,2.6,2.6a9,9,0,0,0,0,12.67,9,9,0,0,0,6.33,2.6H9a8.93,8.93,0,0,0,6.28-2.6,9,9,0,0,0,2.6-6.33A8.93,8.93,0,0,0,15.26,2.6ZM8.94,16.54h0a7.6,7.6,0,0,1-7.6-7.63,7.6,7.6,0,0,1,7.6-7.59h0a7.58,7.58,0,0,1,5.38,2.23l.06.05h0A7.62,7.62,0,0,1,8.94,16.54Z"/></g></g></svg>