<svg xmlns="http://www.w3.org/2000/svg" viewBox="0 0 26.274 32.383" width="26.274" height="32.383"><defs><style>.cls-1{fill:none;}.cls-2{fill:#fff;}</style></defs><title>_delete-wit-groot</title><g id="Layer_2" data-name="Layer 2"><g id="Layer_1-2" data-name="Layer 1"><rect class="cls-1" x="8.288" y="2.193" width="3.891" height="0.585"/><polygon class="cls-1" points="21.415 21.155 19.006 23.564 16.596 21.155 15.046 22.705 17.455 25.115 15.046 27.524 16.596 29.075 19.006 26.665 21.415 29.075 22.966 27.524 20.556 25.115 22.966 22.705 21.415 21.155"/><path class="cls-2" d="M20.468,2.778h-6.1V0H6.1V2.778H0V7.164H20.468ZM8.288,2.193H12.18v.585H8.288Zm0,0"/><path class="cls-2" d="M18.52,15.666l.414-6.309H1.534l1.39,21.2H11.27A9.456,9.456,0,0,1,18.52,15.666Zm0,0"/><path class="cls-2" d="M19.006,17.847a7.268,7.268,0,1,0,7.268,7.268,7.276,7.276,0,0,0-7.268-7.268Zm3.96,9.678-1.551,1.55-2.41-2.409L16.6,29.075l-1.551-1.55,2.41-2.41-2.41-2.41,1.551-1.55,2.41,2.41,2.41-2.41,1.551,1.55-2.41,2.41Zm0,0"/></g></g></svg>