<svg xmlns="http://www.w3.org/2000/svg" viewBox="0 0 30 30" width="30" height="30"><defs><style>.cls-1{fill:#fff;}</style></defs><title>_edit-wit-groot</title><g id="Layer_2" data-name="Layer 2"><g id="Layer_1-2" data-name="Layer 1"><path class="cls-1" d="M1.683,22.643a2.243,2.243,0,0,0-.478.727L.027,28.66A1.1,1.1,0,0,0,1.1,30a1.075,1.075,0,0,0,.24-.027l5.291-1.18a2.233,2.233,0,0,0,.727-.477L8.744,26.93,3.07,21.256Z"/><rect class="cls-1" x="5.178" y="10.97" width="19.68" height="8.024" transform="translate(-6.195 15.009) rotate(-45.003)"/><path class="cls-1" d="M29.754,4.731,25.268.247a.841.841,0,0,0-1.189,0L21.291,3.034l5.675,5.674L29.753,5.92A.84.84,0,0,0,29.754,4.731Z"/></g></g></svg>