<svg xmlns="http://www.w3.org/2000/svg" width="26" height="25" viewBox="0 0 26 25">
    <g fill="#FFF" fill-rule="nonzero">
        <path d="M3.137 18.823l.014.016a1.375 1.375 0 0 0-.463.574l-1.617 3.96c-.12.22-.095.49.062.686.14.123.332.167.511.117a.947.947 0 0 0 .175-.054l3.962-1.617c.23-.1.429-.26.575-.463l.014.014.534-.531-3.236-3.235-.531.533zM4.9 17l13-12.997 3.29 3.292L8.191 20.292zM24.957 2.583L22.705.331c-.417-.416-.7-.434-1.048-.086l-2.444 2.444 3.292 3.291 2.457-2.457a.56.56 0 0 0-.005-.94z"/>
    </g>
</svg>
