<svg xmlns="http://www.w3.org/2000/svg" viewBox="0 0 150 117" width="150" height="117"><defs><style>.cls-1{fill:none;}.cls-2{fill:#e3e4e5;}.cls-3{fill:#333;}.cls-4{fill:#f6f7f7;}.cls-5{fill:#ec0000;}.cls-6{fill:#757779;}.cls-7{fill:#cbcbca;}.cls-8{fill:#f6921e;}.cls-9{fill:#fdc46f;}.cls-10{fill:#ffe600;}.cls-11{fill:#989898;}</style></defs><title>_nieuw_hoewerkthet-idee</title><g id="Layer_2" data-name="Layer 2"><g id="Layer_1-2" data-name="Layer 1"><polygon class="cls-1" points="124.231 43.389 104.212 63.384 124.231 43.39 124.231 43.389"/><polygon class="cls-1" points="124.232 36.966 85.611 75.587 124.232 36.966 124.232 36.966"/><polygon class="cls-2" points="124.232 36.966 125.346 35.852 124.232 36.966 124.232 36.966"/><path class="cls-2" d="M124.231,43.389h0L104.212,63.384h4.412a2.081,2.081,0,1,1,0,4.162h-8.579l-6.986,6.978h15.565a2.081,2.081,0,1,1,0,4.162H88.892L86.17,81.4l-9.362,4.26h31.817a2.081,2.081,0,1,1,0,4.162h-40.4a2.081,2.081,0,1,1,0-4.162h2.789l1.966-4.336-1.455.66a1.087,1.087,0,0,1-1.435-1.435l.858-1.867H68.229a2.081,2.081,0,1,1,0-4.162H72.85l3.174-6.978H68.229a2.081,2.081,0,1,1,0-4.162H79.6l6.978-6.978H68.229a2.081,2.081,0,1,1,0-4.162h22.51l6.978-6.978h-81a2.081,2.081,0,1,1,0-4.162h85.16l7-7a2.06,2.06,0,0,1-.254.025H16.719a2.081,2.081,0,0,1,0-4.162h91.933a1.984,1.984,0,0,1,2.053,2.313l14.642-14.642V13.931H0V117H125.346V42.276ZM56.161,100.45h-40.4V53.787h40.4Zm52.463.515h-40.4a2.081,2.081,0,1,1,0-4.162h40.4a2.081,2.081,0,1,1,0,4.162Z"/><path class="cls-3" d="M125.349,13.93V0H0V13.93H125.349ZM96.8,9.034a2.081,2.081,0,1,1,2.081-2.081A2.081,2.081,0,0,1,96.8,9.034Zm9.744,0a2.081,2.081,0,1,1,2.081-2.081A2.081,2.081,0,0,1,106.547,9.034Zm9.744,0a2.081,2.081,0,1,1,2.081-2.081A2.081,2.081,0,0,1,116.29,9.034Z"/><circle class="cls-4" cx="106.547" cy="6.953" r="2.081"/><circle class="cls-5" cx="116.29" cy="6.953" r="2.081"/><circle class="cls-4" cx="96.803" cy="6.953" r="2.081"/><path class="cls-6" d="M14.638,43.186a2.081,2.081,0,0,0,2.081,2.081h81l4.162-4.162H16.719A2.081,2.081,0,0,0,14.638,43.186Z"/><path class="cls-6" d="M108.651,29.966H16.719a2.081,2.081,0,0,0,0,4.162h91.909a2.06,2.06,0,0,0,.254-.025l1.823-1.823a1.984,1.984,0,0,0-2.053-2.313Z"/><path class="cls-6" d="M110.705,65.465a2.081,2.081,0,0,0-2.081-2.081h-4.412l-4.167,4.162h8.579A2.081,2.081,0,0,0,110.705,65.465Z"/><path class="cls-6" d="M66.148,65.465a2.081,2.081,0,0,0,2.081,2.081h7.795l.486-1.069,0,0,0,0v0h0L79.6,63.384H68.229A2.081,2.081,0,0,0,66.148,65.465Z"/><path class="cls-6" d="M66.148,54.326a2.081,2.081,0,0,0,2.081,2.081H86.577l4.162-4.162H68.229A2.081,2.081,0,0,0,66.148,54.326Z"/><path class="cls-6" d="M110.705,76.6a2.081,2.081,0,0,0-2.081-2.081H93.059l-4.167,4.162h19.733A2.081,2.081,0,0,0,110.705,76.6Z"/><path class="cls-6" d="M71.966,76.466l.884-1.942H68.229a2.081,2.081,0,1,0,0,4.162h2.723l1.018-2.216Z"/><path class="cls-6" d="M66.148,87.744a2.081,2.081,0,0,0,2.081,2.081h40.4a2.081,2.081,0,1,0,0-4.162H76.807l-.634.288-4.086,1.872a1.062,1.062,0,0,1-1.41-1.41l.34-.75H68.229A2.081,2.081,0,0,0,66.148,87.744Z"/><path class="cls-6" d="M108.624,96.8h-40.4a2.081,2.081,0,1,0,0,4.162h40.4a2.081,2.081,0,1,0,0-4.162Z"/><path class="cls-7" d="M85.611,75.587l-.015-.015-8.344,3.8.016.016-4.284,1.942-1.966,4.336-.34.75a1.062,1.062,0,0,0,1.41,1.41l4.086-1.872.634-.288L86.17,81.4l2.722-2.719,4.167-4.162,6.986-6.978,4.167-4.162,20.019-20,1.114-1.113V35.852l-1.114,1.114Z"/><polygon class="cls-8" points="125.346 17.637 110.704 32.279 108.881 34.103 101.878 41.106 97.716 45.267 90.739 52.245 86.577 56.407 79.6 63.384 76.515 66.469 81.062 71.016 81.056 71.023 81.057 71.024 81.063 71.018 81.064 71.019 141.778 10.306 141.785 10.314 141.789 10.31 137.231 5.752 125.346 17.637"/><polygon class="cls-9" points="76.508 66.475 76.51 66.477 76.513 66.471 76.508 66.475"/><polygon class="cls-10" points="81.064 71.019 85.611 75.566 85.596 75.572 85.611 75.587 124.232 36.966 125.346 35.852 146.335 14.863 141.785 10.314 141.778 10.306 81.064 71.019"/><path class="cls-4" d="M149.38,8.781l-3.028-3.028-4.56,4.536-4.548-4.548,3.04-3.04a2.166,2.166,0,0,1,1.508-.619,2.165,2.165,0,0,0-1.532.619l-3.04,3.04.012.012,4.558,4.557,4.551,4.55,3.04-3.039A2.173,2.173,0,0,0,149.38,8.781Z"/><path class="cls-2" d="M137.243,5.741l4.548,4.548,4.56-4.536.012-.012-3.04-3.04a2.176,2.176,0,0,0-3.04,0Z"/><polygon class="cls-4" points="76.513 66.471 76.51 66.477 76.024 67.546 72.85 74.523 71.966 76.466 71.97 76.469 72.72 74.837 74.982 77.099 77.252 79.369 85.596 75.572 85.611 75.566 81.064 71.019 81.063 71.018 81.057 71.024 81.056 71.023 81.062 71.016 76.515 66.469 76.514 66.468 76.513 66.471"/><path class="cls-3" d="M72.72,74.837l-.75,1.633-1.018,2.216-.858,1.867a1.087,1.087,0,0,0,1.435,1.435l1.455-.66,4.284-1.942-.016-.016-2.27-2.27Z"/><path class="cls-4" d="M15.766,100.45h40.4V53.787h-40.4Zm7.491-31.165A13.136,13.136,0,0,1,34.788,57.753a6.183,6.183,0,0,1,1.151-.072c.416,0,.759.072,1.151.072A13.089,13.089,0,0,1,48.621,69.284h0a12.833,12.833,0,0,1-3.966,10.87,10.945,10.945,0,0,0-3.353,5.7v2.014h.025v1.322H41.3V90.51h.024v1.347H41.3v2.032H39.98l-1.42,1.885a1.971,1.971,0,0,1-1.591.808H34.962a2.016,2.016,0,0,1-1.616-.808l-1.42-1.886H30.578V85.858h0a10.945,10.945,0,0,0-3.354-5.7A12.977,12.977,0,0,1,23.257,69.284Z"/><rect class="cls-10" x="34.618" y="75.135" width="2.693" height="10.699"/><path class="cls-10" d="M30.577,85.858h0v-.024H33.3v-10.7H31.949a2.693,2.693,0,1,1,2.693-2.693v1.347h2.693V72.442a2.693,2.693,0,1,1,2.693,2.693H38.682v10.7H41.3v.018a10.945,10.945,0,0,1,3.353-5.7,12.833,12.833,0,0,0,3.966-10.87h0A13.089,13.089,0,0,0,37.09,57.753c-.392,0-.735-.072-1.151-.072a6.183,6.183,0,0,0-1.151.072A13.136,13.136,0,0,0,23.257,69.284a12.977,12.977,0,0,0,3.966,10.87A10.945,10.945,0,0,1,30.577,85.858Z"/><path class="cls-10" d="M41.326,72.419a1.347,1.347,0,0,0-2.693,0v1.347H39.98A1.347,1.347,0,0,0,41.326,72.419Z"/><path class="cls-10" d="M31.931,71.1h-.006a1.347,1.347,0,0,0,0,2.693h1.349V72.443A1.342,1.342,0,0,0,31.931,71.1Z"/><path class="cls-5" d="M34.618,75.135h2.693v10.7h1.371v-10.7h1.347a2.693,2.693,0,1,0-2.693-2.693v1.347H34.643V72.442a2.693,2.693,0,1,0-2.693,2.693H33.3v10.7h1.322Zm4.015-2.717a1.347,1.347,0,1,1,1.347,1.347H38.633ZM33.269,73.79H31.921a1.347,1.347,0,0,1,0-2.693h.006a1.342,1.342,0,0,1,1.338,1.347Z"/><path class="cls-2" d="M38.682,85.835h-8.1v2.032h4.7a.661.661,0,1,1,0,1.322v.024h-4.7V90.56h2.693a.661.661,0,0,1,0,1.322v.024H30.578v1.983H41.3V91.857H36.625a.661.661,0,1,1,0-1.322V90.51H41.3V89.189H38.633a.661.661,0,0,1,0-1.322H41.3V85.835Z"/><path class="cls-11" d="M33.345,95.775a2.016,2.016,0,0,0,1.616.808h2.007a1.971,1.971,0,0,0,1.591-.808l1.42-1.885H31.925Z"/><path class="cls-11" d="M35.279,89.189a.661.661,0,1,0,0-1.322h-4.7v1.347h4.7Z"/><path class="cls-11" d="M33.272,91.882a.661.661,0,0,0,0-1.322H30.578v1.347h2.693Z"/><path class="cls-11" d="M37.972,88.528a.661.661,0,0,0,.661.661h2.693V87.866H38.633A.661.661,0,0,0,37.972,88.528Z"/><path class="cls-11" d="M36.625,90.535a.661.661,0,1,0,0,1.322h4.7V90.51h-4.7Z"/></g></g></svg>