<svg xmlns="http://www.w3.org/2000/svg" viewBox="0 0 117 117" width="117" height="117"><defs><style>.cls-1{fill:none;}.cls-2{fill:#333;}.cls-3{fill:#666667;}.cls-4{fill:#e3e4e5;}.cls-5{fill:#ec0000;}.cls-6{fill:#fff;}.cls-7{fill:#ffe600;}</style></defs><title>_nieuw_hoewerkthet-agenda</title><g id="Layer_2" data-name="Layer 2"><g id="Layer_1-2" data-name="Layer 1"><path class="cls-1" d="M54.123,51.96h9.938a21.792,21.792,0,0,1-3.646-5.668q-1.479-.012-2.919-.127A14.2,14.2,0,0,1,54.123,51.96Z"/><path class="cls-2" d="M117,38.7c0-12.692-12.857-23.006-28.788-23.143a18.8,18.8,0,0,1,1.595,7.593c0,12.777-13.029,23.15-29.108,23.15-.1,0-.189-.005-.284-.006a21.792,21.792,0,0,0,3.646,5.668H75.1l1.267,7.991a35.5,35.5,0,0,0,11.547,1.9c1.085,0,2.152-.05,3.2-.134a14.22,14.22,0,0,0,13.6,10.172,14.449,14.449,0,0,1-4-12.393C110.361,55.719,117,47.836,117,38.7Z"/><polygon class="cls-3" points="71.945 71.886 71.933 71.886 71.945 71.887 64.789 116.999 85.407 116.999 76.365 59.951 75.098 51.96 71.945 71.886"/><path class="cls-4" d="M71.933,71.886H7.139L0,117H64.789l7.156-45.112ZM20.318,106.093H14.432a1.42,1.42,0,0,1,0-2.84h5.886a1.42,1.42,0,0,1,0,2.84Zm3.05-11.642a1.432,1.432,0,0,1-1.432,1.42H16.064a1.42,1.42,0,0,1,0-2.84H21.95a1.418,1.418,0,0,1,1.418,1.418Zm1.619-10.221a1.443,1.443,0,0,1-1.432,1.42H17.683a1.42,1.42,0,0,1,0-2.84h5.886a1.418,1.418,0,0,1,1.418,1.418ZM37.3,106.093H31.414a1.42,1.42,0,0,1,0-2.84H37.3a1.42,1.42,0,0,1,0,2.84Zm1.618-10.222H33.031a1.42,1.42,0,0,1,0-2.84h5.886a1.42,1.42,0,0,1,0,2.84Zm1.618-10.221H34.649a1.42,1.42,0,0,1,0-2.84h5.886a1.42,1.42,0,0,1,0,2.84Zm13.729,20.444H48.378a1.42,1.42,0,0,1,0-2.84h5.886a1.42,1.42,0,0,1,0,2.84ZM57.3,94.451a1.4,1.4,0,0,1-1.374,1.42H50a1.42,1.42,0,0,1,0-2.84h5.886A1.418,1.418,0,0,1,57.3,94.449Zm.217-8.8H51.631a1.42,1.42,0,0,1,0-2.84h5.886a1.42,1.42,0,0,1,0,2.84Z"/><path class="cls-5" d="M71.945,71.886,75.1,51.96H54.123A14.2,14.2,0,0,1,43.9,56.337a14.417,14.417,0,0,0,2.956-4.377H10.308L7.139,71.886H71.945ZM61.036,63.352H21.2a1.42,1.42,0,0,1,0-2.84H61.036a1.42,1.42,0,0,1,0,2.84Z"/><path class="cls-2" d="M61.036,60.512H21.2a1.42,1.42,0,0,0,0,2.84H61.036a1.42,1.42,0,0,0,0-2.84Z"/><path class="cls-6" d="M23.569,82.81H17.683a1.42,1.42,0,0,0,0,2.84h5.872a1.443,1.443,0,0,0,1.432-1.42h0A1.418,1.418,0,0,0,23.569,82.81Z"/><path class="cls-6" d="M40.535,82.81H34.649a1.42,1.42,0,0,0,0,2.84h5.886a1.42,1.42,0,0,0,0-2.84Z"/><path class="cls-6" d="M57.517,82.81H51.631a1.42,1.42,0,0,0,0,2.84h5.886a1.42,1.42,0,0,0,0-2.84Z"/><path class="cls-6" d="M21.95,93.031H16.064a1.42,1.42,0,0,0,0,2.84h5.872a1.432,1.432,0,0,0,1.432-1.42h0A1.418,1.418,0,0,0,21.95,93.031Z"/><path class="cls-6" d="M38.917,93.031H33.031a1.42,1.42,0,0,0,0,2.84h5.886a1.42,1.42,0,0,0,0-2.84Z"/><path class="cls-6" d="M55.882,93.031H50a1.42,1.42,0,0,0,0,2.84h5.93a1.4,1.4,0,0,0,1.374-1.42h0A1.418,1.418,0,0,0,55.882,93.031Z"/><path class="cls-6" d="M20.318,103.253H14.432a1.42,1.42,0,0,0,0,2.84h5.886a1.42,1.42,0,0,0,0-2.84Z"/><path class="cls-6" d="M37.3,103.253H31.414a1.42,1.42,0,0,0,0,2.84H37.3a1.42,1.42,0,0,0,0-2.84Z"/><path class="cls-6" d="M54.264,103.253H48.378a1.42,1.42,0,0,0,0,2.84h5.886a1.42,1.42,0,0,0,0-2.84Z"/><path class="cls-7" d="M54.123,51.96A14.2,14.2,0,0,0,57.5,46.166q1.438.114,2.919.127c.1,0,.189.006.284.006,16.079,0,29.108-10.372,29.108-23.15a18.8,18.8,0,0,0-1.595-7.593C84.273,6.506,73.451,0,60.718,0,44.638,0,31.61,10.372,31.61,23.15c0,9.136,6.639,17.02,16.294,20.794a14.551,14.551,0,0,1-4,12.393A14.2,14.2,0,0,0,54.123,51.96Z"/></g></g></svg>