<svg xmlns="http://www.w3.org/2000/svg" viewBox="0 0 154.89 117.68" width="154.89px" height="117.68px"><defs><style>.cls-1{fill:#292625;}.cls-2{fill:#fff;}.cls-3{fill:#d2d3d3;}.cls-4{fill:#a7a9ac;}.cls-5{fill:#ffedb6;}.cls-6{fill:#ffd24f;}.cls-7{fill:#808184;}.cls-8{fill:#5b5b5d;}.cls-9{fill:none;stroke:#ed2224;stroke-linecap:round;stroke-linejoin:round;stroke-width:0;}.cls-10{fill:#ed2224;}</style></defs><title>Hoewerkthet-icon-campagne</title><g id="Layer_2" data-name="Layer 2"><g id="IDEE_UPLOADEN" data-name="IDEE UPLOADEN"><path class="cls-1" d="M29.16,74.66l7,38a6.09,6.09,0,0,0,6,5H52.9a6.09,6.09,0,0,0,6-7.2l-6.63-36H29.13C29.14,74.53,29.15,74.6,29.16,74.66Z"/><polygon class="cls-2" points="62.56 48.42 114.45 48.42 114.45 6.6 62.56 22.11 62.56 74.47 80.69 79.88 62.56 74.47 62.56 48.42"/><path class="cls-3" d="M114.49,48.42h8.21V4.13a4.13,4.13,0,0,0-8.25,0v44.3H62.56v26l18.13,5.41,33.76,10.07v2.47a4.11,4.11,0,0,0,1.23,2.93,4.11,4.11,0,0,1-1.19-2.89Z"/><path class="cls-4" d="M119.2,48.42h-4.71v44a4.13,4.13,0,1,0,8.25,0v-44H119.2Z"/><path class="cls-5" d="M23.32,48.42V26.9a4.76,4.76,0,0,1,.14-1.09H11.13A11.12,11.12,0,0,0,0,36.9V48.42H23.32Z"/><path class="cls-5" d="M0,59.64c0,.11,0,.22,0,.33,0-.11,0-.22,0-.33Z"/><path class="cls-6" d="M23.28,69.64V48.42H0V59.64c0,.11,0,.22,0,.33A11.13,11.13,0,0,0,11.13,70.77H23.43A4.75,4.75,0,0,1,23.28,69.64Z"/><path class="cls-7" d="M28.1,22.11a4.84,4.84,0,0,0-4.78,4.79V48.42h39.2v26H28.06A4.77,4.77,0,0,1,24.7,73a4.77,4.77,0,0,0,3.41,1.42H62.56V22.11H28.1Z"/><path class="cls-8" d="M28.07,74.43H62.52v-26H23.28V69.64a4.79,4.79,0,0,0,4.78,4.79Z"/><line class="cls-9" x1="151.78" y1="51.58" x2="151.78" y2="51.58"/><path class="cls-10" d="M154.89,48.47a3.11,3.11,0,0,0-3.11-3.12H138.46a3.11,3.11,0,0,0,0,6.23h13.31A3.11,3.11,0,0,0,154.89,48.47Z"/><path class="cls-10" d="M130.87,23.28a3.5,3.5,0,0,0,1.6-.43L144,16.19l0,0a3.13,3.13,0,1,0-3.18-5.4l-11.52,6.66a3.17,3.17,0,0,0-1.13,4.28A3,3,0,0,0,130.87,23.28Z"/><path class="cls-10" d="M144,80.66,132.47,74l0,0a3.13,3.13,0,1,0-3.13,5.43l11.52,6.66a2.86,2.86,0,0,0,1.56.43,3.13,3.13,0,0,0,1.6-5.84Z"/></g></g></svg>