<svg xmlns="http://www.w3.org/2000/svg" viewBox="0 0 154 117" width="154" height="117"><defs><style>.cls-1{fill:#333;}.cls-2{fill:#fff;}.cls-3{fill:#cbcbca;}.cls-4{fill:#ffecb5;}.cls-5{fill:#ffe600;}.cls-6{fill:#757779;}.cls-7{fill:#666667;}.cls-8{fill:#ec0000;}.cls-9{fill:#e3e4e5;}</style></defs><title>_nieuw_hoewerkt het-campagne</title><g id="Layer_2" data-name="Layer 2"><g id="Layer_1-2" data-name="Layer 1"><path class="cls-1" d="M28.99,74.234l6.966,37.812A6.059,6.059,0,0,0,41.917,117H52.6a6.057,6.057,0,0,0,5.96-7.16l-6.6-35.8h-23C28.974,74.1,28.978,74.169,28.99,74.234Z"/><polygon class="cls-2" points="62.198 74.04 80.969 79.638 62.198 74.039 62.198 74.04"/><polygon class="cls-2" points="113.828 48.147 113.79 48.147 113.79 6.56 62.198 21.984 62.198 48.147 62.198 74.039 80.969 79.638 113.828 89.44 113.828 48.185 113.828 48.147"/><path class="cls-3" d="M113.867,48.185h-.039V91.921a4.1,4.1,0,0,0,8.205,0V48.185h-8.166Z"/><path class="cls-4" d="M0,59.294c0,.068.009.135.01.2,0-.068-.01-.135-.01-.2Z"/><path class="cls-5" d="M23.145,48.147h.038v-21.4a4.735,4.735,0,0,1,.135-1.083H11.07A11.059,11.059,0,0,0,0,36.691v22.6c0,.069.009.135.01.2A11.065,11.065,0,0,0,11.07,70.364H23.292a4.725,4.725,0,0,1-.147-1.124Z"/><path class="cls-6" d="M27.938,21.983a4.808,4.808,0,0,0-4.755,4.76v21.4H62.159V74H27.9a4.74,4.74,0,0,1-3.342-1.378,4.739,4.739,0,0,0,3.386,1.417H62.2V21.983H27.938Z"/><path class="cls-7" d="M27.906,74H62.159V48.147H23.145V69.24A4.764,4.764,0,0,0,27.9,74Z"/><path class="cls-8" d="M150.906,45.089H137.67a3.1,3.1,0,0,0,0,6.192h13.236a3.1,3.1,0,0,0,0-6.192Z"/><path class="cls-8" d="M130.122,23.144a3.485,3.485,0,0,0,1.587-.423L143.162,16.1l.026-.015a3.113,3.113,0,1,0-3.161-5.365l-11.454,6.618a3.149,3.149,0,0,0-1.122,4.257A2.994,2.994,0,0,0,130.122,23.144Z"/><path class="cls-8" d="M143.165,80.193l-11.457-6.619-.026-.015a3.113,3.113,0,1,0-3.108,5.4l11.457,6.618a2.839,2.839,0,0,0,1.548.426,3.115,3.115,0,0,0,1.587-5.805Z"/><path class="cls-9" d="M117.931,0a4.116,4.116,0,0,0-4.1,4.129V48.185h8.205V4.129a4.126,4.126,0,0,0-1.181-2.894A4.074,4.074,0,0,0,117.931,0Z"/></g></g></svg>