<svg xmlns="http://www.w3.org/2000/svg" viewBox="0 0 151.72 117.33" width="151.72px" height="117.33px"><defs><style>.cls-1{fill:#ece7ea;}.cls-2{fill:#1d4247;}.cls-3{fill:#72c5d6;}.cls-4{fill:#ed2224;}.cls-5{fill:#8b7e7f;}.cls-6{fill:none;stroke:#8b7e7f;stroke-linecap:round;stroke-linejoin:round;stroke-width:0;}.cls-7{fill:#d9dfeb;}.cls-8{fill:#fec570;}.cls-9{fill:#ffd782;}.cls-10{fill:#f1f4fa;}.cls-11{fill:#fff;}.cls-12{fill:#717689;}.cls-13{fill:#ffd24f;}.cls-14{fill:#b6952f;}.cls-15{fill:#e8ebec;}.cls-16{fill:#ced4d8;}</style></defs><title>Hoe werkt het-icon-idee</title><g id="Layer_2" data-name="Layer 2"><g id="IDEE_UPLOADEN" data-name="IDEE UPLOADEN"><path class="cls-1" d="M108.93,63.56a2.09,2.09,0,1,1,0,4.17h-7.25l-7,7h14.25a2.09,2.09,0,1,1,0,4.17H90.5l-3.22,3.22L79,85.91h30a2.09,2.09,0,0,1,0,4.17H68.42a2.09,2.09,0,0,1,0-4.17h3.8L74,82l-1.47.67a1.1,1.1,0,0,1-1.45-1.45l1.08-2.36H68.42a2.09,2.09,0,1,1,0-4.17H74l3.18-7h-8.8a2.09,2.09,0,1,1,0-4.17H81l7-7H68.42a2.09,2.09,0,0,1,0-4.17H92.19l7-7H16.77a2.09,2.09,0,0,1,0-4.17h86.6L125.7,18.88V14H0V117.33H125.7V43.75L105.87,63.56ZM16.77,30.05H109A2.08,2.08,0,0,1,111,32.14a2.11,2.11,0,0,1-2.11,2.09H16.77a2.09,2.09,0,0,1,0-4.17Zm39.56,70.68H15.81V53.94H56.32Zm52.61.52H68.42a2.09,2.09,0,1,1,0-4.17h40.51a2.09,2.09,0,1,1,0,4.17Z"/><path class="cls-2" d="M125.71,14V0H0V14H125.71Zm-9.08-9.08A2.09,2.09,0,1,1,114.53,7,2.09,2.09,0,0,1,116.62,4.89Zm-9.77,0A2.09,2.09,0,1,1,104.76,7,2.09,2.09,0,0,1,106.85,4.89Zm-9.77,0A2.09,2.09,0,1,1,95,7,2.09,2.09,0,0,1,97.08,4.89Z"/><circle class="cls-3" cx="106.85" cy="6.97" r="2.09"/><circle class="cls-4" cx="116.62" cy="6.97" r="2.09"/><circle class="cls-3" cx="97.08" cy="6.97" r="2.09"/><path class="cls-5" d="M14.68,43.31a2.09,2.09,0,0,0,2.09,2.09H99.19l4.17-4.17H16.77A2.09,2.09,0,0,0,14.68,43.31Z"/><path class="cls-5" d="M16.77,34.23h92.17A2.11,2.11,0,0,0,111,32.14,2.08,2.08,0,0,0,109,30.05H16.77a2.09,2.09,0,0,0,0,4.17Z"/><line class="cls-6" x1="108.94" y1="67.74" x2="108.93" y2="67.74"/><path class="cls-5" d="M111,65.65a2.09,2.09,0,0,0-2.09-2.09h-3.07l-4.18,4.17h7.25A2.09,2.09,0,0,0,111,65.65Z"/><path class="cls-5" d="M66.34,65.65a2.09,2.09,0,0,0,2.09,2.09h8.8l.31-.68h0L81,63.56H68.42A2.09,2.09,0,0,0,66.34,65.65Z"/><path class="cls-5" d="M66.34,54.48a2.09,2.09,0,0,0,2.09,2.09H88l4.17-4.17H68.42A2.09,2.09,0,0,0,66.34,54.48Z"/><line class="cls-6" x1="108.94" y1="78.91" x2="108.93" y2="78.91"/><path class="cls-5" d="M111,76.82a2.09,2.09,0,0,0-2.09-2.09H94.68L90.5,78.91h18.43A2.09,2.09,0,0,0,111,76.82Z"/><path class="cls-5" d="M72.94,77.14,74,74.74H68.42a2.09,2.09,0,1,0,0,4.17h3.71l.81-1.76Z"/><line class="cls-6" x1="108.93" y1="90.08" x2="108.94" y2="90.08"/><path class="cls-5" d="M66.34,88a2.09,2.09,0,0,0,2.09,2.09h40.51a2.09,2.09,0,0,0,0-4.17H79l-1.78.81-4.12,1.89a1.07,1.07,0,0,1-1.42-1.42l.58-1.28h-3.8A2.09,2.09,0,0,0,66.34,88Z"/><line class="cls-6" x1="108.94" y1="101.25" x2="108.93" y2="101.25"/><path class="cls-5" d="M108.93,97.08H68.42a2.09,2.09,0,1,0,0,4.17h40.51a2.09,2.09,0,1,0,0-4.17Z"/><path class="cls-7" d="M86.72,76.25l0,0-8.42,3.83,0,0L74,82l-1.75,3.86-.58,1.28a1.07,1.07,0,0,0,1.42,1.42l4.12-1.89L79,85.91l8.31-3.78,3.22-3.22,4.18-4.17,7-7,4.18-4.17L125.7,43.75h0V37.27Z"/><polygon class="cls-8" points="125.7 18.88 103.36 41.22 99.19 45.4 92.19 52.39 88.02 56.57 81.02 63.56 77.53 67.05 82.13 71.64 82.12 71.65 82.12 71.65 82.13 71.64 82.13 71.64 143.42 10.35 143.43 10.36 143.43 10.36 138.83 5.76 125.7 18.88"/><polygon class="cls-8" points="77.53 67.06 77.53 67.06 77.53 67.05 77.53 67.06"/><polygon class="cls-9" points="82.13 71.64 86.72 76.23 86.7 76.24 86.72 76.25 125.7 37.27 148.02 14.95 143.43 10.36 143.42 10.35 82.13 71.64"/><path class="cls-10" d="M151.09,8.81,148,5.76l-4.6,4.58-4.59-4.59,3.07-3.07a2.19,2.19,0,0,1,1.52-.62,2.18,2.18,0,0,0-1.55.62l-3.07,3.07h0l4.6,4.6L148,15l3.07-3.07A2.19,2.19,0,0,0,151.09,8.81Z"/><path class="cls-7" d="M138.84,5.74l4.59,4.59L148,5.76h0L145,2.68a2.2,2.2,0,0,0-3.07,0Z"/><polygon class="cls-7" points="77.53 67.05 77.53 67.06 77.22 67.74 74.04 74.73 72.94 77.14 72.95 77.14 73.7 75.5 75.99 77.78 82.12 71.65 82.12 71.65 82.13 71.64 77.53 67.05 77.53 67.05 77.53 67.05"/><polygon class="cls-11" points="75.99 77.78 78.28 80.07 86.7 76.24 86.72 76.23 82.13 71.64 82.13 71.64 82.12 71.65 75.99 77.78"/><path class="cls-12" d="M76,77.78,73.7,75.5l-.76,1.65-.81,1.76-1.08,2.36a1.1,1.1,0,0,0,1.45,1.45L74,82l4.33-2,0,0Z"/><path class="cls-4" d="M15.81,100.74H56.32V53.94H15.81Zm7.51-31.25A13.17,13.17,0,0,1,34.89,57.92,6.17,6.17,0,0,1,36,57.85c.42,0,.76.07,1.15.07A13.13,13.13,0,0,1,48.76,69.48h0a12.87,12.87,0,0,1-4,10.9,11,11,0,0,0-3.36,5.71v2h0v1.33h0v1.33h0v1.35h0v2H40.09L38.67,96a2,2,0,0,1-1.6.81h-2A2,2,0,0,1,33.44,96L32,94.16H30.67V86.1h0a11,11,0,0,0-3.36-5.72A13,13,0,0,1,23.32,69.48Z"/><rect class="cls-13" x="34.72" y="75.35" width="2.7" height="10.73"/><path class="cls-13" d="M32,71.3h0A1.35,1.35,0,1,0,32,74h1.35V72.65A1.35,1.35,0,0,0,32,71.3Z"/><path class="cls-13" d="M41.44,72.62a1.35,1.35,0,1,0-2.7,0V74h1.35A1.35,1.35,0,0,0,41.44,72.62Z"/><path class="cls-13" d="M30.66,86.1h0v0h2.73V75.35H32a2.7,2.7,0,1,1,2.7-2.7V74h2.7V72.65a2.7,2.7,0,1,1,2.7,2.7H38.79V86.08h2.63v0a11,11,0,0,1,3.36-5.71,12.87,12.87,0,0,0,4-10.9h0A13.13,13.13,0,0,0,37.2,57.92c-.39,0-.74-.07-1.15-.07a6.17,6.17,0,0,0-1.15.07A13.17,13.17,0,0,0,23.32,69.48a13,13,0,0,0,4,10.9A11,11,0,0,1,30.66,86.1Z"/><path class="cls-14" d="M34.72,75.35h2.7V86.08h1.37V75.35h1.35a2.7,2.7,0,1,0-2.7-2.7V74h-2.7V72.65a2.7,2.7,0,1,0-2.7,2.7h1.35V86.08h1.33Zm4-2.72A1.35,1.35,0,1,1,40.09,74H38.74ZM33.36,74H32a1.35,1.35,0,1,1,0-2.7h0a1.35,1.35,0,0,1,1.34,1.35Z"/><path class="cls-15" d="M38.79,86.08H30.67v2h4.71a.66.66,0,0,1,0,1.33v0H30.67v1.35h2.7a.66.66,0,1,1,0,1.33v0h-2.7v2H41.42v-2H36.73a.66.66,0,0,1,0-1.33v0h4.69V89.44H38.74a.66.66,0,0,1,0-1.33h2.68v-2Z"/><path class="cls-16" d="M33.44,96a2,2,0,0,0,1.62.81h2a2,2,0,0,0,1.6-.81l1.42-1.89H32Z"/><path class="cls-16" d="M35.38,89.44a.66.66,0,0,0,0-1.33H30.67v1.35h4.71Z"/><path class="cls-16" d="M33.37,92.14a.66.66,0,1,0,0-1.33h-2.7v1.35h2.7Z"/><path class="cls-16" d="M38.08,88.78a.66.66,0,0,0,.66.66h2.7V88.12h-2.7A.66.66,0,0,0,38.08,88.78Z"/><path class="cls-16" d="M36.73,90.79a.66.66,0,0,0,0,1.33h4.71V90.77H36.73Z"/></g></g></svg>