<svg xmlns="http://www.w3.org/2000/svg" viewBox="0 0 117.53 117.38" width="117.53px" height="117.38px"><defs><style>.cls-1{fill:none;}.cls-2{fill:#323333;}.cls-3{fill:#94322c;}.cls-4{fill:#ece7ea;}.cls-5{fill:#ed2224;}.cls-6{fill:#fff;}.cls-7{fill:#ffd24f;}</style></defs><title>Hoewerkthet-icon-agenda</title><g id="Layer_2" data-name="Layer 2"><g id="IDEE_UPLOADEN" data-name="IDEE UPLOADEN"><path class="cls-1" d="M54.37,52.13h10a21.85,21.85,0,0,1-3.66-5.69q-1.49,0-2.93-.13A14.25,14.25,0,0,1,54.37,52.13Z"/><path class="cls-2" d="M117.53,38.82c0-12.73-12.92-23.08-28.92-23.22a18.84,18.84,0,0,1,1.6,7.62C90.21,36,77.12,46.45,61,46.45h-.29a21.85,21.85,0,0,0,3.66,5.69H75.44l1.27,8A35.7,35.7,0,0,0,88.31,62c1.09,0,2.16-.05,3.22-.13a14.28,14.28,0,0,0,13.66,10.21,14.48,14.48,0,0,1-4-12.43C110.86,55.9,117.53,48,117.53,38.82Z"/><polygon class="cls-3" points="72.27 72.12 72.26 72.12 72.27 72.12 65.08 117.38 85.79 117.38 76.71 60.15 75.44 52.13 72.27 72.12"/><path class="cls-4" d="M72.26,72.12H7.17L0,117.38H65.08l7.19-45.26ZM20.41,106.44H14.5a1.42,1.42,0,1,1,0-2.85h5.91a1.42,1.42,0,1,1,0,2.85Zm3.06-11.68A1.44,1.44,0,0,1,22,96.18h-5.9a1.42,1.42,0,0,1,0-2.85H22a1.42,1.42,0,0,1,1.42,1.42ZM25.1,84.5a1.45,1.45,0,0,1-1.44,1.42h-5.9a1.42,1.42,0,0,1,0-2.85h5.91A1.42,1.42,0,0,1,25.1,84.5Zm12.37,21.93H31.56a1.42,1.42,0,0,1,0-2.85h5.91a1.42,1.42,0,0,1,0,2.85Zm1.63-10.25H33.18a1.42,1.42,0,0,1,0-2.85h5.91a1.42,1.42,0,0,1,0,2.85Zm1.63-10.25H34.81a1.42,1.42,0,1,1,0-2.85h5.91a1.42,1.42,0,1,1,0,2.85Zm13.79,20.51H48.6a1.42,1.42,0,1,1,0-2.85h5.91a1.42,1.42,0,1,1,0,2.85Zm3-11.68a1.4,1.4,0,0,1-1.38,1.42h-6a1.42,1.42,0,0,1,0-2.85h5.91a1.42,1.42,0,0,1,1.42,1.42Zm.22-8.83H51.86a1.42,1.42,0,0,1,0-2.85h5.91a1.42,1.42,0,0,1,0,2.85Z"/><path class="cls-5" d="M72.26,72.12h0l3.17-20H54.37A14.27,14.27,0,0,1,44.1,56.52a14.45,14.45,0,0,0,3-4.39H10.35l-3.18,20H72.26Zm-51-11.41h40a1.42,1.42,0,1,1,0,2.85h-40a1.42,1.42,0,1,1,0-2.85Z"/><path class="cls-3" d="M21.29,63.56h40a1.42,1.42,0,1,0,0-2.85h-40a1.42,1.42,0,1,0,0,2.85Z"/><path class="cls-6" d="M23.68,83.08H17.76a1.42,1.42,0,0,0,0,2.85h5.9A1.45,1.45,0,0,0,25.1,84.5h0A1.42,1.42,0,0,0,23.68,83.08Z"/><path class="cls-6" d="M40.72,83.08H34.81a1.42,1.42,0,1,0,0,2.85h5.91a1.42,1.42,0,1,0,0-2.85Z"/><path class="cls-6" d="M57.78,83.08H51.86a1.42,1.42,0,0,0,0,2.85h5.91a1.42,1.42,0,0,0,0-2.85Z"/><path class="cls-6" d="M22,93.33H16.14a1.42,1.42,0,0,0,0,2.85H22a1.44,1.44,0,0,0,1.44-1.42h0A1.42,1.42,0,0,0,22,93.33Z"/><path class="cls-6" d="M39.09,93.33H33.18a1.42,1.42,0,0,0,0,2.85h5.91a1.42,1.42,0,0,0,0-2.85Z"/><path class="cls-6" d="M56.13,93.33H50.22a1.42,1.42,0,0,0,0,2.85h6a1.4,1.4,0,0,0,1.38-1.42h0A1.42,1.42,0,0,0,56.13,93.33Z"/><path class="cls-6" d="M20.41,103.59H14.5a1.42,1.42,0,1,0,0,2.85h5.91a1.42,1.42,0,1,0,0-2.85Z"/><path class="cls-6" d="M37.47,103.59H31.56a1.42,1.42,0,0,0,0,2.85h5.91a1.42,1.42,0,0,0,0-2.85Z"/><path class="cls-6" d="M54.51,103.59H48.6a1.42,1.42,0,1,0,0,2.85h5.91a1.42,1.42,0,1,0,0-2.85Z"/><path class="cls-7" d="M54.37,52.13a14.25,14.25,0,0,0,3.39-5.81q1.44.11,2.93.13H61c16.15,0,29.24-10.41,29.24-23.22a18.84,18.84,0,0,0-1.6-7.62C84.65,6.53,73.78,0,61,0,44.84,0,31.75,10.41,31.75,23.22c0,9.17,6.67,17.07,16.37,20.86a14.59,14.59,0,0,1-4,12.43A14.27,14.27,0,0,0,54.37,52.13Z"/></g></g></svg>