<svg xmlns="http://www.w3.org/2000/svg" viewBox="0 0 27.5 39.97" width="27.5" height="39.97"><defs><style>.cls-1{fill:#ed2224;}</style></defs><title>kaart-pin groot</title><g id="Layer_2" data-name="Layer 2"><g id="OVER_AB" data-name="OVER AB"><g id="Group_1412" data-name="Group 1412"><path id="Path_354" data-name="Path 354" class="cls-1" d="M26.73,8.34C24.77,2,18.15,0,13.49,0A13.32,13.32,0,0,0,0,12.51v2.7c.49,3.92,3.68,8.09,6.13,12C8.58,31.39,11.28,35.8,14,40c1.72-2.7,6.86-11.53,7.11-12,2-3.19,4.41-6.38,5.64-9.56a17.6,17.6,0,0,0,.55-8A8.86,8.86,0,0,0,26.73,8.34Zm-13,10.3c-3.43,0-4.9-2.7-4.9-5.64a4.85,4.85,0,0,1,4.9-4.66,5,5,0,0,1,5.15,4.9q0,.12,0,.25A5.35,5.35,0,0,1,13.73,18.64Z"/></g></g></g></svg>