<svg xmlns="http://www.w3.org/2000/svg" viewBox="0 0 19.05 16.5"><defs><style>.cls-1{fill:#676868;}</style></defs><title>stemdrempel-duimomhoog</title><g id="Layer_2" data-name="Layer 2"><g id="IDEE_DETAIL" data-name="IDEE DETAIL"><path class="cls-1" d="M17.54,5.12H16.33a1.51,1.51,0,0,0-1.51,1.5s0,0,0,0v8.27a1.54,1.54,0,0,0,1.51,1.51h1.21A1.51,1.51,0,0,0,19,14.92h0V6.63A1.51,1.51,0,0,0,17.54,5.12Z"/><path class="cls-1" d="M13.66,5.57a1.4,1.4,0,0,0-.5-1,14.26,14.26,0,0,1-2.83-2.78,7.86,7.86,0,0,0-.7-1A3.16,3.16,0,0,0,6.79.07a.5.5,0,0,0-.37.7L7.86,4.53a.42.42,0,0,1-.39.59l-5.58.14a2.58,2.58,0,0,0-1.12.31l-.34.17A.92.92,0,0,0,0,6.6l1.43,7.86a2.39,2.39,0,0,0,.5,1l.53.59a1.64,1.64,0,0,0,1,.42l9.84-.22a.6.6,0,0,0,.59-.61h0Z"/></g></g></svg>