<?xml version="1.0" encoding="UTF-8" standalone="no"?>
<svg width="252px" height="72px" viewBox="0 0 252 72" version="1.1" xmlns="http://www.w3.org/2000/svg" xmlns:xlink="http://www.w3.org/1999/xlink">
	<defs>
		<style>
			#vimeo {
				stroke: none;
				stroke-width: 1px;
				fill: none;
				fill-rule: evenodd;
			}
			#dot, #text {
				fill: rgba(0,0,0,0.07);
			}
		</style>
	</defs>
	<g id="vimeo">
		<path id="dot" d="M71.56,0.592 C75.96,-1.808 80.26,3.692 79.16,7.692 C78.66,13.292 72.06,15.892 67.06,15.192 C63.66,15.792 60.46,11.892 62.06,8.392 C62.96,3.992 67.26,1.092 71.56,0.592"></path>
		<path id="text" d="M184.859,34.392 C181.76,35.392 178.561,37.092 176.961,40.092 C175.359,43.492 172.76,46.792 173.26,50.792 C175.859,51.492 178.061,49.392 179.961,48.191 C183.061,45.892 186.561,43.292 187.76,39.492 C189.961,36.392 187.16,34.592 184.859,34.392 L184.859,34.392 Z M229.561,33.592 C226.961,34.092 224.359,35.592 223.061,38.092 C218.859,43.492 216.561,51.191 219.26,57.691 C220.061,60.392 223.561,62.191 225.961,60.191 C232.061,58.092 234.461,51.792 236.26,46.191 C237.359,42.992 237.16,39.492 236.061,36.292 C235.16,33.892 232.461,31.492 229.561,33.592 L229.561,33.592 Z M40.96,23.592 C44.76,22.092 49.46,21.592 52.96,24.092 C54.76,25.992 55.56,28.692 56.86,30.892 C60.26,28.192 62.96,24.292 67.36,23.192 C71.86,21.492 76.86,26.592 74.86,31.092 C74.86,39.292 71.16,47.092 72.36,55.392 C72.86,56.792 74.06,58.592 75.86,58.092 C78.56,57.292 80.96,55.492 82.66,53.292 C83.96,47.792 84.76,42.191 84.86,36.492 C81.86,36.592 78.26,39.092 76.06,35.992 C78.36,32.692 81.46,30.192 84.46,27.492 C86.56,25.792 88.66,23.892 91.26,23.192 C93.36,22.592 95.26,24.292 96.36,25.892 C97.86,28.292 97.86,31.192 98.66,33.792 C102.66,30.292 106.66,26.192 112.16,24.992 C115.96,24.292 120.46,23.992 123.66,26.492 C125.36,28.992 125.66,32.092 126.66,34.892 C131.461,30.892 135.76,25.092 142.461,24.492 C145.061,24.392 147.961,23.992 150.359,25.392 C152.859,27.492 154.461,30.792 154.061,34.092 C153.561,41.592 150.561,48.792 151.061,56.392 C151.961,57.191 152.859,57.792 153.961,58.292 C155.26,57.792 156.561,57.292 157.561,56.191 C158.66,51.992 158.061,47.292 160.061,43.292 C163.061,36.092 169.16,30.692 175.76,26.892 C181.359,23.792 187.859,23.592 194.061,24.192 C196.76,24.892 200.66,25.692 201.66,28.792 C202.76,31.992 203.26,35.592 201.76,38.691 C198.061,46.792 189.961,52.191 181.461,54.292 C179.461,54.992 177.061,55.292 175.66,57.092 C179.26,59.992 184.061,59.292 188.359,58.992 C193.16,57.992 198.561,57.292 202.76,54.392 C203.561,50.792 203.461,47.092 204.359,43.492 C205.061,40.592 206.66,37.992 208.461,35.592 C213.66,28.992 221.061,23.592 229.66,23.292 C234.561,23.092 240.061,22.692 244.16,25.892 C248.561,29.292 250.16,34.992 251.061,40.191 L251.061,42.892 C249.859,49.992 247.561,57.191 242.359,62.392 C235.961,69.492 225.66,72.492 216.461,70.191 C211.16,69.892 208.461,65.092 204.76,62.092 C199.961,63.592 195.76,66.592 190.859,67.992 C183.26,70.092 174.859,72.092 167.16,69.191 C164.359,67.892 162.461,65.292 160.061,63.392 C154.859,66.492 149.66,70.792 143.16,70.092 C139.16,71.492 135.461,68.492 135.061,64.691 C134.66,56.191 138.859,48.191 137.859,39.691 C136.66,38.691 135.061,37.592 133.461,38.292 C130.461,40.092 128.961,43.492 127.16,46.292 C125.06,50.092 122.86,54.092 122.36,58.492 C122.26,62.392 122.66,66.292 122.56,70.191 C118.76,69.892 114.76,69.792 111.26,67.992 C109.46,65.691 107.96,62.792 107.96,59.892 C108.16,54.092 110.16,48.691 110.86,43.092 C111.06,41.492 110.36,39.792 109.26,38.691 C106.66,36.992 102.86,38.992 102.06,41.992 C99.56,45.392 97.96,49.392 97.06,53.492 C95.16,58.892 96.76,64.492 96.66,70.092 C92.96,69.792 88.76,69.792 85.76,67.392 C84.46,65.892 83.76,64.092 82.76,62.492 C78.76,63.992 75.66,67.191 71.76,68.992 C68.36,70.392 64.56,69.992 60.96,69.892 C57.36,68.792 56.26,64.492 56.36,61.092 C57.36,52.691 60.76,44.792 61.06,36.292 C59.46,36.292 57.66,36.292 56.36,37.292 C54.46,39.292 53.56,41.892 52.16,44.292 C47.06,53.392 40.96,62.392 32.16,68.392 C30.16,69.792 27.66,70.592 25.16,70.792 C22.36,70.691 20.16,68.292 19.06,65.892 C15.66,59.292 15.06,51.691 12.56,44.691 C11.46,41.892 10.96,38.592 8.56,36.492 C6.46,36.792 4.46,37.292 2.36,37.691 C1.26,37.292 0.66,36.192 0.06,35.192 C3.96,31.592 7.96,28.192 12.26,25.092 C14.26,23.592 16.86,22.992 19.36,23.292 C22.96,24.992 24.16,29.192 24.56,32.792 C26.16,39.392 26.16,46.792 29.46,52.892 C31.66,53.292 33.821,54.435 35.96,50.191 C38.099,45.948 41.06,41.792 39.76,36.691 C38.76,33.692 35.26,34.692 32.96,34.492 C33.76,29.892 36.66,25.592 40.96,23.592 L40.96,23.592 Z"></path>
	</g>
</svg>